<svg width="180" height="151" viewBox="0 0 180 151" fill="none" xmlns="http://www.w3.org/2000/svg">
<g id="Brains 2" clip-path="url(#clip0_331_82)">
<g id="Layer_2">
<path id="Vector" d="M80.4102 5.67729C76.4562 4.41809 71.9824 4.75677 68.2818 6.59998C65.0623 8.2022 62.5322 10.8118 59.7551 13.0566C59.2075 13.4995 58.6125 13.9446 57.9081 14.0553C57.0855 14.1834 56.2736 13.8339 55.4746 13.6081C51.4712 12.4748 47.2057 14.4418 43.9777 16.9906C40.7496 19.5394 38.0326 22.733 34.4222 24.752C29.9785 27.2357 24.1796 27.9804 21.1942 32.0098C20.0709 33.5252 19.4781 35.3706 18.2603 36.8143C16.2908 39.1438 12.7685 40.364 11.9115 43.2536C11.5378 44.515 11.7397 45.9652 10.9708 47.0464C10.3909 47.8649 9.38575 48.2796 8.50731 48.7963C6.05241 50.24 4.3385 52.7953 3.97767 55.546C3.80156 56.8921 3.92183 58.3184 3.31831 59.5451C2.85654 60.4873 2.01891 61.2016 1.41109 62.0635C-1.27361 65.878 1.18987 70.9843 1.06315 75.5912C0.994426 78.1009 0.120286 80.5781 0.378018 83.077C0.571317 84.9549 1.42183 86.7656 2.76204 88.142C4.13231 89.551 5.94288 90.4737 7.53223 91.6504C13.6083 96.1466 16.8063 104.527 24.2075 106.426C26.9287 107.126 29.9463 106.822 32.4313 108.096C34.9656 109.394 36.4905 112.123 39.0915 113.293C40.5176 113.934 42.1349 114.042 43.7092 114.032C47.5666 114.008 51.6387 113.235 54.491 110.729C57.0941 108.441 58.3247 104.991 58.5953 101.605C58.8917 97.9052 58.3677 93.6347 61.1039 91.0273C63.1529 89.0734 66.5528 88.6717 68.1916 86.3878C69.5554 84.4881 69.3084 81.7635 70.872 80.0136C72.8973 77.7471 76.6194 78.3398 79.6027 77.5191C83.0305 76.5769 85.4703 73.7089 87.4957 70.8801C88.8874 68.9392 90.2448 66.5293 89.3428 64.3344C88.2087 61.5728 83.881 60.2789 84.1151 57.3176C84.2289 55.8825 85.4983 54.6472 85.3608 53.2143C85.2169 51.7033 83.6233 50.7697 82.1864 50.151C79.622 49.0459 76.963 48.1493 74.6177 47.587C72.5837 47.1637 71.25 44.8081 71.9824 42.9301C72.8801 40.6288 75.9493 39.7995 77.2122 37.6654C78.2087 35.9785 77.8952 33.777 78.9497 32.1205C80.2728 30.0385 83.1787 29.6 85.7087 29.5479C88.2388 29.4957 91.0459 29.524 92.9252 27.887C94.3213 26.6691 94.8711 24.726 94.6971 22.9175C94.5232 21.109 93.7092 19.4134 92.7362 17.8568C90.6035 14.4613 89.3922 8.53872 80.4102 5.67729Z" fill="url(#paint0_linear_331_82)"/>
</g>
<g id="Layer_8">
<path id="Vector_2" d="M37.5236 105.41C37.3969 105.41 37.268 105.373 37.1563 105.293C36.8643 105.087 36.7934 104.681 36.9953 104.386C38.7951 101.774 40.7367 99.2164 42.7663 96.7827C44.9098 94.21 47.3153 91.6178 50.3672 90.0742C53.8423 88.3156 57.7126 88.3156 60.4682 90.0742C60.7689 90.2652 60.8591 90.669 60.6701 90.973C60.4811 91.2769 60.0816 91.3681 59.7809 91.177C57.9166 89.9895 54.6177 89.3816 50.9429 91.24C48.1014 92.6794 45.8054 95.1587 43.75 97.625C41.7461 100.028 39.8282 102.555 38.0498 105.135C37.9274 105.313 37.7255 105.41 37.5236 105.41Z" fill="#E6A800"/>
<path id="Vector_3" d="M24.4674 101.281C24.4502 101.281 24.4351 101.281 24.418 101.279C20.5112 100.981 16.8793 98.487 15.1632 94.9243C15.0064 94.6008 15.1396 94.21 15.4596 94.0537C15.7796 93.8952 16.1662 94.0298 16.3209 94.3533C17.8393 97.5056 21.0546 99.7136 24.5146 99.9785C24.869 100.005 25.1353 100.319 25.1095 100.678C25.0838 101.023 24.8003 101.281 24.4674 101.281Z" fill="#E6A800"/>
<path id="Vector_4" d="M10.9665 92.9009C10.9149 92.9009 10.8612 92.8944 10.8075 92.8813C10.4617 92.7923 10.2534 92.4385 10.3415 92.0889C11.2629 88.4329 13.8251 85.2849 17.1993 83.6675C18.4708 83.0596 19.6026 82.8034 20.6529 82.8859C22.3367 83.0183 23.7092 83.9801 25.0365 84.9115C25.2169 85.0374 25.3973 85.1633 25.5756 85.2871C27.6546 86.7134 29.927 87.8228 32.326 88.5827C32.6654 88.6912 32.8544 89.056 32.7491 89.399C32.6417 89.742 32.2809 89.9331 31.9416 89.8267C29.4222 89.0299 27.0361 87.8641 24.8518 86.3661C24.6692 86.2401 24.4845 86.1121 24.3019 85.9818C23.1164 85.1503 21.89 84.2906 20.5541 84.1842C19.7315 84.119 18.8166 84.3362 17.7534 84.8442C14.7229 86.2966 12.4205 89.1233 11.5936 92.4081C11.5163 92.7033 11.2543 92.9009 10.9665 92.9009Z" fill="#E6A800"/>
<path id="Vector_5" d="M31.7182 97.3732C27.9832 97.3732 24.5919 95.2478 21.7032 93.2482C21.4089 93.0441 21.3338 92.6403 21.5356 92.3429C21.7375 92.0455 22.137 91.9695 22.4313 92.1736C25.3114 94.1666 28.4128 96.101 31.8127 96.0706C33.2238 96.0554 34.622 95.6841 35.857 94.9981C36.7375 94.5096 37.3969 93.9278 37.8157 93.2721C38.1508 92.7489 38.3849 92.0911 38.5116 91.316C38.8875 89.0408 38.2453 86.442 36.701 83.9974C35.2792 81.7482 33.3054 79.8638 31.3982 78.0401C31.1405 77.7926 31.1276 77.3801 31.3724 77.1196C31.6173 76.8591 32.0253 76.846 32.2831 77.0935C34.2483 78.9715 36.2801 80.9124 37.7878 83.2962C39.5039 86.0122 40.2148 88.9366 39.7852 91.5309C39.6284 92.4797 39.3299 93.3047 38.9003 93.9777C38.3634 94.8179 37.5494 95.5452 36.4777 96.1401C35.0558 96.9281 33.4493 97.3558 31.8277 97.3732C31.7912 97.3732 31.7547 97.3732 31.7182 97.3732Z" fill="#E6A800"/>
<path id="Vector_6" d="M8.57173 85.5541C8.36554 85.5541 8.16365 85.4542 8.03908 85.2718C6.21777 82.5841 6.73968 78.5156 9.17954 76.3858C9.61339 76.0058 10.0838 75.6954 10.5391 75.3936C10.96 75.1157 11.3574 74.853 11.7139 74.5469C12.485 73.8912 12.8909 73.0966 12.8028 72.4215C12.6675 71.3946 11.5292 70.7367 10.4295 70.0984C10.2878 70.0159 10.1482 69.9356 10.0129 69.8553C7.85008 68.57 6.04595 66.6118 4.93126 64.3409C4.77233 64.0195 4.90334 63.6288 5.22336 63.4681C5.54337 63.3074 5.92782 63.4399 6.08676 63.7634C7.08977 65.8106 8.71777 67.5757 10.6658 68.7329C10.799 68.811 10.9343 68.8892 11.0717 68.9695C12.3153 69.6903 13.8638 70.5869 14.0808 72.2521C14.2289 73.3876 13.6705 74.586 12.5451 75.5456C12.1284 75.9016 11.6795 76.1991 11.2435 76.4856C10.8033 76.7766 10.3887 77.0501 10.0193 77.3736C8.05197 79.0909 7.63315 82.3691 9.10008 84.5358C9.30197 84.8333 9.2268 85.2371 8.93255 85.4412C8.82302 85.5172 8.6963 85.5541 8.57173 85.5541Z" fill="#E6A800"/>
<path id="Vector_7" d="M20.6271 69.9248C18.0713 69.9248 15.3866 68.8957 13.2302 67.0177C10.9514 65.0334 9.17525 62.1438 7.95317 58.4291C7.84148 58.0883 8.02404 57.7192 8.36124 57.6063C8.69844 57.4912 9.06356 57.6779 9.17524 58.0188C10.3243 61.5055 11.9716 64.2019 14.07 66.0321C16.5614 68.2031 19.8153 69.1019 22.5601 68.379C25.5412 67.5952 27.7899 64.6643 27.573 61.8485C27.3475 58.9306 24.9828 56.6858 22.6933 54.5147L22.5086 54.3389C20.3264 52.2655 17.4893 49.0871 18.0498 45.4159C18.1035 45.0599 18.4321 44.8167 18.7844 44.871C19.1366 44.9253 19.3771 45.2596 19.3234 45.6135C18.8552 48.6768 21.4197 51.5187 23.3913 53.3901L23.576 53.566C25.9278 55.7978 28.5954 58.3271 28.8574 61.7486C29.1258 65.2223 26.5013 68.6894 22.8844 69.6425C22.1585 69.8314 21.3982 69.9248 20.6271 69.9248Z" fill="#E6A800"/>
<path id="Vector_8" d="M58.3698 82.9814C58.1722 82.9814 57.9768 82.8902 57.8501 82.7165C56.4691 80.8191 54.128 79.8421 51.8642 78.8977C51.6173 78.7957 51.3724 78.6915 51.1297 78.5894C48.6276 77.5299 45.6293 75.9277 44.6198 72.9295C43.7929 70.4741 44.6284 67.4759 46.6989 65.472C48.2904 63.9306 52.1413 62.882 53.7221 62.502C56.9459 61.7291 60.0086 61.4339 61.9158 61.7139C62.268 61.766 62.5129 62.096 62.4613 62.4521C62.4098 62.8081 62.0812 63.0535 61.7311 63.0035C57.936 62.4477 49.6091 64.456 47.588 66.4142C45.872 68.0751 45.1697 70.5262 45.8376 72.5127C46.6817 75.018 49.375 76.4357 51.6258 77.391C51.8664 77.493 52.1091 77.5951 52.3539 77.6971C54.7831 78.711 57.2938 79.7574 58.8874 81.948C59.0979 82.2367 59.0356 82.6449 58.75 82.8577C58.6361 82.9402 58.503 82.9814 58.3698 82.9814Z" fill="#E6A800"/>
<path id="Vector_9" d="M67.7556 79.549C67.5902 79.549 67.4248 79.486 67.2981 79.3579C63.6383 75.6433 58.8252 73.0228 53.7435 71.9764C53.3956 71.9048 53.1701 71.5617 53.241 71.2079C53.3118 70.8561 53.6533 70.626 54.0013 70.6998C59.3277 71.7962 64.375 74.5447 68.2109 78.4396C68.4622 78.6936 68.4622 79.1061 68.2087 79.3601C68.0842 79.486 67.9188 79.549 67.7556 79.549Z" fill="#E6A800"/>
<path id="Vector_10" d="M69.8475 71.3381C66.9803 71.3381 64.0808 69.7315 62.5236 67.1849C60.8419 64.4364 60.7302 60.7282 62.2358 57.7366C63.677 54.8751 66.4755 52.7475 69.7251 52.0419C70.073 51.9659 70.4167 52.1896 70.4897 52.5413C70.5649 52.893 70.3437 53.2403 69.9957 53.3141C67.122 53.9372 64.6499 55.8108 63.3849 58.3249C62.0769 60.9193 62.1693 64.1281 63.619 66.4989C65.1095 68.9369 68.0391 70.3655 70.7388 69.9703C73.2281 69.6056 75.2191 67.96 77.3239 66.2144C78.8896 64.9162 80.5112 63.5766 82.3969 62.7516C82.7234 62.6084 83.1035 62.7603 83.2431 63.0903C83.3827 63.4203 83.2346 63.8046 82.9081 63.9457C81.1877 64.6969 79.6392 65.98 78.14 67.2218C75.9901 69.0021 73.7672 70.8431 70.9214 71.2599C70.567 71.312 70.2062 71.3381 69.8475 71.3381Z" fill="#E6A800"/>
<path id="Vector_11" d="M71.8879 63.0057C71.701 63.0057 71.5163 62.9232 71.3896 62.7668C71.1641 62.4889 71.2049 62.0786 71.4798 61.8507C73.9626 59.7969 75.857 57.1004 76.9588 54.0545C77.0812 53.7158 77.4506 53.5443 77.7856 53.6659C78.1207 53.7896 78.2925 54.163 78.1701 54.5017C76.9888 57.7669 74.957 60.6566 72.296 62.858C72.1757 62.9579 72.0318 63.0057 71.8879 63.0057Z" fill="#E6A800"/>
<path id="Vector_12" d="M36.1942 61.3926C33.4686 61.3926 30.7367 60.4938 28.6039 58.77C28.3269 58.5464 28.2818 58.136 28.503 57.8538C28.7242 57.5737 29.1301 57.5281 29.4094 57.7518C32.4828 60.2354 36.9588 60.8043 40.5455 59.1651C40.8698 59.0175 41.2522 59.1629 41.3982 59.4908C41.5442 59.8186 41.4003 60.2051 41.076 60.3527C39.5447 61.0518 37.8694 61.3926 36.1942 61.3926Z" fill="#E6A800"/>
<path id="Vector_13" d="M28.4708 42.7912C28.0326 42.7912 27.5966 42.7412 27.1606 42.624C24.7358 41.9705 23.0992 39.1851 23.5137 36.4148C23.8531 34.1352 25.4081 31.9946 27.7792 30.54C29.8367 29.2786 32.152 28.6729 34.39 28.0867C34.7358 27.9955 35.0859 28.2061 35.1761 28.5535C35.2663 28.9008 35.058 29.2569 34.7143 29.3481C32.5666 29.9104 30.3436 30.4922 28.4471 31.6537C26.4046 32.9064 25.0709 34.7127 24.7873 36.608C24.5081 38.4773 25.5283 40.835 27.4935 41.3648C28.7092 41.6926 30.015 41.3235 31.4733 40.8481C34.3599 39.9037 37.2702 38.8985 40.1203 37.8564C40.4553 37.7348 40.8247 37.9085 40.945 38.2472C41.0653 38.5858 40.8935 38.9593 40.5584 39.0808C37.6954 40.1273 34.7702 41.139 31.8707 42.0856C30.7195 42.4612 29.5898 42.7912 28.4708 42.7912Z" fill="#E6A800"/>
<path id="Vector_14" d="M36.5314 49.8818C36.366 49.8818 36.2006 49.8188 36.0739 49.6907C35.8226 49.4367 35.8226 49.0242 36.076 48.7702C37.6611 47.1745 39.7895 46.4711 41.8492 45.7893C42.2337 45.6613 42.6181 45.5353 42.9961 45.4029C45.9257 44.3782 47.6374 43.0278 48.2281 41.2714C49.012 38.9397 47.5623 36.5559 46.9029 35.6376C46.1877 34.6432 45.3436 33.7748 44.448 32.8521C43.7994 32.1856 43.1293 31.4952 42.5172 30.7571C41.2435 29.22 39.7917 26.8384 40.1074 24.2266C40.1503 23.8684 40.4725 23.6144 40.8247 23.66C41.177 23.7034 41.4283 24.029 41.3853 24.3851C41.1254 26.5344 42.3926 28.5817 43.503 29.9212C44.0807 30.6203 44.7337 31.2912 45.3651 31.9403C46.2543 32.8543 47.1714 33.7987 47.9424 34.8712C49.5855 37.1551 50.1331 39.641 49.4459 41.6883C48.7199 43.8506 46.7461 45.468 43.4149 46.6317C43.0305 46.7663 42.6396 46.8944 42.2487 47.0247C40.3329 47.6586 38.3527 48.3121 36.9845 49.6907C36.86 49.8188 36.6967 49.8818 36.5314 49.8818Z" fill="#E6A800"/>
<path id="Vector_15" d="M51.9609 59.4344C51.7203 59.4344 51.4884 59.2976 51.3789 59.061C50.131 56.3993 49.1688 53.6095 50.5541 51.2474C51.2092 50.1293 52.2487 49.4151 53.2538 48.7247L53.3505 48.6574C54.7401 47.7021 56.3166 46.5558 57.4313 45.0534C58.576 43.5077 59.0593 41.7448 58.7543 40.2185C58.5502 39.1982 58.0197 38.2711 57.3969 37.2507C55.0494 33.4015 52.4334 29.6673 49.6241 26.1502L49.5339 26.0373C48.7865 25.1038 48.0133 24.1377 47.5752 22.9566C47.0253 21.4803 47.1843 19.9172 47.9897 18.8816C48.2088 18.5994 48.6147 18.5494 48.8939 18.7709C49.1731 18.9923 49.2225 19.4026 49.0034 19.6849C48.372 20.499 48.4751 21.6714 48.7822 22.4964C49.1495 23.4799 49.8239 24.3244 50.5369 25.2167L50.6271 25.3296C53.4729 28.8901 56.119 32.6698 58.4944 36.5647C59.1581 37.6524 59.7723 38.7292 60.0172 39.958C60.393 41.849 59.826 43.9896 58.4622 45.8328C57.2294 47.4959 55.552 48.7182 54.0764 49.732L53.9798 49.7993C53.0928 50.4094 52.1735 51.039 51.6645 51.9074C50.5863 53.7463 51.4519 56.1626 52.5451 58.5009C52.6976 58.8265 52.5601 59.2151 52.238 59.3693C52.1478 59.4149 52.0532 59.4344 51.9609 59.4344Z" fill="#E6A800"/>
<path id="Vector_16" d="M37.3282 54.6233C36.3617 54.6233 35.3071 54.4844 34.1473 54.2021C33.0649 53.9394 31.4798 53.4705 30.2212 52.4219C28.3548 50.8674 27.6117 48.5552 26.8965 45.9152C26.802 45.5679 27.0039 45.2096 27.3475 45.1163C27.689 45.0208 28.0455 45.2248 28.1379 45.5722C28.7929 47.9951 29.463 50.1054 31.0395 51.4167C32.0919 52.2938 33.488 52.7041 34.4459 52.9364C36.2178 53.3663 37.631 53.4357 38.8939 53.1622C39.4867 53.0319 40.0687 52.8213 40.683 52.5977C41.7805 52.1982 42.9145 51.7857 44.1538 51.853C44.5082 51.8726 44.7809 52.1787 44.7637 52.5391C44.7444 52.8973 44.4437 53.173 44.085 53.1557C43.1057 53.1036 42.1413 53.4531 41.119 53.8265C40.4918 54.0545 39.8411 54.2911 39.1645 54.4388C38.5889 54.5603 37.9768 54.6233 37.3282 54.6233Z" fill="#E6A800"/>
<path id="Vector_17" d="M69.6692 37.8065C69.3836 37.8065 69.1216 37.6132 69.0464 37.3201C68.6297 35.7157 68.2045 34.3154 67.2122 33.4362C66.7289 33.0106 66.1018 32.7089 65.4961 32.4179L60.2019 29.8778C59.8797 29.7237 59.7444 29.3351 59.8969 29.0094C60.0494 28.6837 60.4339 28.547 60.756 28.7011L66.0503 31.2412C66.7032 31.556 67.4442 31.9099 68.0606 32.4548C69.433 33.6685 69.9098 35.5095 70.2942 36.988C70.3844 37.3353 70.1783 37.6914 69.8346 37.7826C69.7788 37.7999 69.7229 37.8065 69.6692 37.8065Z" fill="#E6A800"/>
<path id="Vector_18" d="M71.6473 31.0697C71.5013 31.0697 71.3574 31.0198 71.2371 30.9199L66.6688 27.0902C64.9012 25.6074 62.8973 23.927 61.7053 21.6713C60.5734 19.5263 60.2062 16.3761 61.9416 14.1791C62.1628 13.899 62.5687 13.8512 62.8479 14.077C63.1271 14.3028 63.1722 14.711 62.9489 14.9932C61.5786 16.7279 61.9072 19.2897 62.8415 21.0591C63.9132 23.089 65.814 24.6825 67.4914 26.0894L72.0597 29.9191C72.3324 30.1492 72.3711 30.5595 72.1434 30.8353C72.0146 30.9894 71.832 31.0697 71.6473 31.0697Z" fill="#E6A800"/>
<path id="Vector_19" d="M78.097 27.7741C77.9016 27.7741 77.7083 27.6851 77.5816 27.5136C75.3393 24.5002 72.7985 21.083 69.2397 19.3722C68.9175 19.2181 68.7822 18.8294 68.9347 18.5038C69.0872 18.1781 69.4716 18.0414 69.7938 18.1955C73.6383 20.0431 76.28 23.5949 78.6104 26.7299C78.8251 27.0164 78.7671 27.4268 78.4815 27.6417C78.3677 27.7329 78.2324 27.7741 78.097 27.7741Z" fill="#E6A800"/>
<path id="Vector_20" d="M81.4304 23.089C81.134 23.089 80.8677 22.8806 80.8011 22.5766C79.8668 18.2649 76.8019 14.4917 72.7985 12.7288C72.472 12.5855 72.3238 12.2012 72.4656 11.8712C72.6074 11.5412 72.9875 11.3893 73.314 11.5347C77.689 13.4626 81.0395 17.5854 82.0597 22.2987C82.1349 22.6504 81.9158 22.9978 81.5678 23.0738C81.5227 23.0825 81.4755 23.089 81.4304 23.089Z" fill="#E6A800"/>
<path id="Vector_21" d="M58.9175 54.2413C58.823 54.2413 58.7264 54.2196 58.6362 54.1761C58.3161 54.0177 58.183 53.629 58.3398 53.3056C60.509 48.8115 64.4373 45.3053 69.1173 43.6857C69.4545 43.5685 69.8196 43.7508 69.9356 44.0917C70.0515 44.4325 69.8711 44.8016 69.5339 44.9188C65.1761 46.4277 61.5185 49.693 59.4974 53.8787C59.3857 54.1067 59.1559 54.2413 58.9175 54.2413Z" fill="#E6A800"/>
<path id="Vector_22" d="M38.2904 68.1033C36.1662 68.1033 34.0528 67.1741 32.6417 65.5524C32.4076 65.2831 32.4334 64.8706 32.6997 64.634C32.966 64.3974 33.3741 64.4234 33.6082 64.6926C35.0322 66.3296 37.3196 67.1112 39.433 66.69C39.7831 66.6205 40.1203 66.8485 40.1911 67.2023C40.262 67.5562 40.0322 67.8971 39.6843 67.9687C39.2246 68.0577 38.7564 68.1033 38.2904 68.1033Z" fill="#E6A800"/>
<path id="Vector_23" d="M23.0455 80.0266C22.6976 80.0266 22.4119 79.7465 22.4012 79.3948C22.3411 77.3149 22.4141 74.9724 24.0421 73.5265C25.0494 72.6342 26.3874 72.3736 27.442 72.2455C30.1267 71.9221 32.9038 72.1956 35.4768 73.038C35.8161 73.1487 36.0008 73.5156 35.8913 73.8586C35.7818 74.2017 35.4188 74.3884 35.0795 74.2776C32.6847 73.4939 30.0966 73.2377 27.5945 73.5395C26.7246 73.6437 25.6314 73.8499 24.8904 74.5056C23.6813 75.5781 23.6362 77.5711 23.6877 79.3557C23.6984 79.7161 23.4171 80.0157 23.0627 80.0266C23.0584 80.0266 23.052 80.0266 23.0455 80.0266Z" fill="#E6A800"/>
<path id="Vector_24" d="M19.8948 61.8116C19.7315 61.8116 19.5662 61.7487 19.4416 61.6227C16.2028 58.3749 13.3441 54.7406 10.9429 50.8197C10.756 50.5135 10.8484 50.1119 11.1512 49.923C11.454 49.7341 11.8514 49.8275 12.0382 50.1336C14.3857 53.9677 17.1821 57.5217 20.348 60.6979C20.6014 60.9519 20.6014 61.3644 20.3523 61.6184C20.2255 61.7465 20.0602 61.8116 19.8948 61.8116Z" fill="#E6A800"/>
<path id="Vector_25" d="M46.9223 112.162C46.8922 112.162 46.8643 112.16 46.8342 112.156C46.482 112.106 46.235 111.778 46.2844 111.422C47.0082 106.088 48.8187 100.814 51.5206 96.1748C51.701 95.8643 52.0962 95.7623 52.4033 95.9446C52.7105 96.127 52.8114 96.5265 52.631 96.8369C50.015 101.329 48.2603 106.435 47.5601 111.6C47.515 111.926 47.2401 112.162 46.9223 112.162Z" fill="#E6A800"/>
</g>
<g id="Layer_6">
<path id="Vector_26" d="M86.5602 110.907C85.7868 113.64 86.7451 116.639 88.4263 118.914C90.1051 121.19 92.4348 122.874 94.7428 124.487C106.43 132.647 118.681 139.982 131.374 146.417C135.512 148.515 139.809 150.549 144.417 150.961C147.129 151.204 150.518 150.343 151.135 147.658C151.221 147.281 151.243 146.892 151.236 146.505C151.135 142.051 147.141 138.748 143.224 136.724C139.307 134.699 134.878 133.1 132.308 129.486C127.005 122.027 132.639 110.89 128.65 102.633C125.739 96.6094 118.268 93.9761 111.713 94.9107C105.157 95.8428 99.3565 99.6077 86.5602 110.907Z" fill="#D5D0FF"/>
</g>
<g id="Layer_7">
<path id="Vector_27" d="M138.879 85.3652C138.131 88.2028 135.857 90.3847 133.389 91.9326C130.921 93.4806 128.179 94.5422 125.707 96.0836C125.161 96.4245 124.603 96.8196 124.345 97.4123C124.07 98.0463 124.192 98.7757 124.323 99.4531C124.955 102.747 125.659 106.09 125.311 109.427C124.901 113.365 123.069 117.484 124.669 121.098C125.866 123.795 128.724 125.382 131.579 126.024C140.288 127.983 148.928 122.874 156.063 117.455C159.354 114.956 162.7 112.151 164.154 108.259C166.168 102.864 163.868 96.4961 159.641 92.623C155.412 88.7477 149.628 87.0326 138.879 85.3652Z" fill="#2DBC7C"/>
</g>
<g id="Layer_3">
<path id="Vector_28" d="M125.573 44.3933C123.011 46.877 124.583 52.0093 121.624 53.9893C119.828 55.1899 117.562 55.3288 115.488 55.9128C110.694 57.261 106.922 60.9909 102.354 62.9861C98.0327 64.8727 93.0284 65.1094 88.5524 63.6396C85.8484 62.7516 83.1164 60.9714 82.4334 58.1816C82.2015 57.2393 82.2229 56.2428 81.9394 55.3136C81.0352 52.3719 77.6138 51.2429 74.7251 50.2551C71.8363 49.2673 68.5481 47.2309 68.7844 44.1588C68.9412 42.0964 70.6701 40.5788 71.7998 38.855C74.1538 35.2598 74.4888 29.83 78.415 28.1453C81.6065 26.7753 85.9987 28.6446 88.3634 26.0806C89.5919 24.7498 89.6693 22.646 89.0314 20.9439C88.3913 19.2419 87.1607 17.848 85.9536 16.4977C84.4631 14.826 82.9704 13.1543 81.4798 11.4847C80.2577 10.1148 78.9497 8.4887 79.1817 6.65852C79.4738 4.37025 81.9394 3.14578 84.0851 2.35987C87.543 1.09198 91.1877 -0.0977495 94.8346 0.390734C97.4485 0.740271 99.884 1.93651 102.479 2.4098C106.19 3.08499 109.985 2.25348 113.752 2.07763C117.519 1.90178 121.695 2.58565 124.124 5.50136C124.699 6.19175 125.176 7.00372 125.939 7.47266C126.641 7.90252 127.491 7.98502 128.31 8.05666C134.996 8.64067 142.255 9.56337 146.989 14.37C149.652 17.0752 151.218 20.9179 150.958 24.7259C150.696 28.5339 148.527 32.2116 145.213 34.0396C142.124 35.7417 138.228 35.8698 135.55 38.1755C133.138 40.2445 129.994 40.1077 125.573 44.3933Z" fill="#5B45FF"/>
</g>
<g id="Layer_4">
<path id="Vector_29" d="M151.353 27.963C145.341 28.293 142.077 32.9303 136.869 35.6506C131.314 38.5511 125.073 41.1021 121.72 46.0325C117.176 52.7172 119.532 61.4686 123.46 68.4615C124.515 70.3395 125.702 72.2782 125.681 74.382C125.644 77.8621 122.332 80.7257 121.995 84.1929C121.817 86.0187 122.575 87.9509 124.165 89.0972C125.754 90.2435 128.174 90.4541 129.854 89.4164C131.209 88.5784 132.04 87.0456 133.608 86.6049C135.93 85.9536 138.024 88.0877 139.025 90.0829C140.76 93.5435 142.066 97.9616 146.121 99.0059C148.406 99.5942 151.198 98.9234 152.968 100.352C153.589 100.851 153.971 101.542 154.485 102.132C155.477 103.274 156.929 104.014 158.398 104.611C161.886 106.027 166.037 106.763 169.489 105.276C172.94 103.789 174.903 99.4053 172.53 96.7024C172.055 96.1618 171.424 95.6777 171.278 95.0025C171.003 93.7411 172.498 92.8119 173.729 92.1627C176.259 90.8275 178.834 88.4003 177.88 85.9036C177.637 85.2697 177.184 84.7183 176.907 84.0973C176.368 82.8837 176.542 81.5181 176.727 80.2199C177.489 74.8357 178.254 69.4537 179.016 64.0695C179.394 61.4035 179.167 57.8517 176.289 57.1352C175.436 56.9225 174.51 57.0397 173.671 56.7857C170.009 55.6741 172.098 49.9078 169.109 47.7042C168.335 47.1332 167.296 46.8858 166.609 46.2323C165.84 45.5006 165.674 44.4216 165.606 43.4186C165.337 39.4586 165.799 34.9385 162.71 32.1075C160.195 29.8019 156.422 27.6851 151.353 27.963Z" fill="#178AD6"/>
</g>
<g id="Layer_5">
<path id="Vector_30" d="M121.847 54.9294C118.86 53.2924 115.118 54.3259 112.126 55.9541C109.134 57.5824 106.375 59.7947 103.073 60.611C98.14 61.8311 92.4936 59.8077 88.0971 62.3782C85.3372 63.9913 83.7865 67.0351 81.7912 69.547C80.0945 71.6833 78.0004 73.4961 75.6508 74.8617C72.732 76.5573 69.2998 77.6775 67.268 80.3913C66.4433 81.4942 65.9042 82.799 65.0344 83.8628C63.7865 85.3869 61.9588 86.3053 60.5713 87.7012C57.6289 90.6669 57.137 95.2108 55.8892 99.2164C54.07 105.052 50.32 111.007 52.2487 116.806C53.6705 121.079 58.3892 123.942 62.7856 123.204C64.0485 122.991 65.2749 122.523 66.555 122.514C68.4536 122.501 70.1911 123.495 71.9265 124.272C75.9536 126.077 80.4424 126.808 84.826 126.378C86.0309 126.261 87.2594 126.046 88.3119 125.44C92.1521 123.235 91.7204 117.583 93.561 113.524C95.7259 108.743 101.089 106.361 106.171 105.239C111.252 104.116 116.632 103.784 121.211 101.292C123.643 99.9676 125.752 98.0788 128.245 96.8782C130.741 95.6776 133.615 95.1631 135.739 93.3763C137.863 91.5896 138.645 87.7099 136.31 86.2141C135.642 85.7864 134.843 85.6344 134.111 85.3305C131.029 84.043 129.719 80.2763 129.699 76.9047C129.68 73.533 130.584 70.1896 130.35 66.8267C130.116 63.4638 128.896 58.7939 121.847 54.9294Z" fill="#EF584E"/>
</g>
<g id="Layer_12">
<path id="Vector_31" d="M134.104 122.195C132.893 122.195 132.043 121.778 131.568 120.948C130.793 119.587 131.557 117.903 132.532 116.78C134.805 114.164 137.874 112.733 140.844 111.35C143.778 109.983 146.546 108.693 148.655 106.353C149.031 105.936 149.45 105.332 149.308 104.829C149.24 104.585 149.036 104.386 148.877 104.264C148.114 103.671 146.989 103.569 145.436 103.951C142.427 104.692 139.611 106.346 136.886 107.946C135.554 108.728 134.18 109.538 132.784 110.239C131.972 110.647 130.788 110.953 129.893 110.586C129.407 110.386 129.057 110.013 128.879 109.505C128.595 108.686 128.862 107.751 129.648 106.793C130.782 105.419 132.221 104.436 133.615 103.482C135.193 102.403 136.684 101.383 137.736 99.8547C138.052 99.3944 138.177 99.0123 138.095 98.7475C137.953 98.2829 137.193 98.2199 136.871 98.2134C134.197 98.17 131.488 99.2273 129.444 101.138C129.214 101.353 128.857 101.338 128.645 101.105C128.432 100.873 128.447 100.513 128.677 100.298C130.934 98.1895 133.93 97.0085 136.894 97.0693C138.093 97.0931 138.924 97.5816 139.177 98.411C139.366 99.0319 139.195 99.7374 138.666 100.506C137.496 102.21 135.846 103.337 134.25 104.429C132.861 105.38 131.549 106.277 130.52 107.525C130.223 107.885 129.755 108.571 129.948 109.125C130.017 109.323 130.135 109.451 130.32 109.527C130.762 109.709 131.553 109.583 132.281 109.216C133.645 108.53 135.004 107.731 136.319 106.958C139.113 105.317 142.002 103.619 145.17 102.842C147.077 102.373 148.516 102.542 149.568 103.359C149.996 103.691 150.275 104.082 150.397 104.518C150.625 105.328 150.32 106.205 149.493 107.123C147.229 109.635 144.225 111.036 141.319 112.39C138.325 113.786 135.496 115.104 133.383 117.538C132.698 118.326 132.068 119.544 132.547 120.382C132.895 120.992 133.737 121.189 135.045 120.97C141.974 119.802 148.555 115.758 153.101 109.872C153.295 109.622 153.649 109.579 153.896 109.772C154.143 109.967 154.186 110.326 153.995 110.575C149.276 116.682 142.438 120.883 135.232 122.097C134.826 122.16 134.45 122.195 134.104 122.195Z" fill="#48CD92"/>
</g>
<g id="Layer_11">
<path id="Vector_32" d="M124.22 37.5004C124.199 37.5004 124.177 37.5004 124.156 37.4983C123.802 37.4635 123.544 37.1444 123.578 36.7862C123.759 34.9343 122.208 33.332 120.689 32.6308C119.212 31.9469 117.573 31.7732 115.84 31.5887C115.515 31.554 115.191 31.5192 114.869 31.4823C112.829 31.2435 110.513 30.7919 108.808 29.2613C106.332 27.0382 106.149 23.5016 106.261 21.5932C106.345 20.1734 106.602 18.7709 106.851 17.414C107.064 16.2525 107.285 15.0541 107.386 13.8752C107.532 12.1948 107.498 9.07938 105.623 7.08637C105.378 6.82584 105.389 6.41335 105.646 6.16585C105.904 5.91835 106.312 5.92921 106.557 6.18973C108.668 8.43458 108.87 11.6716 108.668 13.9903C108.561 15.2321 108.335 16.4631 108.116 17.6528C107.876 18.9706 107.625 20.3319 107.545 21.6714C107.315 25.5706 108.771 27.4898 109.661 28.2887C111.1 29.5805 113.174 29.9756 115.015 30.1905C115.333 30.2274 115.651 30.2622 115.971 30.2947C117.732 30.4815 119.553 30.6747 121.224 31.4476C123.144 32.3377 125.101 34.4262 124.858 36.9164C124.828 37.2508 124.547 37.5004 124.22 37.5004Z" fill="#8172F1"/>
<path id="Vector_33" d="M133.752 34.5609C133.454 34.5609 133.185 34.3503 133.123 34.042C132.322 30.171 128.782 25.2862 121.259 23.189L121.087 23.1412C120.324 22.9306 119.459 22.6918 118.771 22.0991C117.506 21.0071 117.401 19.3028 117.307 17.8004C117.27 17.2208 117.236 16.6737 117.146 16.1591C116.634 13.2478 114.034 11.1028 111.413 9.15537C111.128 8.9426 111.065 8.53445 111.276 8.2457C111.486 7.95695 111.89 7.89399 112.176 8.10675C115.006 10.2105 117.82 12.5465 118.415 15.9333C118.518 16.5195 118.555 17.1296 118.593 17.7201C118.677 19.0857 118.756 20.3753 119.607 21.1091C120.073 21.5129 120.73 21.6931 121.426 21.8842L121.6 21.9319C124.663 22.7851 127.453 24.2462 129.671 26.1568C132.165 28.3039 133.793 30.9374 134.381 33.7728C134.454 34.1245 134.231 34.4697 133.883 34.5435C133.84 34.5565 133.795 34.5609 133.752 34.5609Z" fill="#8172F1"/>
<path id="Vector_34" d="M128.718 26.5931C128.567 26.5931 128.417 26.541 128.295 26.4325C126.682 25.0104 126.843 22.5246 127.47 20.829C127.723 20.1408 128.048 19.4873 128.363 18.8534C128.825 17.9198 129.261 17.0406 129.474 16.0918C129.798 14.6416 129.547 13.0762 128.789 11.8018C128.606 11.4936 128.703 11.0941 129.008 10.9074C129.313 10.7228 129.708 10.8205 129.893 11.1288C130.82 12.6876 131.125 14.6003 130.73 16.3762C130.485 17.4791 129.991 18.4734 129.515 19.433C129.203 20.0626 128.907 20.6597 128.677 21.2806C128.194 22.5876 128.026 24.4612 129.143 25.4468C129.412 25.6835 129.439 26.0938 129.205 26.3652C129.076 26.5171 128.898 26.5931 128.718 26.5931Z" fill="#8172F1"/>
<path id="Vector_35" d="M136.69 21.6388C136.572 21.6388 136.45 21.6062 136.342 21.5346C136.044 21.3392 135.956 20.9376 136.149 20.6336C137.397 18.671 137.964 16.3111 137.747 13.9881C137.713 13.6298 137.973 13.3129 138.327 13.2781C138.679 13.2456 138.995 13.5061 139.029 13.8643C139.274 16.4761 138.636 19.1291 137.234 21.337C137.109 21.5324 136.903 21.6388 136.69 21.6388Z" fill="#8172F1"/>
<path id="Vector_36" d="M137.418 31.9273C137.186 31.9273 136.963 31.8014 136.849 31.5799C136.682 31.2629 136.802 30.8678 137.118 30.6985C141.132 28.547 143.497 23.699 142.741 19.1724C142.68 18.8186 142.919 18.482 143.269 18.4213C143.619 18.3605 143.952 18.6014 144.012 18.9553C144.856 24.0204 142.21 29.4436 137.721 31.8491C137.622 31.9034 137.519 31.9273 137.418 31.9273Z" fill="#8172F1"/>
<path id="Vector_37" d="M100.563 18.8208C100.434 18.8208 100.303 18.7817 100.189 18.6992C99.8991 18.4908 99.8325 18.0826 100.039 17.7917C100.507 17.1274 100.99 16.4413 101.263 15.7032C101.585 14.8282 101.66 13.7796 101.495 12.401C101.28 10.5947 100.642 8.10671 98.8144 6.50883C98.546 6.27436 98.5159 5.86186 98.75 5.59048C98.9841 5.3191 99.39 5.2887 99.6585 5.52535C101.798 7.39678 102.534 10.2148 102.775 12.2469C102.964 13.8404 102.867 15.0844 102.47 16.1591C102.139 17.0579 101.604 17.8156 101.087 18.5494C100.962 18.7253 100.765 18.8208 100.563 18.8208Z" fill="#8172F1"/>
<path id="Vector_38" d="M92.2809 20.4056C92.1413 20.4056 92.0017 20.36 91.8836 20.2667C91.6044 20.0452 91.555 19.6349 91.7741 19.3527C94.491 15.8508 94.4566 10.3884 91.6968 6.9213C91.4734 6.64123 91.5185 6.23091 91.7956 6.00512C92.0726 5.77933 92.4785 5.82492 92.7019 6.10499C95.8226 10.0259 95.8613 16.1981 92.79 20.1559C92.6611 20.3209 92.4721 20.4056 92.2809 20.4056Z" fill="#8172F1"/>
<path id="Vector_39" d="M94.2569 37.8673C91.8342 37.8673 90.1031 37.0228 88.6298 34.9516C87.6611 33.5882 87.4334 31.9338 87.2681 30.2144C87.2337 29.8562 87.4936 29.537 87.848 29.5045C88.2045 29.4719 88.5181 29.7324 88.5503 30.0906C88.6963 31.6256 88.8939 33.0932 89.6757 34.1939C91.976 37.4309 94.9485 37.1465 103.312 34.5738C103.653 34.4696 104.012 34.6628 104.115 35.008C104.218 35.3532 104.027 35.7158 103.686 35.82C99.6242 37.0684 96.613 37.8673 94.2569 37.8673Z" fill="#8172F1"/>
<path id="Vector_40" d="M117.148 48.6769C117.017 48.6769 116.886 48.6378 116.772 48.5531C116.196 48.1341 115.636 47.6912 115.09 47.2288L112.262 45.0035C111.123 44.1069 109.944 43.1798 108.578 42.8086C106.811 42.331 104.968 42.8216 103.015 43.3405C102.511 43.4751 101.989 43.614 101.476 43.7313C97.4528 44.6583 93.095 44.4043 89.2054 43.0105C87.9511 42.5611 86.3832 41.8707 85.3694 40.4986C84.4223 39.2177 84.0765 37.0988 85.305 35.7006C85.5413 35.4314 85.9493 35.4075 86.2157 35.6463C86.482 35.8852 86.5056 36.2976 86.2694 36.5647C85.5219 37.4157 85.7496 38.8378 86.4025 39.7192C87.2101 40.8112 88.5546 41.3952 89.6371 41.7817C93.299 43.093 97.4012 43.334 101.19 42.459C101.684 42.3462 102.195 42.2094 102.689 42.0769C104.717 41.5364 106.813 40.9784 108.913 41.5472C109.669 41.7513 110.365 42.0921 111.012 42.4894C110.172 40.1838 111.173 37.6393 112.397 35.2208C112.56 34.9017 112.947 34.7736 113.265 34.9386C113.582 35.1014 113.707 35.4944 113.544 35.8157C112.479 37.9172 111.42 40.3271 112.335 42.3179C112.603 42.9041 113.031 43.4186 113.587 44.0135C114.315 44.7886 115.09 45.5245 115.902 46.2149L117.547 47.511C117.824 47.7282 117.878 48.132 117.668 48.4164C117.537 48.5879 117.343 48.6769 117.148 48.6769Z" fill="#8172F1"/>
<path id="Vector_41" d="M111.407 55.3615C111.192 55.3615 110.982 55.253 110.859 55.0554C110.135 53.8852 109.317 52.5609 108.162 51.762C107.305 51.1693 106.248 50.8545 105.324 50.6048C104.079 50.2683 102.614 49.9231 101.113 49.9405C99.2977 49.9578 97.4635 50.5245 95.9493 51.5362C95.653 51.7337 95.2535 51.6512 95.0559 51.3516C94.8604 51.052 94.942 50.6482 95.2384 50.4485C96.9588 49.3 99.04 48.6574 101.1 48.6378C102.741 48.6183 104.328 48.9874 105.657 49.3456C106.684 49.6235 107.863 49.9774 108.89 50.6873C110.266 51.6382 111.162 53.0863 111.952 54.365C112.141 54.669 112.049 55.0728 111.748 55.2617C111.641 55.3311 111.523 55.3615 111.407 55.3615Z" fill="#8172F1"/>
<path id="Vector_42" d="M93.9884 58.8417C93.9197 58.8417 93.8488 58.8308 93.7801 58.8069C92.442 58.3467 90.9235 57.8234 89.7079 56.8096C87.5924 55.0467 86.6796 51.8292 87.4871 48.983C88.2217 46.3929 90.2642 44.1437 92.9489 42.967C93.2754 42.8238 93.6555 42.9757 93.7973 43.3057C93.939 43.6357 93.7887 44.02 93.4622 44.1633C91.1276 45.1858 89.3578 47.1224 88.7264 49.3434C88.0563 51.7055 88.7973 54.3628 90.5284 55.8044C91.5636 56.6663 92.9016 57.1265 94.1967 57.5738C94.5339 57.6888 94.7144 58.0601 94.5984 58.4009C94.506 58.6723 94.2569 58.8417 93.9884 58.8417Z" fill="#8172F1"/>
<path id="Vector_43" d="M96.2672 30.9352C96.061 30.9352 95.8613 30.8353 95.7346 30.653C95.5327 30.3555 95.6078 29.9517 95.9021 29.7476C98.8467 27.7047 102.266 26.3174 105.79 25.7356C106.143 25.6791 106.473 25.9179 106.529 26.274C106.587 26.63 106.349 26.9644 105.997 27.0208C102.657 27.5723 99.418 28.8857 96.628 30.8201C96.5185 30.8983 96.3918 30.9352 96.2672 30.9352Z" fill="#8172F1"/>
<path id="Vector_44" d="M82.5902 47.7195C82.5537 47.7195 82.515 47.7152 82.4764 47.7086C82.1263 47.6457 81.8922 47.307 81.9545 46.9531C82.2315 45.3791 81.003 43.8985 80.2449 43.156C79.8754 42.7934 79.4695 42.4417 79.0765 42.1009C78.2131 41.3518 77.3196 40.5768 76.6516 39.5759C76.4519 39.2785 76.5314 38.8725 76.8256 38.6728C77.1199 38.4709 77.5215 38.5512 77.7191 38.8486C78.2904 39.704 79.0786 40.3879 79.9141 41.113C80.3222 41.4669 80.7453 41.8338 81.1405 42.2224C82.7642 43.816 83.503 45.5789 83.2217 47.1832C83.168 47.4959 82.8973 47.7195 82.5902 47.7195Z" fill="#8172F1"/>
</g>
<g id="Layer_10">
<path id="Vector_45" d="M145.264 41.5623C145.045 41.5623 144.832 41.4494 144.712 41.2475C144.527 40.9392 144.626 40.5398 144.931 40.3531C148.713 38.0474 152.094 35.1643 154.981 31.7861C155.213 31.5126 155.621 31.4844 155.889 31.7188C156.158 31.9533 156.188 32.3658 155.956 32.6372C152.981 36.1195 149.495 39.0917 145.597 41.469C145.492 41.5319 145.378 41.5623 145.264 41.5623Z" fill="#6DB2DE"/>
<path id="Vector_46" d="M143.432 48.87C140.81 48.87 137.865 47.5826 136.862 44.8775C136.082 42.7781 136.626 40.2011 138.391 37.6262C140.288 34.8582 143.159 32.7696 145.075 32.7675C145.432 32.7675 145.719 33.0584 145.719 33.4188C145.719 33.7792 145.432 34.0701 145.075 34.0701C143.784 34.0722 141.265 35.7157 139.448 38.3687C138.57 39.6518 137.221 42.1442 138.067 44.4216C138.967 46.8466 141.931 47.8236 144.265 47.5131C146.879 47.1658 149.227 45.6026 151.407 44.0308L151.826 43.729C153.984 42.168 156.216 40.555 158.853 39.8689C159.197 39.7799 159.549 39.9883 159.637 40.3379C159.725 40.6852 159.519 41.0413 159.173 41.1303C156.768 41.7577 154.635 43.2992 152.573 44.7907L152.152 45.0946C149.839 46.762 147.337 48.4206 144.431 48.8071C144.109 48.8483 143.774 48.87 143.432 48.87Z" fill="#6DB2DE"/>
<path id="Vector_47" d="M150.567 54.2087C150.361 54.2087 150.161 54.111 150.037 53.9264C149.835 53.629 149.91 53.2252 150.202 53.0211C154.01 50.3724 158.058 48.0147 162.234 46.0086C162.556 45.8545 162.94 45.9912 163.093 46.3169C163.245 46.6426 163.108 47.0312 162.788 47.1853C158.675 49.161 154.686 51.4862 150.934 54.0958C150.82 54.1717 150.694 54.2087 150.567 54.2087Z" fill="#6DB2DE"/>
<path id="Vector_48" d="M133.462 72.9165C133.295 72.9165 133.127 72.8513 133.003 72.7211C132.753 72.4649 132.758 72.0524 133.011 71.8006C134.897 69.9335 136.729 67.9665 138.46 65.9539C139.439 64.8142 140.367 63.683 140.947 62.3609C141.8 60.42 141.776 58.2142 140.881 56.4622C139.951 54.6428 138.048 53.414 136.14 53.401C135.784 53.3988 135.498 53.1057 135.5 52.7454C135.503 52.385 135.799 52.1006 136.149 52.0984C138.52 52.1136 140.883 53.629 142.025 55.8651C143.099 57.9645 143.136 60.5915 142.126 62.8906C141.473 64.3756 140.438 65.6391 139.433 66.8093C137.678 68.8479 135.823 70.841 133.913 72.7319C133.787 72.8535 133.625 72.9165 133.462 72.9165Z" fill="#6DB2DE"/>
<path id="Vector_49" d="M164.409 89.0212C164.311 89.0212 164.212 88.9974 164.117 88.9496C163.226 88.4915 162.305 88.0464 161.413 87.6144C159.648 86.759 157.82 85.8732 156.095 84.8398C152.996 82.9814 150.775 80.9428 149.306 78.6089C147.481 75.7106 146.922 72.2739 147.814 69.4168C148.845 66.1103 151.879 63.7352 155.024 63.7655C157.683 63.7916 159.955 65.3461 162.012 67.0243C164.336 68.9174 166.555 70.9929 168.604 73.19C168.849 73.4527 168.836 73.8631 168.578 74.1106C168.318 74.3581 167.912 74.345 167.668 74.0845C165.657 71.9308 163.484 69.8966 161.205 68.0403C159.328 66.5119 157.279 65.0921 155.013 65.0703C154.998 65.0703 154.983 65.0703 154.966 65.0703C152.429 65.0703 149.888 67.1003 149.044 69.8119C148.267 72.3064 148.771 75.3328 150.395 77.912C151.753 80.07 153.834 81.9697 156.755 83.7217C158.43 84.7269 160.23 85.5975 161.972 86.4421C162.869 86.8763 163.797 87.3257 164.701 87.7903C165.019 87.9531 165.146 88.3461 164.985 88.6652C164.871 88.891 164.643 89.0212 164.409 89.0212Z" fill="#6DB2DE"/>
<path id="Vector_50" d="M150.466 59.1C150.146 59.1 149.869 58.8612 149.828 58.5312C149.783 58.1752 150.032 57.8474 150.384 57.8018C155.311 57.157 160.034 54.9273 163.683 51.5209C163.945 51.2778 164.354 51.293 164.594 51.5579C164.835 51.8227 164.82 52.2352 164.558 52.4784C160.713 56.0671 155.739 58.4162 150.55 59.0935C150.522 59.0979 150.494 59.1 150.466 59.1Z" fill="#6DB2DE"/>
<path id="Vector_51" d="M160.513 63.8176C160.176 63.8176 159.893 63.5527 159.871 63.2075C159.757 61.3361 160.81 59.3409 162.689 57.8733C164.536 56.4296 166.72 55.7001 168.842 55.8217C169.197 55.8412 169.469 56.1495 169.45 56.5077C169.431 56.8659 169.126 57.1438 168.771 57.1221C166.987 57.0201 165.058 57.6714 163.479 58.9045C161.939 60.1095 161.072 61.6878 161.16 63.1294C161.181 63.4876 160.911 63.798 160.556 63.8198C160.541 63.8176 160.526 63.8176 160.513 63.8176Z" fill="#6DB2DE"/>
<path id="Vector_52" d="M172.077 70.7693C171.963 70.7693 171.849 70.7389 171.744 70.676C170.391 69.8488 168.991 68.9934 167.833 67.7972C166.491 66.4055 165.739 64.7577 165.72 63.1577C165.715 62.7973 166.001 62.502 166.355 62.4977C166.718 62.4999 167.004 62.7821 167.008 63.1403C167.023 64.406 167.644 65.7369 168.754 66.8853C169.796 67.9622 171.123 68.7741 172.41 69.5601C172.715 69.7468 172.811 70.1462 172.629 70.4545C172.506 70.6586 172.294 70.7693 172.077 70.7693Z" fill="#6DB2DE"/>
<path id="Vector_53" d="M134.622 84.1647C134.39 84.1647 134.169 84.0387 134.053 83.8195C133.885 83.5025 134.006 83.1074 134.319 82.938L143.323 78.1053C143.636 77.9359 144.027 78.0575 144.195 78.3745C144.362 78.6915 144.242 79.0866 143.928 79.2559L134.925 84.0887C134.828 84.1386 134.725 84.1647 134.622 84.1647Z" fill="#6DB2DE"/>
<path id="Vector_54" d="M132.534 79.8464C132.328 79.8464 132.126 79.7466 132.002 79.562C131.802 79.2646 131.877 78.8586 132.171 78.6567C134.968 76.7267 137.936 74.9985 140.994 73.5222C141.314 73.3681 141.701 73.5048 141.854 73.8283C142.006 74.1518 141.871 74.5426 141.551 74.6967C138.552 76.1448 135.642 77.8382 132.899 79.7314C132.786 79.8095 132.659 79.8464 132.534 79.8464Z" fill="#6DB2DE"/>
<path id="Vector_55" d="M127.483 56.981C127.216 56.981 126.969 56.8138 126.875 56.5468C125.348 52.1874 126.804 46.89 130.339 43.9505C130.614 43.7225 131.02 43.7616 131.246 44.0395C131.471 44.3174 131.433 44.7277 131.158 44.9557C128.028 47.5587 126.738 52.2503 128.091 56.1104C128.209 56.4491 128.033 56.8225 127.698 56.9419C127.627 56.968 127.554 56.981 127.483 56.981Z" fill="#6DB2DE"/>
<path id="Vector_56" d="M171.553 84.2841C171.469 84.2841 171.385 84.2667 171.304 84.232C166.007 81.9806 161.278 78.1183 157.99 73.3551C157.786 73.0598 157.857 72.6538 158.149 72.4476C158.441 72.2413 158.842 72.313 159.046 72.6082C162.197 77.1718 166.727 80.8734 171.802 83.0292C172.131 83.1682 172.285 83.5503 172.146 83.8824C172.043 84.1343 171.804 84.2841 171.553 84.2841Z" fill="#6DB2DE"/>
</g>
<g id="Layer_9">
<path id="Vector_57" d="M76.7118 119.639C76.3681 119.639 76.0825 119.364 76.0675 119.012C76.0095 117.483 76.2114 115.966 76.4068 114.5C76.5142 113.702 76.6237 112.874 76.6882 112.067C76.9029 109.364 76.4884 107.349 75.421 105.903C74.1345 104.16 71.7182 103.261 69.4072 103.669C67.2766 104.045 65.2105 105.499 63.881 107.56C62.6976 109.394 62.0168 111.752 61.9137 114.375C61.8986 114.735 61.6087 115.009 61.2436 115C60.887 114.985 60.6121 114.683 60.625 114.322C60.7367 111.465 61.4906 108.88 62.8007 106.848C64.3449 104.455 66.671 102.829 69.1839 102.386C71.9631 101.895 74.884 102.998 76.4519 105.126C77.7126 106.837 78.2088 109.14 77.9704 112.173C77.9038 113.015 77.7921 113.86 77.6826 114.679C77.485 116.155 77.3003 117.551 77.354 118.966C77.3669 119.327 77.0898 119.628 76.7354 119.642C76.7268 119.639 76.7204 119.639 76.7118 119.639Z" fill="#F37074"/>
<path id="Vector_58" d="M89.6284 107.119C89.6048 107.119 89.5812 107.117 89.5554 107.115C87.0318 106.828 84.6091 105.716 82.7341 103.984C82.2337 103.522 81.5335 102.794 81.235 101.839C80.7431 100.263 81.4583 98.7453 82.0876 97.4057C82.3046 96.9455 82.5086 96.5091 82.6718 96.0749C83.5825 93.6281 82.9983 90.7102 81.2156 88.8128C79.433 86.9174 76.5786 86.1771 74.1151 86.9739C73.7758 87.0846 73.4128 86.8936 73.3054 86.5527C73.198 86.2097 73.3849 85.8428 73.7221 85.7342C76.6473 84.7898 80.0322 85.6669 82.1478 87.9161C84.2633 90.1653 84.9571 93.6281 83.8767 96.533C83.6963 97.0193 83.4687 97.4991 83.2496 97.9637C82.6697 99.1947 82.122 100.358 82.4614 101.446C82.6203 101.952 82.9704 102.438 83.6018 103.022C85.2771 104.57 87.4399 105.564 89.695 105.819C90.0494 105.858 90.3028 106.181 90.2642 106.539C90.2298 106.874 89.9506 107.119 89.6284 107.119Z" fill="#F37074"/>
<path id="Vector_59" d="M84.1731 122.759C84.1001 122.759 84.0249 122.746 83.9519 122.72C83.6168 122.596 83.4472 122.223 83.5674 121.884C85.0258 117.855 83.6748 112.994 80.3501 110.326C80.0709 110.102 80.0258 109.692 80.247 109.412C80.4682 109.129 80.8741 109.084 81.1534 109.307C84.8991 112.314 86.424 117.794 84.7788 122.334C84.6821 122.596 84.4351 122.759 84.1731 122.759Z" fill="#F37074"/>
<path id="Vector_60" d="M86.3445 85.1829C85.2728 85.1829 84.1753 84.8638 83.2517 84.2298C81.701 83.1682 80.6529 81.3532 80.3759 79.2516C80.3286 78.8956 80.5778 78.5677 80.93 78.52C81.2801 78.4722 81.6065 78.7219 81.6538 79.0801C81.8793 80.7887 82.747 82.3106 83.9755 83.153C85.3007 84.0605 87.0748 84.1365 88.2904 83.3353C88.9777 82.8816 89.5662 82.1326 90.1396 80.9798C91.4777 78.2942 92.0211 75.2504 92.5473 72.3065C92.6096 71.9526 92.9446 71.7159 93.2947 71.7811C93.6448 71.844 93.8768 72.1827 93.8145 72.5366C93.2732 75.5717 92.7127 78.711 91.2908 81.5638C90.8613 82.4257 90.1568 83.6588 88.9949 84.4252C88.2238 84.9311 87.296 85.1829 86.3445 85.1829Z" fill="#F37074"/>
<path id="Vector_61" d="M98.3054 79.0237C98.271 79.0237 98.2367 79.0215 98.2002 79.015C97.8501 78.9564 97.6117 78.622 97.6675 78.266C98.0627 75.8214 98.6705 73.3942 99.4738 71.0538L99.5833 70.7368C99.9248 69.7512 100.247 68.822 100.256 67.8732C100.268 66.4295 99.4244 64.9922 98.2023 64.3757C96.9523 63.7461 95.305 64.0044 94.3685 64.9749C94.1194 65.2332 93.7113 65.2376 93.4579 64.9857C93.2023 64.7339 93.198 64.3214 93.4472 64.0652C94.7788 62.6844 97.021 62.3262 98.7779 63.2098C100.451 64.0522 101.564 65.9301 101.546 67.8841C101.536 69.0499 101.162 70.1268 100.801 71.1667L100.694 71.4793C99.9141 73.7502 99.3256 76.1036 98.9411 78.4744C98.8875 78.7957 98.6147 79.0237 98.3054 79.0237Z" fill="#F37074"/>
<path id="Vector_62" d="M114.856 82.6492C112.354 82.6492 109.648 82.3149 107.399 80.8863C107.03 80.6519 106.615 80.3479 106.347 79.8811C106.029 79.3254 106.014 78.6936 106.037 78.2029C106.153 75.6281 107.386 73.0988 109.336 71.4402C110.12 70.7715 110.997 70.2504 111.843 69.7467C112.311 69.4689 112.796 69.1801 113.247 68.874C114.783 67.8384 116.143 66.475 117.178 64.927C117.446 64.5276 117.635 64.1889 117.695 63.8437C117.872 62.832 116.927 61.8529 115.977 61.0257L116.819 60.04C118.041 61.1038 119.25 62.4152 118.965 64.0695C118.86 64.6774 118.557 65.1919 118.245 65.6587C117.118 67.3434 115.636 68.8306 113.963 69.9595C113.482 70.283 112.981 70.5826 112.496 70.8692C111.658 71.3685 110.866 71.8375 110.165 72.4345C108.486 73.8652 107.423 76.0428 107.324 78.2616C107.309 78.5742 107.313 78.9671 107.463 79.2298C107.59 79.4513 107.848 79.6337 108.084 79.7835C110.855 81.542 114.313 81.466 118.222 81.1968L118.308 82.4973C117.257 82.5689 116.08 82.6492 114.856 82.6492Z" fill="#F37074"/>
<path id="Vector_63" d="M101.901 100.391C101.735 100.391 101.568 100.326 101.443 100.198C99.1259 97.8292 98.1336 94.2101 98.9133 90.9752C98.997 90.6257 99.345 90.4129 99.6907 90.4954C100.037 90.5801 100.249 90.934 100.165 91.2813C99.4888 94.0863 100.35 97.2278 102.36 99.2816C102.612 99.5378 102.607 99.9503 102.356 100.202C102.227 100.328 102.064 100.391 101.901 100.391Z" fill="#F37074"/>
<path id="Vector_64" d="M107.289 96.5287C107.15 96.5287 107.01 96.4831 106.89 96.3897L104.59 94.5574C104.085 94.1557 103.514 93.6998 103.091 93.0898C102.532 92.2843 102.324 91.366 102.124 90.4758C101.972 89.7985 101.826 89.158 101.538 88.6066C100.833 87.2649 99.3299 86.5745 98.1894 86.2315C97.4592 86.01 96.7139 85.8667 95.9257 85.7148C95.1611 85.5671 94.3707 85.4152 93.5975 85.185C93.256 85.0852 93.0606 84.7226 93.1594 84.3774C93.2603 84.0322 93.6168 83.8325 93.9583 83.9345C94.6714 84.1451 95.3973 84.2862 96.1662 84.4339C96.9502 84.5858 97.762 84.7421 98.5567 84.981C99.9313 85.3956 101.761 86.2553 102.674 87.9943C103.043 88.6978 103.213 89.4533 103.378 90.1828C103.561 90.9839 103.731 91.7416 104.145 92.3386C104.459 92.7902 104.931 93.1679 105.389 93.5305L107.687 95.3628C107.966 95.5865 108.013 95.9946 107.794 96.2768C107.67 96.444 107.481 96.5287 107.289 96.5287Z" fill="#F37074"/>
<path id="Vector_65" d="M116.237 89.7376C113.615 89.7376 110.992 88.9148 108.853 87.3647C108.563 87.1541 108.497 86.7481 108.705 86.455C108.911 86.1619 109.315 86.0968 109.605 86.3052C112.253 88.2222 115.722 88.8974 118.883 88.1137C119.231 88.0269 119.577 88.2418 119.663 88.5913C119.749 88.9408 119.536 89.2926 119.19 89.3794C118.224 89.6182 117.229 89.7376 116.237 89.7376Z" fill="#F37074"/>
<path id="Vector_66" d="M73.5846 97.979C72.0125 97.979 70.9987 96.5461 70.2878 95.2847L67.4034 90.1719C67.2273 89.8593 67.3346 89.462 67.6439 89.284C67.9532 89.1059 68.3462 89.2145 68.5224 89.5271L71.4068 94.6399C72.2208 96.0837 72.9188 96.7046 73.6512 96.6742C74.1495 96.6503 74.6048 96.3095 75.131 95.9165C75.6014 95.5648 76.0889 95.2001 76.6903 95.0025C77.0297 94.8918 77.3926 95.0807 77.5022 95.4237C77.6117 95.7667 77.4249 96.1336 77.0855 96.2443C76.6839 96.3746 76.3016 96.6612 75.8978 96.9651C75.2921 97.4189 74.6027 97.9334 73.7157 97.9768C73.6706 97.9768 73.6276 97.979 73.5846 97.979Z" fill="#F37074"/>
</g>
</g>
<defs>
<linearGradient id="paint0_linear_331_82" x1="47.4402" y1="4.92725" x2="47.4402" y2="114.032" gradientUnits="userSpaceOnUse">
<stop stop-color="#FFCF3C"/>
<stop offset="1" stop-color="#FFCF3C"/>
</linearGradient>
<clipPath id="clip0_331_82">
<rect width="180" height="151" fill="white"/>
</clipPath>
</defs>
</svg>
