<svg width="143" height="194" viewBox="0 0 143 194" fill="none" xmlns="http://www.w3.org/2000/svg">
<g id="Brain2 1">
<path id="Subtract" fill-rule="evenodd" clip-rule="evenodd" d="M97.645 8.85074C107.677 12.862 118.15 17.0493 128.293 13.9943C130.89 21.4374 127.486 30.3319 120.737 34.5187C127.262 39.4303 127.903 48.8113 127.84 56.969C127.778 65.1267 128.075 74.4291 134.284 79.7322C135.168 80.4872 136.141 81.1263 137.114 81.7653C138.105 82.4163 139.096 83.0672 139.992 83.8404C141.766 85.3726 143.196 87.6416 142.788 89.949C142.444 91.8861 140.958 93.2892 139.47 94.6936C137.998 96.0832 136.525 97.474 136.155 99.3846C135.88 100.809 136.286 102.213 136.694 103.629C136.934 104.458 137.175 105.292 137.28 106.135C137.506 107.941 136.433 110.16 134.908 110.604C136.321 111.144 137.246 113.173 136.851 114.806C136.491 116.303 135.518 117.525 134.545 118.747C134.159 119.231 133.773 119.716 133.425 120.218C131.981 122.301 131.175 124.725 130.368 127.149C129.544 129.626 128.72 132.103 127.217 134.212C124.113 138.566 118.621 140.603 113.31 141.277C110.582 141.624 107.83 141.676 105.077 141.729C102.47 141.779 99.8621 141.83 97.2744 142.129C95.2437 142.365 93.1219 142.803 91.5847 144.152C89.5581 145.928 89.0281 148.825 88.6782 151.494C88.1563 155.481 87.7963 159.708 89.4771 163.36C91.054 166.784 94.1583 169.152 97.1887 171.464C97.6139 171.788 98.0377 172.111 98.4556 172.436C102.948 175.931 107.036 179.946 110.608 184.373C111.67 185.69 112.672 187.356 113.132 189H12.3072C19.0139 179.575 25.3018 170.508 29.1441 160.298C33.2177 149.473 34.2896 137.044 29.5506 126.492C27.1881 121.231 23.5477 116.731 19.9005 112.223C17.9864 109.857 16.0704 107.489 14.3364 105.007C9.73695 98.4236 6.40968 91.0069 4.05134 83.3336C0.386303 71.409 -0.964832 58.6466 1.25807 46.3727C3.48091 34.0988 9.42543 22.3478 18.7741 14.069C28.5919 5.3743 41.7147 0.888705 54.8234 0.198275C67.9321 -0.492155 81.0387 2.42093 93.2877 7.13065C94.7292 7.68497 96.1824 8.26602 97.645 8.85074Z" fill="#5B45FF"/>
<g id="Layer_5">
<path id="Vector" d="M53.4561 90.4371H53.3347L53.3428 89.024H53.4581C54.2105 89.024 54.9731 89.0018 55.7235 88.9554L55.8084 90.3665C55.0277 90.4129 54.2368 90.4371 53.4561 90.4371ZM50.8671 90.3503C50.0459 90.2958 49.2187 90.2131 48.4076 90.1061L48.5937 88.7051C49.3744 88.808 50.1714 88.8868 50.9622 88.9392L50.8671 90.3503ZM58.2679 90.1384L58.092 88.7354C58.8768 88.6364 59.6676 88.5113 60.4423 88.3639L60.7093 89.7528C59.9043 89.9062 59.0831 90.0354 58.2679 90.1384ZM45.9683 89.7064C45.1633 89.5469 44.3522 89.3591 43.5614 89.1472L43.9275 87.7825C44.69 87.9864 45.4687 88.1661 46.2454 88.3195L45.9683 89.7064ZM63.1202 89.2077L62.7643 87.8411C63.5288 87.6412 64.2974 87.4151 65.0458 87.1688L65.4908 88.5093C64.712 88.7677 63.9151 89.0018 63.1202 89.2077ZM41.1949 88.4325C40.4182 88.1701 39.6375 87.8794 38.877 87.5665L39.417 86.2604C40.1492 86.5612 40.9016 86.8438 41.65 87.0961L41.1949 88.4325ZM67.8107 87.6594L67.2788 86.3492C68.0089 86.0545 68.7411 85.7315 69.4511 85.3883L70.0659 86.6601C69.3277 87.0154 68.5692 87.3525 67.8107 87.6594ZM36.6197 86.5511C35.8815 86.1897 35.1473 85.8001 34.4353 85.3923L35.1412 84.167C35.8269 84.5606 36.5348 84.9361 37.2447 85.2833L36.6197 86.5511ZM72.2565 85.5175L71.5607 84.2881C72.2484 83.9005 72.932 83.4846 73.5914 83.0546L74.3661 84.2376C73.6804 84.6838 72.9704 85.1158 72.2565 85.5175ZM32.3318 84.0943C31.6481 83.6421 30.9705 83.1616 30.3152 82.665L31.1728 81.5406C31.8018 82.019 32.4551 82.4813 33.1145 82.9174L32.3318 84.0943ZM76.3887 82.8225L75.5392 81.692C76.1702 81.2196 76.7952 80.719 77.396 80.2062L78.3163 81.2802C77.6933 81.8111 77.044 82.3299 76.3887 82.8225ZM28.3957 81.1086C27.7768 80.5716 27.166 80.0084 26.5814 79.433L27.5765 78.4277C28.1388 78.9829 28.7274 79.5259 29.3241 80.0407L28.3957 81.1086ZM80.1427 79.6168L79.1556 78.6033C79.722 78.0522 80.2782 77.4769 80.8081 76.8915L81.8579 77.8382C81.3077 78.4479 80.7313 79.0454 80.1427 79.6168ZM24.8784 77.6444C24.3322 77.0328 23.8003 76.3949 23.2946 75.7509L24.4091 74.8808C24.8945 75.5006 25.4083 76.1143 25.9342 76.7037L24.8784 77.6444ZM83.4558 75.9568L82.3474 75.0786C82.8389 74.4609 83.3162 73.819 83.7652 73.1689L84.9282 73.9744C84.461 74.6487 83.9655 75.3148 83.4558 75.9568ZM21.8363 73.7604C21.3731 73.0841 20.9261 72.3857 20.5095 71.6811L21.7271 70.9604C22.1296 71.6387 22.5584 72.311 23.0054 72.963L21.8363 73.7604ZM86.2713 71.9012L85.0577 71.1724C85.4663 70.4961 85.8566 69.7976 86.2187 69.0971L87.4768 69.7452C87.1005 70.4739 86.696 71.1986 86.2713 71.9012ZM19.3202 69.5211C18.948 68.7903 18.5961 68.0393 18.2745 67.2884L19.575 66.7312C19.8865 67.4539 20.2243 68.1766 20.5823 68.8811L19.3202 69.5211ZM88.5407 67.5165L87.2442 66.9512C87.5597 66.2285 87.857 65.4856 88.126 64.7407L89.4569 65.2212C89.1778 65.9923 88.8703 66.7655 88.5407 67.5165ZM17.3744 64.9951C17.0993 64.2219 16.8485 63.4306 16.626 62.6433L17.9893 62.2597C18.2037 63.0167 18.4464 63.7798 18.7093 64.5227L17.3744 64.9951ZM90.2215 62.8734L88.8623 62.4797C89.0807 61.7247 89.2789 60.9495 89.4488 60.1784L90.8323 60.4812C90.6543 61.2847 90.45 62.0881 90.2215 62.8734ZM16.0314 60.2491C15.8594 59.4496 15.7138 58.632 15.5945 57.8205L16.9962 57.6166C17.1115 58.3979 17.253 59.1832 17.4169 59.9543L16.0314 60.2491ZM91.2833 58.0567L89.8837 57.8427C90.003 57.0635 90.0981 56.2701 90.1668 55.4848L91.5766 55.608C91.5058 56.4235 91.4067 57.2472 91.2833 58.0567ZM15.3154 55.3698C15.2486 54.5562 15.2082 53.7265 15.194 52.9069L16.6098 52.8827C16.624 53.672 16.6624 54.4714 16.7272 55.2567L15.3154 55.3698ZM91.7121 53.1451L90.2963 53.1128C90.3024 52.8242 90.3064 52.5335 90.3064 52.2428C90.3064 51.7441 90.2963 51.2354 90.2761 50.7348L91.6899 50.6782C91.7101 51.1971 91.7223 51.7239 91.7223 52.2428C91.7243 52.5456 91.7202 52.8464 91.7121 53.1451ZM16.6058 52.2428H15.19C15.19 51.4211 15.2162 50.5935 15.2688 49.7779L16.6827 49.8687C16.6301 50.654 16.6058 51.4534 16.6058 52.2428ZM90.1062 48.3668C90.0232 47.5815 89.914 46.7902 89.7826 46.013L91.1782 45.7748C91.3157 46.5802 91.429 47.4039 91.516 48.2174L90.1062 48.3668ZM16.9092 47.5028L15.5055 47.3231C15.6107 46.5096 15.7421 45.69 15.8999 44.8885L17.2894 45.159C17.1378 45.9322 17.0103 46.7215 16.9092 47.5028ZM89.3052 43.6874C89.1212 42.9182 88.9108 42.1471 88.6782 41.3961L90.0313 40.9803C90.272 41.7615 90.4905 42.5609 90.6826 43.3604L89.3052 43.6874ZM17.8194 42.8436L16.4501 42.4842C16.6584 41.6929 16.8971 40.8975 17.158 40.1203L18.501 40.5684C18.2502 41.3154 18.0216 42.0805 17.8194 42.8436ZM87.9035 39.1493C87.6224 38.4145 87.3149 37.6796 86.9853 36.961L88.2737 36.3735C88.6155 37.1184 88.9351 37.8835 89.2263 38.6466L87.9035 39.1493ZM19.3303 38.3377L18.0196 37.8028C18.3311 37.0437 18.6709 36.2847 19.0309 35.5479L20.3032 36.1656C19.9573 36.8762 19.6296 37.607 19.3303 38.3377ZM85.9274 34.8353C85.5532 34.1428 85.1507 33.4504 84.732 32.7822L85.9335 32.0333C86.3683 32.7277 86.785 33.4443 87.1734 34.165L85.9274 34.8353ZM21.4156 34.0621L20.1859 33.3636C20.5924 32.653 21.0273 31.9444 21.4783 31.2601L22.6616 32.0373C22.2247 32.6954 21.806 33.3777 21.4156 34.0621ZM83.4092 30.8119C82.9481 30.172 82.4606 29.5381 81.959 28.9284L83.0533 28.0321C83.5731 28.664 84.0808 29.3221 84.5581 29.9883L83.4092 30.8119ZM24.0349 30.0953L22.9063 29.2434C23.3998 28.5893 23.9237 27.9433 24.4597 27.3236L25.5317 28.2461C25.0139 28.8437 24.5102 29.4654 24.0349 30.0953ZM80.3895 27.1399C79.8494 26.5625 79.2831 25.9952 78.7087 25.4562L79.6795 24.4267C80.2762 24.9879 80.8628 25.5753 81.423 26.1749L80.3895 27.1399ZM27.1417 26.4959L26.1304 25.5067C26.7048 24.9213 27.3055 24.3479 27.9163 23.8009L28.8609 24.8526C28.2744 25.3795 27.6939 25.9327 27.1417 26.4959ZM76.9247 23.8857C76.3159 23.383 75.6808 22.8924 75.0416 22.4302L75.8729 21.2855C76.5384 21.766 77.1957 22.2747 77.8288 22.7955L76.9247 23.8857ZM30.6853 23.3245L29.8095 22.2142C30.4548 21.7075 31.1222 21.2169 31.7998 20.7526L32.6028 21.9174C31.9495 22.3635 31.3043 22.8379 30.6853 23.3245ZM73.0675 21.0978C72.398 20.6779 71.7063 20.2721 71.0125 19.8966L71.6881 18.6551C72.4102 19.0468 73.1282 19.4667 73.822 19.9027L73.0675 21.0978ZM34.6032 20.6355L33.877 19.4222C34.5809 19.0044 35.307 18.6026 36.0372 18.2292L36.6824 19.4868C35.9806 19.8442 35.2807 20.2318 34.6032 20.6355ZM68.8827 18.8308C68.1647 18.4997 67.4264 18.1888 66.6882 17.9042L67.1958 16.5859C67.9644 16.8807 68.731 17.2037 69.4753 17.5489L68.8827 18.8308ZM38.8325 18.4734L38.2702 17.1774C39.0226 16.8524 39.7953 16.5476 40.5659 16.273L41.0432 17.6034C40.3009 17.8678 39.5566 18.1605 38.8325 18.4734ZM64.4349 17.1229C63.6805 16.8887 62.9079 16.6748 62.1413 16.4911L62.473 15.1183C63.2699 15.3101 64.0729 15.5322 64.8557 15.7764L64.4349 17.1229ZM43.3086 16.8746L42.9202 15.516C43.7091 15.2899 44.5161 15.088 45.317 14.9164L45.6164 16.2973C44.8458 16.4648 44.0691 16.6586 43.3086 16.8746ZM59.8112 16.0086C59.0345 15.8733 58.2416 15.7623 57.4548 15.6775L57.6065 14.2725C58.4237 14.3613 59.2469 14.4764 60.0539 14.6156L59.8112 16.0086ZM47.9586 15.8693L47.7482 14.4723C48.5593 14.3512 49.3845 14.2543 50.2037 14.1857L50.323 15.5947C49.5342 15.6614 48.7393 15.7542 47.9586 15.8693ZM55.0803 15.4978C54.2894 15.4635 53.4885 15.4554 52.6996 15.4696L52.6713 14.0565C53.4905 14.0403 54.3218 14.0504 55.143 14.0847L55.0803 15.4978Z" fill="#FFCF3C"/>
<path id="Vector_2" d="M83.0432 112.239H82.9218L82.9299 110.826H83.0452C83.7976 110.826 84.5601 110.804 85.3085 110.758L85.3935 112.169C84.6147 112.215 83.8239 112.239 83.0432 112.239ZM80.4542 112.153C79.633 112.098 78.8057 112.015 77.9947 111.908L78.1787 110.507C78.9595 110.61 79.7564 110.689 80.5472 110.742L80.4542 112.153ZM87.853 111.941L87.677 110.538C88.4618 110.439 89.2526 110.314 90.0273 110.166L90.2943 111.555C89.4893 111.709 88.6681 111.838 87.853 111.941ZM75.5554 111.509C74.7504 111.349 73.9393 111.161 73.1464 110.949L73.5125 109.585C74.2751 109.789 75.0558 109.968 75.8305 110.122L75.5554 111.509ZM92.7053 111.01L92.3493 109.643C93.1138 109.444 93.8824 109.217 94.6328 108.971L95.0778 110.312C94.2991 110.57 93.5002 110.804 92.7053 111.01ZM70.782 110.235C70.0053 109.972 69.2245 109.682 68.464 109.367L69.0041 108.061C69.7363 108.361 70.4867 108.642 71.2371 108.896L70.782 110.235ZM97.3978 109.462L96.8658 108.152C97.596 107.857 98.3282 107.534 99.0381 107.191L99.653 108.462C98.9147 108.818 98.1563 109.155 97.3978 109.462ZM66.2068 108.353C65.4685 107.992 64.7343 107.602 64.0223 107.195L64.7282 105.969C65.4139 106.363 66.1218 106.738 66.8318 107.086L66.2068 108.353ZM101.841 107.32L101.146 106.09C101.833 105.703 102.517 105.287 103.176 104.857L103.951 106.04C103.265 106.486 102.555 106.918 101.841 107.32ZM61.9168 105.897C61.2331 105.444 60.5555 104.964 59.9002 104.467L60.7578 103.343C61.3869 103.821 62.0402 104.284 62.6995 104.72L61.9168 105.897ZM105.976 104.625L105.126 103.494C105.757 103.022 106.382 102.521 106.983 102.009L107.903 103.082C107.28 103.613 106.631 104.132 105.976 104.625ZM57.9828 102.911C57.3638 102.374 56.753 101.811 56.1685 101.235L57.1636 100.23C57.7259 100.785 58.3145 101.328 58.9112 101.843L57.9828 102.911ZM109.73 101.419L108.743 100.406C109.309 99.8545 109.865 99.2792 110.395 98.6938L111.445 99.6406C110.895 100.25 110.318 100.848 109.73 101.419ZM54.4654 99.4468C53.9193 98.8351 53.3853 98.1972 52.8817 97.5532L53.9962 96.6831C54.4816 97.3029 54.9953 97.9166 55.5212 98.506L54.4654 99.4468ZM113.043 97.7591L111.932 96.8809C112.424 96.2612 112.901 95.6192 113.352 94.9712L114.515 95.7767C114.048 96.451 113.553 97.1171 113.043 97.7591ZM51.4234 95.5627C50.9602 94.8864 50.5152 94.188 50.0965 93.4834L51.3142 92.7627C51.7167 93.441 52.1454 94.1153 52.5925 94.7653L51.4234 95.5627ZM115.858 93.7035L114.645 92.9747C115.053 92.2984 115.444 91.6 115.806 90.8974L117.064 91.5454C116.688 92.2762 116.281 93.0009 115.858 93.7035ZM48.9072 91.3234C48.5351 90.5926 48.1831 89.8437 47.8615 89.0907L49.1621 88.5335C49.4736 89.2562 49.8113 89.9789 50.1693 90.6814L48.9072 91.3234ZM118.128 89.3188L116.831 88.7535C117.149 88.0308 117.444 87.2859 117.713 86.543L119.044 87.0235C118.765 87.7946 118.457 88.5658 118.128 89.3188ZM46.9614 86.7974C46.6864 86.0242 46.4356 85.2329 46.2131 84.4456L47.5763 84.062C47.7907 84.819 48.0334 85.5821 48.2964 86.325L46.9614 86.7974ZM119.809 84.6757L118.449 84.2821C118.668 83.527 118.866 82.7518 119.036 81.9807L120.419 82.2835C120.241 83.087 120.035 83.8904 119.809 84.6757ZM45.6184 82.0514C45.4465 81.2519 45.3009 80.4343 45.1815 79.6228L46.5832 79.4189C46.6985 80.2002 46.8401 80.9875 47.0039 81.7566L45.6184 82.0514ZM120.868 79.859L119.469 79.645C119.588 78.8658 119.683 78.0724 119.752 77.2871L121.162 77.4103C121.093 78.2259 120.994 79.0495 120.868 79.859ZM44.9024 77.1721C44.8357 76.3585 44.7952 75.5288 44.7811 74.7092L46.1969 74.685C46.2111 75.4743 46.2495 76.2737 46.3142 77.059L44.9024 77.1721ZM121.299 74.9474L119.883 74.9151C119.889 74.6265 119.893 74.3358 119.893 74.0451C119.893 73.5464 119.883 73.0377 119.863 72.5371L121.277 72.4805C121.297 72.9994 121.309 73.5262 121.309 74.0451C121.309 74.3479 121.307 74.6487 121.299 74.9474ZM46.1928 74.0451H44.777C44.777 73.2234 44.8033 72.3958 44.8559 71.5802L46.2697 71.671C46.2171 72.4563 46.1928 73.2557 46.1928 74.0451ZM119.691 70.1691C119.608 69.3838 119.499 68.5925 119.368 67.8153L120.763 67.5771C120.901 68.3825 121.014 69.2062 121.101 70.0197L119.691 70.1691ZM46.4942 69.3051L45.0905 69.1254C45.1957 68.3119 45.3272 67.4923 45.4849 66.6908L46.8745 66.9613C46.7228 67.7345 46.5954 68.5238 46.4942 69.3051ZM118.892 65.4897C118.708 64.7206 118.498 63.9494 118.265 63.1984L119.618 62.7826C119.859 63.5638 120.078 64.3632 120.27 65.1627L118.892 65.4897ZM47.4064 64.6459L46.0371 64.2865C46.2454 63.4952 46.4841 62.6998 46.745 61.9226L48.0881 62.3707C47.8372 63.1177 47.6087 63.8828 47.4064 64.6459ZM117.491 60.9516C117.209 60.2168 116.902 59.4819 116.572 58.7633L117.861 58.1758C118.203 58.9207 118.522 59.6858 118.813 60.4489L117.491 60.9516ZM48.9173 60.1401L47.6067 59.6051C47.9182 58.846 48.258 58.087 48.618 57.3502L49.8902 57.9679C49.5443 58.6785 49.2167 59.4093 48.9173 60.1401ZM115.514 56.6396C115.14 55.9471 114.738 55.2547 114.319 54.5865L115.521 53.8376C115.955 54.532 116.372 55.2487 116.76 55.9694L115.514 56.6396ZM51.0006 55.8644L49.7709 55.1659C50.1774 54.4553 50.6123 53.7467 51.0633 53.0624L52.2466 53.8396C51.8117 54.4977 51.393 55.18 51.0006 55.8644ZM112.994 52.6142C112.533 51.9743 112.046 51.3404 111.544 50.7307L112.638 49.8344C113.16 50.4683 113.666 51.1264 114.143 51.7906L112.994 52.6142ZM53.62 51.8976L52.4913 51.0457C52.9848 50.3916 53.5087 49.7456 54.0447 49.1259L55.1167 50.0484C54.6009 50.646 54.0973 51.2677 53.62 51.8976ZM109.977 48.9422C109.436 48.3648 108.87 47.7975 108.296 47.2585L109.267 46.229C109.863 46.7902 110.45 47.3776 111.01 47.9772L109.977 48.9422ZM56.7287 48.2982L55.7174 47.309C56.2918 46.7236 56.8926 46.1502 57.5034 45.6032L58.448 46.6549C57.8594 47.1818 57.2809 47.735 56.7287 48.2982ZM106.512 45.688C105.901 45.1833 105.268 44.6947 104.629 44.2325L105.46 43.0878C106.123 43.5663 106.781 44.075 107.416 44.5978L106.512 45.688ZM60.2704 45.1268L59.3946 44.0165C60.0398 43.5098 60.7072 43.0192 61.3848 42.5549L62.1878 43.7197C61.5365 44.1658 60.8913 44.6402 60.2704 45.1268ZM102.655 42.9001C101.985 42.4802 101.293 42.0744 100.6 41.6989L101.275 40.4574C101.997 40.8491 102.715 41.269 103.409 41.705L102.655 42.9001ZM64.1902 42.4378L63.4641 41.2245C64.168 40.8046 64.8941 40.4029 65.6243 40.0315L66.2695 41.2891C65.5676 41.6465 64.8678 42.0341 64.1902 42.4378ZM98.4677 40.6331C97.7497 40.302 97.0114 39.9911 96.2732 39.7065L96.7809 38.3882C97.5495 38.683 98.316 39.006 99.0604 39.3512L98.4677 40.6331ZM68.4195 40.2757L67.8572 38.9797C68.6076 38.6547 69.3803 38.3499 70.1529 38.0753L70.6303 39.4057C69.886 39.6701 69.1436 39.9628 68.4195 40.2757ZM94.022 38.9252C93.2676 38.691 92.4949 38.4771 91.7283 38.2934L92.0601 36.9206C92.857 37.1124 93.66 37.3345 94.4427 37.5787L94.022 38.9252ZM72.8956 38.6769L72.5073 37.3183C73.2961 37.0922 74.1031 36.8903 74.9041 36.7187L75.2034 38.0996C74.4328 38.2671 73.6561 38.4609 72.8956 38.6769ZM89.3983 37.8109C88.6216 37.6756 87.8287 37.5646 87.0419 37.4798L87.1936 36.0748C88.0107 36.1636 88.834 36.2787 89.641 36.4179L89.3983 37.8109ZM77.5457 37.6716L77.3353 36.2746C78.1464 36.1535 78.9716 36.0566 79.7908 35.988L79.9101 37.397C79.1213 37.4637 78.3264 37.5565 77.5457 37.6716ZM84.6673 37.3001C83.8765 37.2658 83.0775 37.2557 82.2867 37.2719L82.2584 35.8588C83.0775 35.8426 83.9089 35.8507 84.728 35.887L84.6673 37.3001Z" fill="#F15A24"/>
</g>
<g id="Layer_4">
<path id="Vector_3" d="M58.0151 116.255C55.8469 115.314 53.7716 114.157 51.8299 112.811C49.8538 111.44 47.908 109.7 47.3761 107.358C46.9554 105.507 47.5359 103.484 48.8 102.065C50.0642 100.648 51.9594 99.8424 53.8606 99.8101C54.5787 99.798 55.3088 99.8929 55.9682 100.178C56.6782 100.482 57.2849 100.997 57.7825 101.591C59.2125 103.296 59.7364 105.616 59.6717 107.839C59.6049 110.061 59.0062 112.229 58.0151 116.255Z" fill="#FFCF3C"/>
<path id="Vector_4" d="M106.075 42.1975C103.595 43.6934 101.117 45.1913 98.6376 46.6872C99.0179 48.928 99.4002 51.1687 99.7804 53.4075C100.519 52.5879 101.514 51.9056 102.62 51.8935C103.725 51.8834 104.869 52.7656 104.827 53.8658C104.793 54.8065 103.983 55.5231 103.185 56.0218C102.313 56.5668 101.372 57.0009 100.391 57.3097C102.08 58.4846 104.307 58.852 106.285 58.2807C108.263 57.7094 109.948 56.2115 110.747 54.318C111.473 52.598 111.348 50.3431 109.892 49.1702C108.498 48.0478 106.433 48.2981 104.782 48.9905C104.847 48.2113 104.821 47.424 104.701 46.6508C105.535 46.2612 106.338 45.809 107.102 45.2942C106.767 44.7128 106.528 44.0729 106.075 42.1975Z" fill="#EF584E"/>
<path id="Vector_5" d="M45.7823 17.1653C45.7823 17.1653 43.4077 23.3931 43.2843 23.391C42.5804 22.8016 40.7277 22.0607 39.9449 23.5404C39.5546 24.2773 39.8681 25.2119 40.4061 25.8499C40.6286 26.1123 41.6723 27.0974 43.0173 26.3121C43.4724 26.0457 43.7353 25.5511 43.974 25.0807L45.8227 20.1449L49.4796 23.0479C49.4796 23.0479 47.8676 27.8484 47.8453 27.9493C46.9756 26.7361 44.33 26.4595 44.0084 28.2461C43.7535 29.6612 45.3615 31.8132 47.2385 30.9613C47.8939 30.6645 48.3712 30.0064 48.4521 29.2918L51.2009 21.5096L45.7823 17.1653Z" fill="#2DBC7C"/>
<path id="Vector_6" d="M26.8423 65.3928L36.3345 67.7366L28.9621 77.7212L23.5191 76.3485L30.1817 68.7096L25.7764 67.46L26.8423 65.3928Z" fill="#2DBC7C"/>
<path id="Vector_7" d="M61.941 56.0501L57.9828 49.7113C56.5952 47.4867 57.2748 44.5615 59.5038 43.1767C61.7327 41.7918 64.6635 42.4701 66.051 44.6948L70.0093 51.0336C71.3968 53.2582 70.7172 56.1834 68.4883 57.5682C66.2614 58.9531 63.3286 58.2727 61.941 56.0501Z" fill="#FFCF3C"/>
<path id="Vector_8" d="M71.0146 62.5706L65.8811 54.3463C65.7335 54.1101 65.8063 53.7992 66.043 53.6519C66.2796 53.5045 66.5911 53.5772 66.7387 53.8134L71.8722 62.0377C72.0198 62.2738 71.947 62.5847 71.7104 62.7321C71.4757 62.8795 71.1642 62.8068 71.0146 62.5706Z" fill="#FFCF3C"/>
<path id="Vector_9" d="M68.5166 63.5295L73.8382 60.2208C74.0748 60.0735 74.3863 60.1461 74.5339 60.3823C74.6816 60.6185 74.6088 60.9294 74.3721 61.0768L69.0506 64.3855C68.814 64.5328 68.5025 64.4602 68.3548 64.224C68.2072 63.9878 68.28 63.6769 68.5166 63.5295Z" fill="#FFCF3C"/>
<path id="Vector_10" d="M79.2871 91.5677L87.4606 76.2072L98.6376 91.4425L79.2871 91.5677Z" fill="#2DBC7C"/>
</g>
</g>
</svg>
