<svg width="192" height="198" viewBox="0 0 192 198" fill="none" xmlns="http://www.w3.org/2000/svg">
<g id="moms 1">
<g id="family">
<g id="Group">
<g id="mom">
<g id="Group_2">
<path id="Vector" d="M189.276 117.065C179.481 66.7008 149.322 82.2933 134.954 32.6052C126.31 2.71954 88.9233 -11.0761 75.7726 11.0355C68.4339 8.22146 52.1559 14.4065 47.3987 42.8814C42.2063 73.9253 36.1435 91.374 32.7065 94.2698C9.75359 113.612 -24.9707 165.572 31.3125 191.218C71.8635 209.691 137.285 179.071 136.99 162.543C131.304 167.265 43.2905 177.727 33.7095 147.359C26.5478 124.645 66.5089 109.365 84.5496 96.8388C85.6485 97.9749 86.4009 99.2742 86.7032 100.774C93.4372 134.008 169.62 71.1038 166.028 177.051C166.013 177.526 179.149 164.963 183.81 143.72C185.035 150.054 184.887 157.145 183.39 164.228C183.324 164.51 195.958 151.405 189.276 117.065Z" fill="#5B45FF"/>
</g>
<g id="Group_3">
<g id="Group_4">
<path id="Vector_2" d="M67.2317 148.138L71.1482 147.796C70.9933 149.007 70.8384 150.217 70.6835 151.427C68.9945 150.291 67.6595 149.177 67.2317 148.138Z" fill="#F2A48F"/>
</g>
<g id="Group_5">
<path id="Vector_3" d="M159.028 140.342C155.916 142.896 152.693 145.302 149.359 147.559C147.235 148.999 145.074 150.38 142.876 151.687C142.308 152.029 135.722 154.078 135.146 154.412C135.205 150.143 142.396 132.338 142.441 128.662C120.063 130.622 93.3635 145.844 71.1334 147.789C72.8224 134.832 74.8286 121.208 77.0265 108.548C77.9632 102.675 81.0388 87.4238 81.7248 88.9385C92.058 88.5004 93.0095 73.1529 93.9757 64.4731C94.7648 63.8865 111.729 49.4003 112.658 49.0736C112.149 53.7885 111.876 57.5752 111.906 61.9709C112.238 71.9278 113.543 76.3976 118.094 80.6002C125.248 86.1096 134.888 85.3299 142.839 89.577C145.686 91.2551 148.533 93.3861 150.406 96.2224C157.834 107.293 159.117 128.855 159.028 140.342Z" fill="#F2A48F"/>
</g>
<g id="Group_6">
<path id="Vector_4" d="M93.4889 69.3811C101.233 74.9869 110.342 74.0959 113.071 73.346C113.042 73.2717 113.012 73.1975 112.983 73.1158C111.419 69.0321 111.426 60.3374 112.732 51.1601C112.85 50.3211 112.983 49.4524 113.13 48.5614L111.153 49.9573L93.9831 64.4731C93.9019 66.2551 93.7323 67.8886 93.4889 69.3811Z" fill="#DD8572"/>
</g>
<g id="Group_7">
<path id="Vector_5" d="M137.779 102.794C144.867 116.99 137.757 125.158 130.072 129.308C124.666 132.226 119.621 133.28 117.519 133.102C115.653 132.939 113.868 132.345 112.171 131.424C96.6309 136.934 76.2079 111.533 90.8558 102.534C91.9253 101.88 91.8958 103.655 93.3709 103.187C93.6807 103.105 94.1896 102.927 94.728 102.749C95.4508 102.511 97.339 99.6602 97.7446 98.9771C100.031 95.1978 103.815 91.6264 107.525 90.5349C107.79 90.4607 106.404 89.7924 106.64 89.6662C105.378 89.0128 116.766 101.153 120.543 95.4428C120.602 95.3537 120.72 95.3092 120.823 95.3463C121.988 95.7547 128.604 97.9599 128.789 97.9822C130.323 98.3905 131.938 98.7766 133.612 99.1924C136.334 99.8755 138.384 101.628 141.342 102.749L142.161 101.761C142.33 101.828 142.367 102.051 142.227 102.17C139.911 104.137 135.928 93.8167 136.385 97.4104C136.533 97.7668 136.452 98.3757 137.064 98.539C138.362 98.8954 139.173 97.2694 137.61 94.975C142.588 99.0885 137.713 100.841 137.713 100.841C137.713 100.841 139.638 101.041 139.712 103.573C138.871 102.556 138.222 102.415 137.779 102.794Z" fill="#DD8572"/>
</g>
</g>
<g id="Group_8">
<g id="Group_9">
<g id="Group_10">
<path id="Vector_6" d="M142.448 128.663C137.3 148.769 139.52 149.527 139.063 153.885C118.042 165.557 93.8798 171.111 70.0418 169.901C67.9767 155.504 61.0583 143.29 59.9078 129.086C64.0307 119.292 64.6429 104.91 62.9834 93.1561C66.8113 91.0623 77.4027 87.6245 81.7396 88.9387C87.3671 100.537 100.304 105.437 112.415 102.95C122.6 101.145 132.58 95.2945 140.826 88.5972C144.004 89.9262 146.933 92.1092 149.278 94.6931C150.989 96.735 152.162 99.1927 153.239 101.635C148.216 106.209 142.655 116.448 142.448 128.663Z" fill="#FFF2E9"/>
</g>
</g>
<g id="Group_11">
<g id="Group_12">
<path id="Vector_7" d="M89.9781 83.1546C87.5442 83.7338 85.7445 85.9761 84.3136 87.9957C77.5207 98.9476 77.5723 112.788 78.273 125.388H69.1051C70.5213 111.704 72.9552 96.7498 82.2411 86.2434C84.2841 84.2238 87.3008 81.4691 90.31 81.9963L89.9781 83.1546Z" fill="#39BA80"/>
</g>
</g>
<g id="Group_13">
<g id="Group_14">
<path id="Vector_8" d="M117.083 79.3827C132.189 83.6298 133.207 119.403 133.214 132.924L124.09 132.063C125.912 119.804 130.057 86.0726 116.877 80.1029L117.083 79.3827Z" fill="#39BA80"/>
</g>
</g>
<g id="Group_15">
<g id="Group_16">
<path id="Vector_9" d="M137.182 154.65C116.958 165.423 93.9904 170.591 71.2588 169.656C69.555 169.589 68.1389 168.29 67.8291 166.552C66.6933 160.204 62.7252 157.078 59.7307 151.813C53.6237 140.186 58.1228 119.708 71.1777 119.804C74.6589 119.849 78.2287 121.148 80.9577 123.272C87.0352 127.467 90.7378 134.35 97.2799 132.234C100.717 131.031 103.202 128.41 106.3 126.279C111.773 122.091 118.308 120.079 125.307 120.681C131.281 121.193 138.561 124.066 142.455 128.662C143.282 129.635 140.966 149.274 141.172 152.697C141.253 154.189 138.465 153.967 137.182 154.65Z" fill="#39BA80"/>
</g>
</g>
</g>
<g id="Group_17">
<g id="Group_18">
<g id="Group_19">
<path id="Vector_10" d="M109.804 52.8013L109.428 54.4645L108.248 59.5135L107.908 61.0133C107.385 61.8598 106.795 62.7062 106.138 63.5601C100.105 71.2673 88.3777 78.9744 78.5681 78.1205C71.2588 77.4894 67.8882 65.2604 66.177 56.4618C66.1401 56.3579 66.1106 56.1945 66.0885 56.0089C65.823 54.7095 65.2698 51.9177 65.4026 50.8856C65.4173 50.8559 65.4173 50.8559 65.41 50.8337C65.9189 46.8093 66.2877 46.787 66.4499 44.2403C66.6491 40.6688 64.842 37.283 65.3731 31.5806C65.5501 29.5388 66.0443 27.2073 67.0178 24.4526C69.8058 16.5821 65.2993 18.4532 70.2336 15.8174C70.2558 15.8099 70.2557 15.8099 70.2779 15.8025C70.6172 15.6317 70.9933 15.4387 71.399 15.2159C71.4285 15.3719 71.4801 15.5204 71.5317 15.6689C74.8434 25.7075 91.8369 26.3831 99.7731 32.6944C102.259 34.6843 103.985 49.8758 109.804 52.8013Z" fill="#F2A48F"/>
</g>
<g id="Group_20">
<g id="Group_21">
<g id="Group_22">
<path id="Vector_11" d="M78.7303 56.5362C76.997 52.2817 78.0444 46.906 77.8747 46.7872C77.4986 48.7326 73.8772 55.6675 73.8772 55.6675L78.7303 56.5362Z" fill="#DD8572"/>
</g>
<g id="Group_23">
<path id="Vector_12" d="M78.8336 57.0781C78.7009 57.1078 78.5534 57.0781 78.428 56.9965C77.9043 56.6327 77.0561 56.6995 76.23 56.7663C75.6252 56.8108 75.0573 56.8628 74.5705 56.744C74.1279 56.6326 73.8034 56.3951 73.6116 56.0387C73.3092 55.4818 73.3461 54.6576 73.737 53.4623C73.8329 53.1727 74.1353 53.0168 74.4156 53.1133C74.6959 53.2098 74.8434 53.5217 74.7549 53.8112C74.3787 54.9843 74.4893 55.3853 74.5484 55.5041C74.5705 55.5412 74.6147 55.6229 74.8212 55.6748C75.1458 55.7565 75.6326 55.712 76.1563 55.6748C77.1151 55.6006 78.2067 55.5115 79.0328 56.0906C79.2762 56.2614 79.3426 56.6029 79.1803 56.8554C79.0918 56.9742 78.9664 57.0484 78.8336 57.0781Z" fill="#CE8072"/>
</g>
</g>
<g id="Group_24">
<g id="Group_25">
<g id="Group_26">
<path id="Vector_13" d="M69.2379 47.47C70.5047 47.47 71.5317 46.4062 71.5317 45.094C71.5317 43.7818 70.5047 42.718 69.2379 42.718C67.9711 42.718 66.9441 43.7818 66.9441 45.094C66.9441 46.4062 67.9711 47.47 69.2379 47.47Z" fill="#19173B"/>
</g>
<g id="Group_27">
<path id="Vector_14" d="M70.8236 38.0998C70.7203 38.122 70.6097 38.1146 70.5064 38.0627C70.4032 38.0181 67.9914 36.9712 65.3952 39.0501C65.1592 39.2358 64.8273 39.1912 64.6429 38.9536C64.4659 38.7086 64.5028 38.3671 64.7388 38.1814C67.8586 35.6867 70.8088 37.0009 70.9342 37.0603C71.1997 37.1865 71.3251 37.5132 71.2071 37.7879C71.1334 37.9513 70.9932 38.0627 70.8236 38.0998Z" fill="#332463"/>
</g>
<g id="Group_28">
<g id="Group_29">
<g id="Group_30">
<path id="Vector_15" d="M67.962 44.2253C67.7924 44.2922 67.5932 44.2625 67.4457 44.1288L65.5206 42.4433C65.2993 42.2503 65.2698 41.9087 65.4616 41.6786C65.646 41.4484 65.9779 41.4187 66.1992 41.6117L68.1243 43.2972C68.3456 43.4903 68.3751 43.8318 68.1833 44.062C68.1243 44.1437 68.0505 44.1956 67.962 44.2253Z" fill="#19173B"/>
</g>
</g>
<g id="Group_31">
<g id="Group_32">
<path id="Vector_16" d="M67.3129 45.2577C67.1875 45.3022 67.0548 45.3022 66.922 45.2428L64.8937 44.3146C64.6281 44.1958 64.5101 43.8765 64.6281 43.6018C64.7388 43.3271 65.0559 43.2008 65.3215 43.3271L67.3498 44.2552C67.6153 44.374 67.7333 44.6933 67.6153 44.9681C67.5563 45.1092 67.4457 45.2131 67.3129 45.2577Z" fill="#19173B"/>
</g>
</g>
</g>
</g>
<g id="Group_33">
<g id="Group_34">
<path id="Vector_17" d="M97.6561 41.4485C97.4496 41.493 97.2209 41.4039 97.1029 41.2034C95.3402 38.33 92.7292 38.471 92.6186 38.4785C92.3236 38.5007 92.0728 38.2706 92.0507 37.9661C92.0285 37.6617 92.2498 37.4018 92.5448 37.3796C92.6776 37.3721 95.886 37.1642 98.0028 40.6094C98.1576 40.8693 98.0913 41.2109 97.8405 41.3742C97.7815 41.4039 97.7151 41.4336 97.6561 41.4485Z" fill="#332463"/>
</g>
<g id="Group_35">
<g id="Group_36">
<g id="Group_37">
<path id="Vector_18" d="M91.0844 46.0296C90.8632 46.1113 90.6124 46.0371 90.4723 45.8366C90.2953 45.5916 90.3543 45.2426 90.5903 45.0644L92.6997 43.4829C92.9357 43.2972 93.2749 43.3566 93.4446 43.6091C93.6216 43.8541 93.5626 44.2031 93.3266 44.3813L91.2172 45.9628C91.1729 45.9851 91.1287 46.0074 91.0844 46.0296Z" fill="#19173B"/>
</g>
</g>
<g id="Group_38">
<g id="Group_39">
<path id="Vector_19" d="M91.6745 47.1062C91.3942 47.2102 91.0918 47.0617 90.9886 46.7721C90.8927 46.49 91.0328 46.1707 91.3131 46.0667L93.4667 45.2574C93.747 45.1534 94.0494 45.3019 94.1526 45.5915C94.2485 45.8737 94.1084 46.193 93.8281 46.2969L91.6745 47.1062Z" fill="#19173B"/>
</g>
</g>
<g id="Group_40">
<path id="Vector_20" d="M89.3512 49.3262C90.618 49.3262 91.645 48.2624 91.645 46.9502C91.645 45.638 90.618 44.5742 89.3512 44.5742C88.0843 44.5742 87.0574 45.638 87.0574 46.9502C87.0574 48.2624 88.0843 49.3262 89.3512 49.3262Z" fill="#19173B"/>
</g>
</g>
</g>
</g>
<g id="Group_41">
<g id="Group_42">
<g id="Group_43">
<path id="Vector_21" d="M85.6044 55.0289C85.4937 56.8555 87.6991 57.65 90.4576 57.8207C93.216 57.9989 95.4951 57.4866 95.6058 55.6675C95.7164 53.8484 93.5701 52.1035 90.8116 51.9327C88.0457 51.7545 85.715 53.2024 85.6044 55.0289Z" fill="#EE847C"/>
</g>
<g id="Group_44">
<path id="Vector_22" d="M66.0811 56.0165C67.6153 55.4448 69.2084 54.4276 69.2527 53.5885C69.3191 52.252 67.4235 51.0937 65.41 50.8339C65.41 50.8487 65.41 50.8636 65.4026 50.8784C65.2698 51.9179 65.823 54.7171 66.0811 56.0165Z" fill="#EE847C"/>
</g>
</g>
</g>
</g>
<g id="Group_45">
<path id="Vector_23" d="M106.123 63.5157C106.971 62.0679 107.687 60.7833 108.247 59.5137L107.908 61.0135C107.385 61.86 106.794 62.7064 106.138 63.5603C106.131 63.538 106.131 63.538 106.123 63.5157Z" fill="#DD8572"/>
</g>
<g id="Group_46">
<path id="Vector_24" d="M109.804 52.8013L110.504 53.774C104.397 49.2967 102.812 39.6071 99.6402 36.4664C89.7569 26.6877 79.4384 29.7393 73.3019 21.4827C71.4506 25.2621 68.3676 28.0093 65.3731 31.5881C65.5501 29.5463 66.0443 27.2148 67.0178 24.4602C69.8058 16.5897 65.2993 18.4608 70.2336 15.8249C70.2557 15.8175 70.2557 15.8175 70.2779 15.81C70.6909 15.7284 71.1187 15.6912 71.5391 15.6764C74.8507 25.715 91.8441 26.3906 99.7803 32.7019C102.259 34.6844 103.984 49.8759 109.804 52.8013Z" fill="#DD8572"/>
</g>
</g>
<g id="hair_19_">
<g id="Group_47">
<g id="Group_48">
<path id="Vector_25" d="M74.9318 14.7186C72.7855 29.8878 60.0626 20.8813 64.6576 59.1052C64.6576 59.1052 43.7626 38.6493 61.4935 19.4037C64.429 16.2036 70.949 11.8377 74.9318 14.7186Z" fill="#5B45FF"/>
</g>
</g>
</g>
<g id="hair_18_">
<g id="Group_49">
<g id="Group_50">
<path id="Vector_26" d="M99.7729 34.6101C102.981 37.7954 103.461 48.4354 109.811 52.8013C109.523 55.7193 108.211 58.281 106.256 61.6445C106.492 67.681 107.473 70.1238 110.217 78.024C115.136 92.1984 118.758 98.079 127.867 99.3635C127.867 99.3635 118.286 88.5601 120.97 77.3261C124.437 62.7879 118.824 66.9682 119.252 52.2816C120.402 12.5133 86.9172 2.29645 71.2662 15.8545C76.9011 28.9002 88.6136 23.5468 99.7729 34.6101Z" fill="#5B45FF"/>
</g>
</g>
</g>
<g id="ear_4_">
<path id="Vector_27" d="M99.4337 45.4283C100.842 49.4453 104.685 49.4675 107.348 51.5391C110.268 49.0889 115.992 49.5047 113.44 55.5189C111.19 60.8055 109.678 66.7826 107.702 65.0897C106.824 64.3398 104.958 61.3475 104.958 61.3475C102.893 64.169 102.413 61.793 98.1872 65.3273L99.4337 45.4283Z" fill="#F2A48F"/>
</g>
</g>
</g>
<g id="girl_2_">
<g id="Group_51">
<path id="Vector_28" d="M36.2616 121.861L37.0065 121.549C36.7041 121.653 36.446 121.75 36.2616 121.861ZM76.8053 101.717C76.8643 100.574 79.5122 92.0348 74.0764 85.4636C76.5988 71.6754 70.0566 62.164 62.209 57.4491C55.3349 53.3282 47.4578 52.8827 43.7994 56.4764C42.7669 56.12 41.7121 55.8973 40.6427 55.7933C39.3667 55.6745 38.076 55.7265 36.7852 55.9418C25.1908 57.8872 13.611 72.7075 14.7543 88.0104C15.4623 97.4699 20.4556 112.394 30.9216 118.297C31.5633 118.661 32.2271 118.988 32.9057 119.277L37.39 121.438C38.7324 121.067 40.7238 120.703 42.4792 119.752C42.9586 119.492 43.4233 119.195 43.8437 118.839C43.9617 118.742 44.0797 118.631 44.1977 118.527C44.5886 118.148 44.95 117.718 45.2451 117.213C45.6876 116.47 46.0121 115.579 46.1596 114.51C46.1965 114.25 46.2186 113.983 46.2334 113.701L67.0916 109.988C67.2687 110.248 67.6227 110.412 68.0431 110.508C68.4709 110.605 68.965 110.642 69.3928 110.642C69.7469 110.642 70.0566 110.612 70.2484 110.582C70.0419 111.466 76.8053 101.717 76.8053 101.717Z" fill="#EF584E"/>
<g id="braids_2_">
<path id="Vector_29" d="M81.4297 140.839C81.238 141.277 80.9798 141.433 80.6848 141.404C80.2054 141.359 79.6227 140.839 79.0548 140.32C77.41 138.812 75.367 136.577 74.2902 133.956C73.383 131.729 74.7991 128.714 75.4408 127.274C74.6147 126.806 71.4358 124.757 70.5065 120.539C70.2041 119.166 70.4327 117.807 71.067 116.678L71.5022 116.886C70.2336 116.196 69.26 114.956 68.906 113.396C68.6773 112.387 68.6257 111.659 68.9281 110.746L70.064 110.716C68.0283 110.464 65.5722 108.281 66.1844 105.259L76.1267 102.437L76.8052 101.724C77.2404 102.311 78.0075 104.383 77.8378 105.481C77.6534 106.699 76.7684 107.954 76.1783 108.63L76.9085 107.857C78.0222 108.578 78.568 109.573 78.8851 111.006C79.2392 112.58 78.8778 114.146 78.0222 115.349L78.4426 114.822C79.5563 115.542 80.1685 116.723 80.4856 118.148C80.729 119.218 79.9325 123.539 79.5711 124.497C79.7186 124.571 79.8587 124.66 79.9915 124.742C88.1784 129.583 83.6424 135.827 81.4297 140.839Z" fill="#EF584E"/>
<path id="Vector_30" d="M81.4297 140.839C81.238 141.277 80.9798 141.433 80.6848 141.404C80.6996 141.285 80.7143 141.159 80.7438 141.04C83.0376 130.34 81.2601 127.935 78.7893 126.041L79.9915 124.72C88.1783 129.583 83.6424 135.827 81.4297 140.839Z" fill="#EF584E"/>
<path id="Vector_31" d="M75.0867 128.038C74.8581 128.068 74.6295 127.92 74.5557 127.682C74.4672 127.407 74.6147 127.118 74.8802 127.029C77.6461 126.093 79.5638 123.769 79.5859 123.747C79.7629 123.524 80.0801 123.502 80.294 123.687C80.5079 123.873 80.53 124.2 80.353 124.423C80.2645 124.526 78.2361 126.992 75.19 128.024C75.1531 128.024 75.1163 128.031 75.0867 128.038Z" fill="#B3B9FF"/>
</g>
</g>
<g id="body_6_">
<g id="Group_52">
<path id="Vector_32" d="M108.609 165.639C107.997 165.795 107.385 165.943 106.765 166.092C106.131 166.24 105.496 166.389 104.855 166.53C101.757 167.213 98.6223 167.792 95.4508 168.245C94.3371 168.408 93.216 168.557 92.0875 168.683C91.4237 167.822 90.7526 167.005 90.0814 166.24C89.0119 165.015 87.9351 163.894 86.8656 162.869C86.2092 162.238 85.5601 161.644 84.9111 161.072C84.439 160.657 83.967 160.263 83.4949 159.877C83.4876 159.87 83.4802 159.87 83.4802 159.862L83.4728 159.855C83.3769 159.78 83.2884 159.699 83.1925 159.625C82.7795 159.283 82.3739 158.956 81.9682 158.637C81.9239 158.6 81.8797 158.57 81.8354 158.533C81.3339 158.14 80.8324 157.753 80.3456 157.382C80.3161 159.016 80.3308 160.731 80.3751 162.498C80.3898 163.107 80.4119 163.731 80.4341 164.347C80.5004 166.047 80.589 167.777 80.707 169.515C80.3308 169.522 79.9547 169.537 79.5785 169.544C79.4457 169.544 79.3056 169.552 79.1728 169.552C78.4132 169.567 77.6535 169.574 76.8864 169.574C75.367 169.574 73.855 169.544 72.3504 169.492C71.9816 169.477 71.6128 169.463 71.2441 169.448C71.0007 169.44 70.7646 169.426 70.5213 169.411C69.8574 169.381 69.1863 169.344 68.5225 169.299C62.6441 168.921 56.869 168.148 51.2193 167.005C47.0373 166.158 42.9217 165.112 38.8873 163.872C36.7705 163.218 34.6758 162.52 32.6032 161.763C32.4115 159.944 32.1828 158.14 31.9173 156.343C31.5485 156.848 30.5455 158.318 29.2178 160.471C27.6985 159.87 26.2012 159.238 24.7113 158.585C22.565 157.642 20.4482 156.64 18.3609 155.578C16.9374 154.858 15.5213 154.108 14.12 153.328C20.6326 142.688 27.6321 137.008 33.5695 132.709C35.7305 131.142 37.7514 129.754 39.5511 128.38C40.768 127.452 41.8818 126.531 42.8775 125.559C43.2979 125.15 43.6962 124.727 44.0723 124.289C44.1239 124.23 44.1756 124.17 44.2272 124.111C44.4558 123.836 44.6845 123.554 44.8984 123.272C45.4663 122.507 45.9605 121.698 46.3809 120.829C46.3809 120.829 46.3809 120.829 46.3809 120.821C47.1922 119.143 47.7085 117.228 47.8781 114.941C47.9076 114.532 47.9298 114.109 47.9371 113.679C47.9371 113.664 47.9371 113.656 47.9371 113.641L62.1942 114.607L65.0117 112.78C64.9969 113.909 65.2551 115.275 65.6091 116.552C66.0811 118.26 66.7154 119.812 67.04 120.383C67.2096 120.688 67.394 120.97 67.5858 121.237C68.1832 122.084 68.8691 122.782 69.6141 123.376C70.8532 124.378 72.2545 125.098 73.678 125.804C73.973 125.945 74.2681 126.093 74.5631 126.234C75.5883 126.739 76.6061 127.251 77.5797 127.883C77.8452 128.053 78.1034 128.232 78.3615 128.417C78.7082 128.67 79.6301 129.479 79.7629 129.605C80.4709 130.303 81.1643 131.001 81.8428 131.699C83.8564 133.741 85.7666 135.753 87.5737 137.721C87.6695 137.825 87.7654 137.929 87.8613 138.04C87.9056 138.092 87.9572 138.144 88.0015 138.196C89.093 139.391 90.1477 140.572 91.1656 141.738C92.2203 142.941 93.2381 144.136 94.2117 145.309C94.4994 145.651 94.7796 145.992 95.0525 146.326C95.3844 146.727 95.709 147.128 96.0335 147.529C96.0335 147.537 96.0409 147.537 96.0409 147.544C96.2548 147.811 96.4686 148.071 96.6752 148.338C97.221 148.984 97.7299 149.638 98.2019 150.284C98.2019 150.291 98.2093 150.291 98.2167 150.299C100.474 153.202 102.487 155.994 104.279 158.674C105.909 161.102 107.34 163.426 108.609 165.639Z" fill="#F2A48F"/>
</g>
<g id="Group_53">
<path id="Vector_33" d="M65.6165 116.552C65.1002 117.978 53.6459 121.958 44.0797 124.304C44.1313 124.244 44.183 124.185 44.2346 124.126C44.4632 123.851 44.6919 123.569 44.9058 123.287C45.4737 122.522 45.9678 121.712 46.3883 120.844C46.3883 120.844 46.3883 120.844 46.3883 120.836C47.1996 119.158 47.7159 117.243 47.8855 114.956C47.915 114.547 47.9371 114.124 47.9445 113.693C47.9445 113.686 47.9445 113.671 47.9445 113.656L62.2016 114.622L65.0191 112.795C65.0043 113.909 65.2698 115.275 65.6165 116.552Z" fill="#DD8572"/>
</g>
</g>
<g id="Group_54">
<g id="face_5_">
<g id="Group_55">
<g id="Group_56">
<path id="Vector_34" d="M30.5012 100.388C27.2338 102.051 26.4741 106.261 28.9744 107.887C33.9899 111.147 39.1381 110.798 37.1688 108.451L30.5012 100.388Z" fill="#DD8572"/>
</g>
<g id="Group_57">
<path id="Vector_35" d="M67.5194 82.3674C70.536 81.0903 72.5938 81.4318 71.7456 87.2085C71.1334 91.3961 71.3547 94.3364 69.5698 94.7745L67.5194 82.3674Z" fill="#DD8572"/>
</g>
</g>
<g id="Group_58">
<path id="Vector_36" d="M70.868 92.963C72.1956 101.97 70.7868 110.627 63.8169 113.909C58.831 116.485 51.2267 116.337 44.4928 113.961C39.9567 112.357 35.8411 109.721 33.1933 106.254C27.2854 97.96 21.0825 87.4388 26.3266 77.5487C33.5695 62.9883 56.2052 57.6571 64.6872 74.4747C65.8083 76.5315 66.9073 78.9075 67.8661 81.4542C68.67 83.6446 69.4002 85.9538 69.9534 88.3001C70.3591 89.8593 70.6393 91.4334 70.868 92.963Z" fill="#F2A48F"/>
</g>
<g id="Group_59">
<g id="Group_60">
<g id="Group_61">
<path id="Vector_37" d="M57.105 100.492C57.0165 99.95 55.8143 93.5051 55.9839 93.3269C56.1536 93.1487 58.9563 96.9206 59.0448 97.0617C59.1259 97.2028 57.518 99.9352 57.518 99.9352L57.105 100.492Z" fill="#DD8572"/>
</g>
<g id="Group_62">
<path id="Vector_38" d="M57.1566 101.042C57.046 101.094 56.8985 101.064 56.7952 100.945C56.6625 100.797 56.6403 100.559 56.7584 100.418C57.3189 99.7347 57.6066 99.0516 57.8573 98.4576C58.4769 96.9801 58.9563 96.2004 61.6115 97.3959C61.7812 97.4701 61.8844 97.6929 61.8402 97.8785C61.7959 98.0715 61.6189 98.1606 61.4419 98.0864C59.1923 97.0766 58.971 97.5963 58.4474 98.8437C58.1892 99.4526 57.8721 100.21 57.2525 100.967C57.2304 101.004 57.1935 101.027 57.1566 101.042Z" fill="#CE8072"/>
</g>
</g>
<g id="Group_63">
<g id="Group_64">
<g id="Group_65">
<path id="Vector_39" d="M39.6027 94.1955C39.6617 94.1658 39.7133 94.1138 39.7428 94.047C40.1632 92.9258 41.6088 91.4334 42.4423 91.0399C42.575 90.9731 42.634 90.8097 42.575 90.6761C42.516 90.535 42.3538 90.4756 42.221 90.5424C41.2696 90.9879 39.7354 92.5694 39.2413 93.8539C39.1897 93.995 39.256 94.1584 39.3888 94.2103C39.4699 94.2326 39.5437 94.2252 39.6027 94.1955Z" fill="#1E063D"/>
</g>
</g>
<g id="Group_66">
<g id="Group_67">
<path id="Vector_40" d="M63.8611 81.5213C63.9201 81.4916 63.9791 81.4396 64.0012 81.3653C64.0528 81.2242 63.9791 81.0609 63.8389 81.0089C62.5925 80.5411 60.4314 80.7119 59.4726 81.1648C59.3398 81.2317 59.2808 81.395 59.3398 81.5287C59.3988 81.6698 59.5611 81.7292 59.6939 81.6624C60.4683 81.2985 62.4745 81.0757 63.6545 81.5213C63.7283 81.5584 63.8021 81.551 63.8611 81.5213Z" fill="#1E063D"/>
</g>
</g>
</g>
<g id="Group_68">
<g id="Group_69">
<g id="Group_70">
<g id="Group_71">
<path id="Vector_41" d="M66.4278 88.1813C66.4573 88.1664 66.4868 88.1442 66.5163 88.1219L67.785 86.9264C67.9251 86.7928 67.9325 86.57 67.8071 86.429C67.6817 86.2879 67.4678 86.273 67.3277 86.4067L66.059 87.6021C65.9189 87.7358 65.9115 87.9585 66.0369 88.0996C66.1402 88.211 66.3024 88.2407 66.4278 88.1813Z" fill="#19173B"/>
</g>
</g>
<g id="Group_72">
<g id="Group_73">
<path id="Vector_42" d="M65.3288 87.4982C65.3583 87.4833 65.3878 87.461 65.4173 87.4388L66.686 86.2433C66.8261 86.1097 66.8335 85.8869 66.7081 85.7459C66.5827 85.6048 66.3688 85.5899 66.2287 85.7236L64.96 86.919C64.8199 87.0527 64.8125 87.2754 64.9379 87.4165C65.0412 87.5279 65.2034 87.5576 65.3288 87.4982Z" fill="#19173B"/>
</g>
</g>
</g>
<g id="Group_74">
<g id="Group_75">
<g id="Group_76">
<path id="Vector_43" d="M44.0133 97.9526C43.9838 97.9675 43.9469 97.9749 43.91 97.9823L42.2063 98.1902C42.0219 98.2125 41.8523 98.0714 41.8301 97.8784C41.808 97.6853 41.9408 97.5146 42.1252 97.4923L43.8289 97.2844C44.0133 97.2621 44.1829 97.4032 44.2051 97.5963C44.2272 97.7447 44.1387 97.8858 44.0133 97.9526Z" fill="#19173B"/>
</g>
</g>
<g id="Group_77">
<g id="Group_78">
<path id="Vector_44" d="M44.2346 96.6457C44.2051 96.6606 44.1682 96.668 44.1313 96.6754L42.4276 96.8833C42.2432 96.9056 42.0735 96.7645 42.0514 96.5715C42.0293 96.3785 42.162 96.2003 42.3464 96.178L44.0502 95.9701C44.2346 95.9478 44.4042 96.0889 44.4263 96.2819C44.4485 96.4378 44.3673 96.5789 44.2346 96.6457Z" fill="#19173B"/>
</g>
</g>
</g>
</g>
<g id="Group_79">
<g id="Group_80">
<path id="Vector_45" d="M70.8678 92.9632C70.6466 93.1043 70.381 93.2602 70.027 93.431C68.1389 94.3146 66.4425 94.5893 65.8967 93.3419C65.351 92.1168 66.1623 89.8299 68.0504 88.9463C68.8396 88.5825 69.4665 88.3078 69.968 88.3152C70.3515 89.8522 70.6466 91.4337 70.8678 92.9632Z" fill="#EE847C"/>
</g>
<g id="Group_81">
<path id="Vector_46" d="M42.1768 103.997C42.7078 105.2 44.3674 104.932 46.1892 104.071C48.0036 103.21 49.2943 102.089 48.7633 100.886C48.2322 99.6829 46.0933 98.8587 44.2715 99.72C42.4497 100.581 41.6457 102.794 42.1768 103.997Z" fill="#EE847C"/>
</g>
</g>
<g id="Group_82">
<g id="Group_83">
<g id="Group_84">
<path id="Vector_47" d="M44.3009 98.0712C44.2567 98.0786 44.2051 98.086 44.1534 98.0786C43.8879 98.0489 43.6961 97.8039 43.7257 97.5366C43.8805 96.0145 44.8762 94.6482 46.3145 93.9874C47.7896 93.2969 49.4417 93.4974 50.8357 94.5294C51.0496 94.6928 51.1012 94.9972 50.9463 95.22C50.7915 95.4427 50.4964 95.4947 50.2752 95.3313C49.1688 94.5072 47.8634 94.3438 46.698 94.8858C45.5917 95.3982 44.7951 96.4822 44.6771 97.6405C44.6624 97.8633 44.5001 98.0266 44.3009 98.0712Z" fill="#19173B"/>
</g>
</g>
<g id="Group_85">
<g id="Group_86">
<path id="Vector_48" d="M60.6453 91.4482C60.6232 91.4556 60.6011 91.4556 60.5789 91.4556C60.3134 91.4779 60.0848 91.27 60.07 90.9953C59.9741 89.592 60.7854 88.1218 62.0909 87.3422C63.4407 86.5477 64.96 86.6294 66.2803 87.565C66.4941 87.7209 66.5531 88.0327 66.4056 88.2555C66.2507 88.4782 65.9557 88.5376 65.7418 88.3817C64.7388 87.6689 63.5808 87.6021 62.5703 88.2035C61.5746 88.7975 60.9551 89.889 61.0215 90.921C61.0362 91.1809 60.874 91.3962 60.6453 91.4482Z" fill="#19173B"/>
</g>
</g>
</g>
<g id="Group_87">
<path id="Vector_49" d="M67.8734 81.4618C58.4474 67.5844 55.6299 77.1107 46.6759 66.3445C45.8351 78.8036 41.0852 81.0608 38.9831 94.1882C38.6512 96.193 37.921 102.178 42.4128 109.513C43.3643 111.028 44.0281 112.521 44.4927 113.954C39.9567 112.35 35.8411 109.714 33.1933 106.246C27.2854 97.9527 21.0825 87.4315 26.3266 77.5414C33.5694 62.9809 56.2052 57.6498 64.6871 74.4674C65.8156 76.539 66.9146 78.9076 67.8734 81.4618Z" fill="#DD8572"/>
</g>
</g>
<g id="hair_9_">
<g id="Group_88">
<path id="Vector_50" d="M44.714 125.44C44.5886 122.945 47.2364 115.832 42.2505 107.82C37.7588 100.485 38.4816 94.5074 38.8061 92.5027C40.9229 79.3678 45.6654 77.1032 46.5063 64.6589C55.5414 75.5143 58.5064 67.3839 68.1758 81.8998C68.1758 81.8998 67.689 73.6432 66.177 70.2128C64.37 66.1142 53.1738 53.6996 44.6771 59.9217C27.4108 59.6322 14.2527 83.9788 33.4883 106.58C39.9862 114.228 41.69 116.953 44.714 125.44Z" fill="#EF584E"/>
</g>
</g>
</g>
<g id="braids_3_">
<g id="Group_89">
<path id="Vector_51" d="M44.6181 117.822C44.5075 122.641 38.0096 126.71 35.878 126.101L36.9991 126.598C36.9327 127.653 36.6082 128.365 35.9591 129.271C35.0003 130.689 33.5252 131.521 31.9763 131.677L32.4926 131.669C32.6917 133.058 31.7772 135.553 29.8226 136.243C25.5448 137.802 23.192 138.389 22.1815 138.508C22.2626 140.23 22.4765 143.861 20.6916 145.725C19.1649 147.277 17.2398 148.42 15.4254 149.252C15.6836 148.71 15.8901 148.116 16.0229 147.388L14.4887 149.653C14.1052 149.801 13.7364 149.965 13.3898 150.098C12.608 150.373 11.8188 150.648 11.3172 150.484C11.0001 150.395 10.8083 150.121 10.7862 149.616C10.7272 148.146 10.5575 146.527 10.5059 144.901C10.4764 144.433 10.4617 143.965 10.4617 143.49C10.4617 142.993 10.469 142.517 10.5207 142.05C10.7862 141.374 11.1033 140.706 11.4205 140.06C11.7598 139.406 12.1359 138.768 12.5932 138.174C11.804 138.775 11.3394 139.911 10.7493 140.461C11.4426 138.396 13.1464 135.137 17.8004 134.172C18.0585 134.127 18.3388 134.068 18.6191 134.038C18.7961 134.008 18.9584 133.986 19.1427 133.964C19.1575 132.857 21.0162 129.383 22.5577 128.046C23.7746 126.984 25.6259 125.974 27.0346 125.7L27.2338 126.42C26.8429 124.861 27.1158 123.131 28.0894 121.683C28.9744 120.391 29.9038 119.619 31.3199 119.374C30.9954 118.579 30.6561 117.629 30.8552 116.782C31.1207 115.587 30.2504 112.699 30.9216 112.298L31.3125 113.293L40.178 120.339L44.6181 117.822Z" fill="#EF584E"/>
</g>
<g id="Group_90">
<path id="Vector_52" d="M19.4673 135.761C16.2441 136.622 13.3676 138.367 11.4279 150.084C11.3984 150.217 11.3689 150.358 11.3394 150.477C11.0222 150.388 10.8304 150.113 10.8083 149.608C10.7493 148.138 10.5797 146.52 10.528 144.894C10.4985 144.426 10.4838 143.958 10.4838 143.483C10.4838 142.985 10.4912 142.51 10.5428 142.042C10.8083 141.367 11.1255 140.699 11.4426 140.053C11.7819 139.399 12.158 138.761 12.6153 138.167C11.8261 138.768 11.3615 139.904 10.7714 140.453C11.3615 137.491 13.1685 135.041 17.8225 134.165C18.0807 134.12 18.3609 134.061 18.6412 134.031L19.4673 135.761Z" fill="#EF584E"/>
</g>
<g id="Group_91">
<path id="Vector_53" d="M22.2479 139.428C22.4692 139.554 22.7568 139.503 22.9264 139.295C23.1182 139.057 23.0887 138.701 22.8601 138.5C20.4482 136.391 19.4451 133.243 19.4304 133.214C19.3345 132.917 19.0321 132.753 18.7445 132.85C18.4568 132.946 18.3019 133.266 18.3904 133.555C18.4347 133.696 19.4968 137.037 22.152 139.361C22.1889 139.391 22.2184 139.406 22.2479 139.428Z" fill="#B3B9FF"/>
</g>
</g>
</g>
<g id="Group_92">
<path id="Vector_54" d="M24.7113 158.592C22.565 157.649 20.4482 156.647 18.3609 155.585C21.2964 155.006 23.7599 154.642 23.7599 154.642L24.7113 158.592Z" fill="#DD8572"/>
</g>
<g id="Group_93">
<g id="Group_94">
<g id="Group_95">
<path id="Vector_55" d="M98.5266 150.195C93.7472 152.162 87.618 157.687 84.9112 161.072C84.2474 161.963 83.9745 162.587 83.3549 161.54C82.7428 160.649 81.8872 158.904 80.8841 158.778C81.0906 162.231 81.5331 165.327 82.0568 169.47C57.6361 170.48 33.0901 164.436 11.8261 152.036C12.9177 150.418 13.9725 148.881 15.0124 147.418C17.7857 143.535 20.2639 140.357 23.428 137.208C26.5405 134.12 30.1029 131.491 34.1079 129.457C36.977 128.001 39.8388 126.717 42.8259 125.455C47.502 135.679 54.531 137.713 61.0142 137.208C61.619 138.946 62.1279 141.849 62.6294 143.802C63.3596 147.054 63.4481 147.047 63.3965 143.742C63.426 141.663 63.0793 138.53 63.3522 136.659C68.4193 134.276 69.6805 130.363 69.6215 123.391C73.7445 125.9 78.015 127.987 82.0863 130.637C84.8669 132.449 87.5959 134.402 90.1405 136.607C93.0391 139.117 95.6648 141.946 97.848 145.161C98.5045 146.133 99.1314 147.143 99.7141 148.197C100.422 149.475 99.8542 149.668 98.5266 150.195Z" fill="#FFCF3C"/>
</g>
<g id="Group_96">
<g id="Group_97">
<path id="Vector_56" d="M80.1465 146.557C80.1465 154.516 78.9074 162.327 79.1655 169.552C65.5428 169.797 51.8684 167.881 38.8799 163.879C38.5406 155.029 36.3353 141.782 32.8909 129.999C34.7053 129.085 37.3605 127.868 39.2929 126.992C43.7552 152.415 53.7565 162.364 66.4647 157.494C68.1537 156.551 69.4223 155.095 70.4033 153.365C74.777 145.02 73.9288 134.164 73.5674 125.566C75.0352 126.45 76.8938 127.393 78.3247 128.269C79.7925 134.372 80.2055 140.394 80.1465 146.557Z" fill="#FFCF3C"/>
</g>
</g>
<g id="Group_98">
<g id="Group_99">
<path id="Vector_57" d="M65.7492 137.81C58.9342 138.916 57.7319 139.844 65.6386 139.391C57.2156 141.411 57.8204 137.513 65.7492 137.81Z" fill="#FFCF3C"/>
</g>
<g id="Group_100">
<path id="Vector_58" d="M65.7492 141.901C58.9342 143.007 57.7319 143.935 65.6386 143.482C57.2156 145.502 57.8204 141.604 65.7492 141.901Z" fill="#FFCF3C"/>
</g>
<g id="Group_101">
<path id="Vector_59" d="M60.0479 140.43C60.6915 140.43 61.2132 139.888 61.2132 139.22C61.2132 138.552 60.6915 138.01 60.0479 138.01C59.4043 138.01 58.8825 138.552 58.8825 139.22C58.8825 139.888 59.4043 140.43 60.0479 140.43Z" fill="#FFCF3C"/>
</g>
<g id="Group_102">
<path id="Vector_60" d="M60.4093 144.321C61.0529 144.321 61.5746 143.779 61.5746 143.111C61.5746 142.443 61.0529 141.901 60.4093 141.901C59.7657 141.901 59.2439 142.443 59.2439 143.111C59.2439 143.779 59.7657 144.321 60.4093 144.321Z" fill="#FFCF3C"/>
</g>
</g>
</g>
</g>
</g>
<g id="Group_103">
<g id="body_1_">
<g id="Group_104">
<path id="Vector_61" d="M78.6566 159.164C78.6197 162.624 79.2245 167.005 79.4752 169.982C80.9061 169.953 82.3444 169.908 83.7752 169.827C83.967 169.819 84.1588 169.804 84.3505 169.797C85.0586 169.752 85.7666 169.708 86.4673 169.656C86.7033 169.641 86.932 169.619 87.168 169.604C87.6695 169.567 88.1785 169.522 88.68 169.47C88.857 169.455 89.0414 169.433 89.2184 169.418C89.3954 169.403 89.5798 169.381 89.7568 169.366C89.9338 169.351 90.1182 169.329 90.2953 169.307C90.4354 169.292 90.5755 169.277 90.7157 169.262C90.8337 169.247 90.9591 169.233 91.0771 169.225C91.3131 169.195 91.5417 169.173 91.7777 169.143C92.0138 169.114 92.2498 169.084 92.4858 169.054C93.1939 168.965 93.8945 168.876 94.6026 168.772C94.61 168.772 94.6173 168.772 94.6321 168.765C96.5203 168.497 98.3937 168.186 100.267 167.829C103.298 167.25 106.315 166.56 109.302 165.758C109.324 165.75 109.346 165.75 109.369 165.743C109.818 165.624 110.268 165.498 110.711 165.372C110.718 165.372 110.733 165.364 110.74 165.364C110.895 165.32 111.043 165.275 111.198 165.23C111.323 165.193 111.448 165.156 111.581 165.119C112.275 164.919 112.968 164.711 113.661 164.495C115.122 161.711 118.02 161.934 119.82 159.335C123.367 154.011 117.039 149.252 112.319 145.948C112.039 145.747 111.743 145.584 111.463 145.383C111.161 145.168 110.888 144.916 110.689 144.559C109.877 142.376 109.627 139.273 109.774 137.09C109.981 135.798 109.715 135.018 109.863 133.808C108.292 133.57 100.717 132.419 98.9763 132.152C98.9763 132.152 98.8952 132.189 98.8583 132.226C98.8362 132.226 98.8362 132.226 98.8214 132.249C98.3642 133.852 98.342 135.649 97.5233 137.149C96.6751 138.545 95.4213 139.666 93.9831 140.364C93.452 140.617 92.8988 140.817 92.3309 140.951C85.3315 143.988 81.1716 151.346 78.6566 159.164Z" fill="#F2A48F"/>
</g>
<g id="Group_105">
<path id="Vector_62" d="M109.855 133.815L109.767 137.097C105.423 139.221 100.127 138.746 96.6088 138.374C96.8301 138.115 97.0513 137.84 97.2579 137.565C98.3347 136.036 98.3126 134.105 98.792 132.278C98.792 132.278 98.792 132.256 98.8141 132.256C98.8362 132.234 98.8362 132.234 98.851 132.234C98.8878 132.197 98.969 132.16 98.969 132.16L109.855 133.815Z" fill="#DD8572"/>
</g>
</g>
<g id="Group_106">
<g id="Group_107">
<path id="Vector_63" d="M76.0825 169.997C91.3278 170.138 106.603 167.436 120.926 162C123.766 155.481 118.19 148.621 111.434 145.376C103.439 147.358 93.9093 145.19 93.9757 140.349C82.4919 143.958 77.9854 158.689 76.0825 169.997Z" fill="#B3B9FF"/>
</g>
<g id="Group_108">
<path id="Vector_64" d="M112.098 145.822C106.581 148.086 95.0452 147.863 93.098 140.713C93.4594 140.617 93.7913 140.416 94.1306 140.238C96.0556 146.23 106.079 146.349 110.991 144.834C111.338 145.339 111.707 145.569 112.098 145.822Z" fill="#FFF2E9"/>
</g>
</g>
<g id="Group_109">
<g id="Group_110">
<path id="Vector_65" d="M134.837 108.154C135.272 107.805 135.891 107.961 136.666 108.949C136.658 106.528 134.822 106.276 134.822 106.276C134.822 106.276 139.535 104.732 134.881 100.655C136.312 102.898 135.5 104.427 134.261 104.056C133.627 103.863 133.797 103.195 133.597 102.868C118.337 77.7269 106.89 93.7426 92.9136 110.189C92.9136 110.189 101.344 135.085 114.649 136.614C116.656 136.845 121.509 135.976 126.768 133.333C134.239 129.561 141.253 121.943 134.837 108.154Z" fill="#FFCF3C"/>
</g>
<g id="face_1_">
<g id="Group_111">
<g id="Group_112">
<path id="Vector_66" d="M120.1 125.856C122.209 127.408 122.062 129.821 120.513 131.083C114.369 136.087 114.141 132.857 114.598 131.217L120.1 125.856Z" fill="#F2A48F"/>
</g>
</g>
<g id="Group_113">
<path id="Vector_67" d="M126.893 119.3C125.772 121.215 122.829 124.274 120.137 126.866C117.644 129.234 115.387 131.202 114.937 131.558L114.93 131.573C114.908 131.581 114.908 131.581 114.908 131.581C114.9 131.595 114.9 131.595 114.9 131.595C114.871 131.618 114.871 131.618 114.871 131.618C99.7066 146.059 73.8993 115.81 89.9191 106.58C90.9591 105.986 92.1761 105.467 93.6069 105.058C93.9093 104.984 94.4035 104.836 94.9124 104.672C95.6131 104.464 96.1958 103.997 96.6088 103.365C98.8952 99.8089 101.691 96.8017 104.678 95.0643C107.982 93.1709 111.5 92.8219 114.915 95.0197C126.008 96.5567 134.084 106.811 126.893 119.3Z" fill="#F2A48F"/>
</g>
<g id="Group_114">
<g id="Group_115">
<g id="Group_116">
<path id="Vector_68" d="M100.636 117.153C100.835 116.804 103.321 112.706 103.247 112.52C103.166 112.335 100.171 114.005 100.075 114.08C99.9794 114.154 100.474 116.626 100.474 116.626L100.636 117.153Z" fill="#DD8572"/>
</g>
<g id="Group_117">
<path id="Vector_69" d="M100.466 117.517C100.533 117.592 100.651 117.621 100.754 117.577C100.894 117.517 100.96 117.361 100.916 117.22C100.673 116.545 100.636 115.973 100.599 115.468C100.51 114.221 100.356 113.508 98.1134 113.426C97.9659 113.419 97.8405 113.538 97.8258 113.686C97.811 113.835 97.9216 113.961 98.0618 113.968C99.9647 114.043 99.9942 114.481 100.061 115.535C100.097 116.047 100.142 116.693 100.407 117.436C100.422 117.465 100.444 117.495 100.466 117.517Z" fill="#DD8572"/>
</g>
</g>
<g id="Group_118">
<g id="Group_119">
<path id="Vector_70" d="M98.6518 101.279C98.6076 101.212 98.5928 101.123 98.6076 101.034C98.6371 100.863 98.792 100.759 98.9542 100.804C100.392 101.19 102.362 102.801 103.026 103.87C103.121 104.019 103.085 104.212 102.952 104.308C102.819 104.405 102.635 104.353 102.539 104.205C102 103.343 100.215 101.791 98.8436 101.427C98.7551 101.398 98.6887 101.346 98.6518 101.279Z" fill="#352119"/>
</g>
<g id="Group_120">
<path id="Vector_71" d="M113.801 117.918C113.816 117.837 113.86 117.762 113.934 117.71C114.074 117.614 114.251 117.651 114.34 117.8C115.114 119.121 115.439 121.69 115.188 122.938C115.151 123.109 114.996 123.227 114.841 123.198C114.686 123.168 114.583 122.997 114.62 122.826C114.819 121.824 114.583 119.418 113.846 118.163C113.794 118.089 113.787 118 113.801 117.918Z" fill="#352119"/>
</g>
<g id="Group_121">
<g id="Group_122">
<g id="Group_123">
<path id="Vector_72" d="M99.677 108.229C99.2049 109.097 98.519 108.845 97.6192 108.325C96.7194 107.798 95.9597 107.204 96.4318 106.335C96.9038 105.467 98.0101 105.184 98.9025 105.704C99.8024 106.231 100.149 107.36 99.677 108.229Z" fill="#19173B"/>
</g>
</g>
<g id="Group_124">
<g id="Group_125">
<path id="Vector_73" d="M107.598 120.316C108.152 121.133 108.727 121.534 109.575 120.925C110.416 120.316 110.652 119.158 110.099 118.342C109.546 117.525 108.447 116.745 107.606 117.354C106.75 117.963 107.038 119.507 107.598 120.316Z" fill="#19173B"/>
</g>
</g>
</g>
</g>
<g id="Group_126">
<g id="Group_127">
<path id="Vector_74" d="M94.551 109.253C93.8504 110.063 92.5375 109.372 91.2394 108.155C90.6936 107.627 90.2289 107.108 89.9265 106.595C90.9665 106.001 92.1834 105.482 93.607 105.081C93.6512 105.125 93.7176 105.177 93.7618 105.214C95.06 106.439 95.2296 108.429 94.551 109.253Z" fill="#EE847C"/>
</g>
<g id="Group_128">
<path id="Vector_75" d="M106.994 127.645C106.013 128.128 105.039 126.917 104.272 125.224C103.505 123.524 103.225 121.98 104.206 121.497C105.187 121.015 107.045 121.787 107.82 123.48C108.587 125.173 107.975 127.162 106.994 127.645Z" fill="#EE847C"/>
</g>
</g>
</g>
<g id="Group_129">
<path id="Vector_76" d="M126.893 119.299C125.772 121.215 123.353 123.45 120.661 126.041C119.215 126.457 117.674 127.652 115.793 129.108C115.719 128.202 117.091 124.824 117.32 124.274C118.795 120.807 113.411 117.51 118.61 111.072C116.582 110.464 116.051 110.323 112.385 111.444C110.453 112.03 111.345 107.13 109.096 106.313C105.968 105.162 107.215 101.94 102.465 103.172C102.288 101.739 102.642 99.289 107.539 96.8833C106.404 96.4526 106.396 95.1904 105.364 94.6706C108.668 92.7773 111.493 92.8441 114.915 95.0345C126.008 96.5566 134.085 106.81 126.893 119.299Z" fill="#DD8572"/>
</g>
</g>
<g id="hair_1_">
<g id="Group_130">
<path id="Vector_77" d="M133.738 108.563C134.291 97.9006 130.972 91.9828 125.411 91.7007C123.117 80.5855 106.684 83.2956 99.2419 95.3687C105.142 92.5917 105.614 95.4949 108.041 96.3933C103.144 98.8139 102.797 101.257 102.967 102.69C107.716 101.457 106.463 104.672 109.597 105.823C111.847 106.647 110.947 111.54 112.879 110.954C116.545 109.833 117.083 109.988 119.112 110.59C113.912 117.042 119.296 120.339 117.821 123.792C117.585 124.348 115.712 128.187 115.793 129.108C121.701 124.519 124.179 125.908 131.326 128.061C134.32 125.974 138.937 115.082 133.738 108.563Z" fill="#FFCF3C"/>
</g>
<g id="Group_131">
<path id="Vector_78" d="M120.225 98.7915C116.294 98.0787 112.142 97.0838 108.225 98.3609C111.943 96.4304 116.479 97.4253 120.225 98.7915Z" fill="#332463"/>
</g>
<g id="Group_132">
<path id="Vector_79" d="M119.171 101.22C116.988 101.687 114.65 101.91 112.592 102.846C114.377 101.301 116.929 101.027 119.171 101.22Z" fill="#332463"/>
</g>
</g>
</g>
<path id="Vector_80" d="M91.3205 169.195C94.374 168.846 97.3906 168.386 100.37 167.814C100.983 167.695 101.602 167.577 102.207 167.45C102.797 167.332 103.394 167.198 103.984 167.072C107.252 166.344 110.475 165.49 113.646 164.503C115.203 164.02 116.744 163.508 118.271 162.973C118.5 162.646 118.706 162.312 118.898 161.971C119.392 161.11 119.687 160.219 119.798 159.342C119.879 158.726 119.872 158.117 119.783 157.531C119.252 153.833 115.66 150.982 111.589 152.407C109.354 153.194 106.942 154.657 104.471 156.536C102.996 157.657 101.499 158.934 100.009 160.3C99.7434 160.538 99.4853 160.783 99.2198 161.028C98.2683 161.926 97.3242 162.832 96.3875 163.783C96.2031 163.983 95.9966 164.183 95.8122 164.384C95.8122 164.384 95.8122 164.384 95.7975 164.384C94.2781 165.965 92.7661 167.592 91.3205 169.195Z" fill="#898FD6"/>
</g>
</g>
<g id="Group_133">
<g id="Group_134">
<path id="Vector_81" d="M152.42 98.1233C170.394 151.123 111.094 173.673 47.2069 173.977C71.4874 175.922 96.6161 188.025 123.117 186.718C147.736 185.508 171.184 170.94 180.853 149.096C193.945 119.522 152.42 98.1233 152.42 98.1233Z" fill="#5B45FF"/>
<path id="Vector_82" d="M10.1445 142.859C21.5545 170.19 58.9783 140.438 91.4015 159.506C78.3688 160.686 77.0633 161.362 70.5433 166.255C91.5637 164.74 118.123 156.135 128.39 148.034C116.818 196.616 22.742 195.042 8.40385 173.45C-5.93431 151.858 10.1445 142.859 10.1445 142.859Z" fill="#5B45FF"/>
</g>
</g>
</g>
</g>
</svg>
