<svg width="149" height="194" viewBox="0 0 149 194" fill="none" xmlns="http://www.w3.org/2000/svg">
<g id="climb 1" clip-path="url(#clip0_523_742)">
<g id="Group">
<path id="Vector" d="M11.0453 179.63C17.4699 172.937 40.5735 155.657 53.4366 153.967C66.2997 152.276 96.9519 164.013 101.711 166.064C106.471 168.115 117.724 175.085 122.345 179.63C126.966 184.175 140.106 194 140.106 194H0L11.0453 179.63Z" fill="#2DBC7C"/>
<path id="Vector_2" d="M65.1341 162.877L51.5772 179.755C51.5772 179.755 55.1989 183.496 54.5189 183.898C53.839 184.3 51.4662 185.769 52.4653 186.309C53.4505 186.85 63.7604 186.975 66.3136 188.984C68.8529 190.993 78.9546 192.462 78.9546 192.462L92.6642 182.97L104.209 189.926L111.175 191.534L113.45 194.014H0C0 194.014 6.14708 185.991 10.3099 180.6C14.4727 175.224 31.5264 162.6 40.074 158.872C48.6216 155.145 51.4385 155.117 51.4385 155.117L56.7252 161.727L63.8991 160.604L65.1341 162.877Z" fill="#32B47A"/>
<g id="Group_2">
<path id="Vector_3" d="M46.8871 158.179C48.7604 160.909 51.9103 161.311 52.7845 162.309C53.6587 163.306 53.7835 166.175 53.9223 167.547C54.0611 168.919 56.4061 171.066 56.4061 171.066C56.4061 171.066 62.0259 172.799 62.5532 172.605C63.0944 172.411 69.5884 169.057 69.5884 169.057C69.5884 169.057 78.8298 173.339 81.5773 173.076C84.3247 172.812 89.1813 173.048 92.3451 172.618C95.5088 172.203 97.1601 170.526 97.1601 170.526L96.4107 168.655L100.171 170.387L103.113 166.743C86.1286 158.858 60.9158 149.117 45.9019 154.701C45.8881 155.782 46.0962 157.029 46.8871 158.179Z" fill="white"/>
<path id="Vector_4" d="M16.6651 174.572L17.012 177.081C17.012 177.081 22.2294 182.027 23.839 182.027C25.4487 182.027 39.7826 179.755 43.2655 178.286C46.7484 176.817 54.9214 173.741 56.2812 173.893C57.6411 174.06 62.5532 175.736 62.5532 175.736C62.5532 175.736 68.9778 170.651 69.0194 170.831C69.0611 170.997 77.5532 174.933 79.2461 174.545C80.9389 174.157 86.2673 175.196 89.6115 174.545C92.9556 173.893 99.9491 173.325 99.9491 173.325L103.904 167.103C103.654 166.979 103.39 166.868 103.127 166.743L100.185 170.388L96.4246 168.655L97.1739 170.526C97.1739 170.526 95.5227 172.203 92.3589 172.618C89.1952 173.034 84.3386 172.799 81.5911 173.076C78.8437 173.339 69.6022 169.057 69.6022 169.057C69.6022 169.057 63.1082 172.397 62.5671 172.605C62.0259 172.799 56.42 171.067 56.42 171.067C56.42 171.067 54.0611 168.933 53.9362 167.547C53.7974 166.175 53.6725 163.307 52.7983 162.309C51.9241 161.311 48.7743 160.909 46.901 158.179C46.1101 157.029 45.9019 155.782 45.9297 154.715C45.3885 154.909 44.8612 155.131 44.3617 155.366C29.334 162.42 16.6651 174.572 16.6651 174.572Z" fill="#C3E1E5"/>
</g>
<path id="Vector_5" d="M106.235 76.1035C106.235 76.1035 118.127 77.2398 116.725 83.3231C115.324 89.4064 112.271 105.993 109.038 109.333C105.805 112.672 102.53 111.134 102.53 111.134C102.53 111.134 100.49 84.3901 106.235 76.1035Z" fill="#EA4A1F"/>
<g id="Group_3">
<path id="Vector_6" d="M96.1331 137.671C96.1331 137.671 102.572 136.978 102.919 137.574C103.265 138.17 103.876 139.888 103.904 141.481C103.945 143.075 104.042 143.893 104.042 143.893C104.042 143.893 104.944 146.207 105 150.073C105.055 153.925 104.431 154.84 104.029 154.964C103.626 155.089 101.392 155.671 100.227 155.172C99.061 154.673 97.937 152.83 97.382 151.265C96.8269 149.699 96.6049 148.937 96.6049 148.937L95.814 149.408C95.1757 149.782 94.357 149.546 94.024 148.881C93.6216 148.077 93.3163 146.747 93.7742 144.71C94.5929 141.121 96.2164 141.287 96.2164 141.287C96.2164 141.287 94.6207 139.611 96.1331 137.671Z" fill="#5B45FF"/>
<path id="Vector_7" d="M101.018 137.463C101.018 137.463 101.489 137.851 101.753 139.902C102.017 141.952 101.975 143.269 102.086 143.823C102.197 144.377 102.974 146.539 103.085 150.059C103.196 153.592 102.683 155.103 102.683 155.103C102.683 155.103 103.973 154.937 104.14 154.77C104.306 154.604 104.986 152.941 104.736 149.158C104.487 145.375 103.848 143.92 103.834 143.463C103.834 143.006 103.945 141.26 103.543 139.749C103.141 138.239 102.877 137.726 102.724 137.574C102.572 137.421 101.018 137.463 101.018 137.463Z" fill="#FFF8EE"/>
<path id="Vector_8" d="M96.924 137.587C96.924 137.587 96.5355 138.294 96.7297 139.333C96.924 140.359 97.1044 141.384 96.813 141.454C96.5355 141.523 94.3708 141.689 93.9962 145.542C93.6077 149.408 95.1618 149.38 95.689 149.269C96.2302 149.158 96.6049 148.923 96.6049 148.923C96.6049 148.923 95.8694 149.893 94.5512 149.823C93.233 149.754 92.3588 148.244 92.7335 144.599C93.1081 140.955 95.3977 140.955 95.3977 140.955C95.3977 140.955 94.1072 140.234 94.8981 137.906C95.7168 135.606 97.257 136.867 96.924 137.587Z" fill="#FFF8EE"/>
<path id="Vector_9" d="M96.6188 148.937C96.6188 148.937 96.1471 148.327 96.6327 146.595C97.1184 144.876 98.5615 143.962 98.8806 143.976C99.2136 143.989 99.283 144.613 98.9361 144.959C98.5892 145.306 97.8538 145.334 97.2155 146.789C96.4662 148.535 96.7853 149.491 96.7853 149.491L96.6188 148.937Z" fill="#FFF8EE"/>
<path id="Vector_10" d="M97.146 150.571C97.146 150.571 97.1044 149.56 97.715 148.548C98.3394 147.523 99.394 146.969 99.727 146.927C100.074 146.885 100.393 147.329 99.949 147.786C99.505 148.23 98.5753 148.396 97.9647 149.56C97.3542 150.724 97.5068 151.611 97.5068 151.611L97.146 150.571Z" fill="#FFF8EE"/>
<path id="Vector_11" d="M97.701 137.518C97.701 137.518 97.8121 138.516 99.1442 139.375C100.462 140.234 102.183 140.234 102.183 140.234L102.072 139.957C102.072 139.957 100.393 139.888 99.269 139.181C98.1451 138.474 97.9369 137.504 97.9369 137.504L97.701 137.518Z" fill="#FFF8EE"/>
</g>
<path id="Vector_12" d="M73.0157 109.998C73.0157 109.998 62.9972 132.71 65.5365 136.188C68.0758 139.666 88.3071 145.985 88.3071 145.985L87.7937 134.386C87.7937 134.386 81.5772 133.195 81.5772 131.144C81.5772 129.093 84.7132 122.788 84.7132 122.788V112.409L73.0157 109.998Z" fill="#68ADA3"/>
<path id="Vector_13" d="M83.4782 112.395L101.198 117.19L96.8547 159.981H85.6429L85.0323 123.897L83.4782 123.522V112.395Z" fill="#68ADA3"/>
<path id="Vector_14" d="M85.8511 70.6992C85.8511 70.6992 70.2405 101.379 69.1582 105.91C68.0759 110.442 73.0435 113.31 85.8511 116.372C98.6586 119.421 103.363 119.158 104.154 112.742C104.944 106.312 111.286 86.0252 112.618 83.5032C113.95 80.9951 107.761 78.6809 99.7826 75.1751C90.9158 71.2674 85.8511 70.6992 85.8511 70.6992Z" fill="#FFCF3C"/>
<g id="Group_4">
<path id="Vector_15" d="M103.238 76.3806C103.238 76.3806 103.127 75.175 103.488 73.817C103.848 72.4729 104.875 70.8932 104.875 70.8932L96.6328 69.0225C96.6328 69.0225 95.0787 72.4036 94.5236 72.9163C93.9686 73.429 93.247 73.4983 93.247 73.4983C93.247 73.4983 92.4977 77.6832 92.8724 78.1543C93.247 78.6255 100.421 78.3067 100.809 78.2375C101.212 78.1682 103.238 77.3367 103.238 77.3367V76.3806Z" fill="#F4C092"/>
<path id="Vector_16" opacity="0.63" d="M95.3978 71.5167C95.3978 71.5167 96.1609 73.138 98.95 73.9279C101.739 74.7177 103.723 73.138 103.723 73.138L104.167 72.168C104.167 72.168 101.989 72.0572 99.7548 71.3089C97.5347 70.5745 96.2997 69.7153 96.2997 69.7153L95.3978 71.5167Z" fill="#E28140"/>
<path id="Vector_17" d="M93.2331 47.142C93.2331 47.142 92.3034 49.0404 91.3182 50.1351C90.333 51.2298 87.0999 52.9481 87.4746 57.7288C87.8492 62.5095 91.901 68.0801 99.1859 71.1564C106.471 74.2465 111.841 71.9878 114.033 70.8931C116.226 69.7984 117.322 69.0085 117.322 69.0085C117.322 69.0085 117.599 70.8238 119.084 71.2811C120.569 71.7384 123.83 71.7384 126.147 68.8007C128.464 65.863 126.591 64.3525 126.105 63.729C125.634 63.0915 125.176 62.953 125.176 62.953C125.176 62.953 134.667 58.9344 135.083 48.2921C135.5 37.6498 123.76 28.2963 111.369 29.1693C98.9778 30.0423 95.9667 38.218 95.3562 40.6153C94.7456 43.0126 93.8714 45.9641 93.2331 47.142Z" fill="#F2A48F"/>
<path id="Vector_18" opacity="0.63" d="M124.038 68.6483C124.038 68.6483 125.245 67.9416 124.69 66.5004C124.135 65.0593 121.027 66.1263 120.194 67.1379C119.362 68.1495 119.611 69.6599 121.332 69.0363C123.053 68.4127 123.344 67.7476 123.483 67.2072C123.622 66.6667 123.538 66.4727 123.538 66.4727C123.538 66.4727 124.246 66.5004 124.343 67.3042C124.454 68.094 124.038 68.6483 124.038 68.6483Z" fill="#DC8168"/>
<path id="Vector_19" opacity="0.63" d="M101.92 56.4263C101.92 56.4263 102.835 55.8582 101.198 54.7634C99.6438 53.7103 99.0888 53.8627 98.9362 54.1815C98.7835 54.5002 98.4366 54.4447 98.4089 54.3339C98.3395 54.126 98.2285 54.0983 98.9084 53.5025C99.5883 52.9066 101.559 53.6687 102.308 54.7219C103.057 55.775 102.808 56.4401 102.35 56.5649C101.892 56.6896 101.92 56.4263 101.92 56.4263Z" fill="#DC8168"/>
<path id="Vector_20" d="M99.4504 45.212C99.4504 45.212 100.274 45.6596 99.9046 47.0965C99.5243 48.5333 98.9751 50.1116 98.0561 49.9938C97.1372 49.876 96.7886 48.5216 97.1266 47.3202C97.4646 46.1189 97.961 45.0118 98.5842 45C99.2074 45 99.4504 45.212 99.4504 45.212Z" fill="#3F2F29"/>
<path id="Vector_21" opacity="0.81" d="M116.822 56.1076C116.822 56.1076 117.28 53.5994 116.545 52.6433C115.809 51.6871 114.602 51.1744 114.505 50.9804C114.394 50.7725 114.658 50.1351 115.171 50.1905C115.685 50.2598 117.336 51.7564 117.572 53.2391C117.794 54.7357 116.725 56.7311 116.822 56.1076Z" fill="#DC8168"/>
<path id="Vector_22" opacity="0.81" d="M96.5496 43.4978C96.5496 43.4978 97.4515 42.2229 98.8669 42.3338C100.282 42.4446 100.615 43.1513 100.976 43.2483C101.337 43.3315 101.781 42.7356 101.614 42.5C101.448 42.2645 99.6578 41.1836 98.1314 41.7795C96.6189 42.3615 96.3414 43.7333 96.5496 43.4978Z" fill="#DC8168"/>
<path id="Vector_23" d="M108.996 60.3479C108.996 60.3479 111.924 61.8306 111.855 63.0362C111.785 64.2556 109.704 63.5073 108.414 62.7452C107.123 61.983 105.944 61.0962 106.304 60.1123C106.651 59.1146 108.441 60.0431 108.996 60.3479Z" fill="#EE847C"/>
<path id="Vector_24" d="M93.816 50.7311C93.816 50.7311 96.1749 52.0198 96.0639 53.2254C95.939 54.431 94.2323 53.8074 93.2054 53.1145C92.1647 52.4355 91.235 51.6318 91.5819 50.6341C91.915 49.6502 93.3719 50.454 93.816 50.7311Z" fill="#EE847C"/>
<g id="Group_5">
<path id="Vector_25" d="M113.003 57.0675C113.003 57.0675 114.01 56.318 114 55.1786C113.989 54.0393 112.238 53.3197 110.926 54.9687C109.615 56.6178 109.898 57.4473 110.538 57.8471C111.168 58.2369 112.321 57.8471 113.003 57.0675Z" fill="#3F2F29"/>
</g>
<path id="Vector_26" d="M124.718 43.6362C124.718 43.6362 124.288 47.9873 118.571 48.8049C112.854 49.6225 110.12 46.9896 110.12 46.9896C110.12 46.9896 113.173 48.0705 114.935 47.9873C116.684 47.9042 118.834 46.2413 118.834 46.2413C118.834 46.2413 115.823 48.0289 111.619 46.0612C107.414 44.1073 106.263 41.419 106.263 41.419C106.263 41.419 109.399 43.6362 111.189 44.2182C112.979 44.8002 114.006 44.3983 114.006 44.3983C114.006 44.3983 112.007 44.6616 109.69 43.2205C107.373 41.7793 106.804 41.1973 106.804 41.1973C106.804 41.1973 110.731 42.6939 112.535 42.3059C114.339 41.9179 115.587 40.8647 115.587 40.8647C115.587 40.8647 112.618 42.6385 109.191 41.6407C105.763 40.643 104.14 38.4675 99.4912 37.927C94.8288 37.3866 93.5106 42.4583 93.5106 42.4583C93.5106 42.4583 92.3173 37.054 96.605 33.8115C100.907 30.555 104.223 30.9015 104.223 30.9015C104.223 30.9015 101.642 30.5827 98.1868 32.5505C94.7317 34.5182 94.4403 35.5159 94.4403 35.5159C94.4403 35.5159 94.246 32.1902 98.3256 29.2386C102.405 26.287 108.719 26.4256 108.719 26.4256C108.719 26.4256 106.235 26.287 105.486 25.9129C104.736 25.5387 104.376 24.7073 104.376 24.7073C104.376 24.7073 106.221 26.3563 108.76 25.2339C111.3 24.1115 119.195 21.437 127.965 29.2386C136.734 37.0402 135.375 39.8532 135.375 39.8532L137.137 37.0263C137.137 37.0263 137.262 38.412 136.887 39.2157C136.512 40.0333 136.041 40.5876 136.041 40.5876C136.041 40.5876 136.984 40.8509 138.233 42.2089C139.482 43.5669 139.565 44.6062 139.565 44.6062C139.565 44.6062 138.76 43.3867 138.233 43.068C137.72 42.7493 136.707 42.0565 136.707 42.0565C136.707 42.0565 141.092 45.2436 138.622 52.4493C136.138 59.6689 130.06 60.9576 129.297 63.8953C128.534 66.833 131.212 66.93 131.212 66.93C131.212 66.93 129.311 68.6206 127.118 66.1402C124.926 63.6736 125.592 61.6643 125.592 61.6643C125.592 61.6643 125.259 63.147 125.273 63.7429C125.287 64.3387 125.634 64.9485 125.634 64.9485C125.634 64.9485 123.608 62.7867 124.773 59.7936C125.925 56.7866 127.285 54.32 128.104 52.0475C128.908 49.761 126.771 45.2159 126.771 45.2159C126.771 45.2159 128.437 48.9296 127.382 52.186C126.327 55.4563 123.816 58.6573 123.816 58.6573C123.816 58.6573 125.051 54.4586 125.592 51.9228C126.133 49.3869 125.592 46.8926 125.592 46.8926C125.592 46.8926 125.717 50.3015 125.342 51.3823C124.981 52.4632 124.246 53.9182 124.246 53.9182C124.246 53.9182 123.663 50.731 124.038 48.306C124.413 45.881 124.718 43.6362 124.718 43.6362Z" fill="#EF584E"/>
</g>
<path id="Vector_27" d="M99.0332 118.174L96.147 159.981H95.2728L98.0758 118.174H99.0332Z" fill="#4E9387"/>
<g id="Group_6">
<path id="Vector_28" d="M96.7993 158.013C96.7993 158.013 97.0768 164.484 96.4524 164.789C95.8279 165.094 94.0796 165.593 92.4838 165.523C90.8881 165.454 90.0694 165.496 90.0694 165.496C90.0694 165.496 87.6966 166.244 83.839 166.05C79.9815 165.856 79.1073 165.177 79.0102 164.761C78.913 164.346 78.469 162.087 79.0518 160.951C79.6346 159.828 81.5495 158.817 83.1452 158.373C84.741 157.93 85.518 157.75 85.518 157.75L85.1017 156.932C84.7687 156.281 85.0601 155.477 85.74 155.186C86.5726 154.84 87.9186 154.618 89.9306 155.2C93.469 156.239 93.1915 157.86 93.1915 157.86C93.1915 157.86 94.9676 156.364 96.7993 158.013Z" fill="#5B45FF"/>
<path id="Vector_29" d="M96.6744 162.877C96.6744 162.877 96.2581 163.32 94.1906 163.459C92.123 163.597 90.8187 163.459 90.2498 163.528C89.6947 163.597 87.4884 164.235 83.95 164.124C80.4117 164.013 78.9408 163.389 78.9408 163.389C78.9408 163.389 79.024 164.678 79.1767 164.858C79.3293 165.038 80.9528 165.828 84.7549 165.814C88.5569 165.814 90.0416 165.26 90.5134 165.288C90.9713 165.316 92.7058 165.551 94.2461 165.246C95.7863 164.941 96.3136 164.706 96.4801 164.581C96.6327 164.429 96.6744 162.877 96.6744 162.877Z" fill="#FFF8EE"/>
<path id="Vector_30" d="M96.827 158.803C96.827 158.803 96.147 158.373 95.0925 158.498C94.0518 158.623 93.0249 158.733 92.9694 158.442C92.9139 158.165 92.9 156.004 89.0702 155.366C85.2405 154.729 85.1572 156.267 85.2266 156.807C85.296 157.348 85.5041 157.75 85.5041 157.75C85.5041 157.75 84.5883 156.96 84.7409 155.643C84.8936 154.341 86.4615 153.565 90.0832 154.174C93.7049 154.784 93.5522 157.071 93.5522 157.071C93.5522 157.071 94.357 155.823 96.6188 156.78C98.8945 157.722 97.5346 159.177 96.827 158.803Z" fill="#FFF8EE"/>
<path id="Vector_31" d="M85.5041 157.75C85.5041 157.75 86.1424 157.32 87.8353 157.916C89.5282 158.512 90.3469 160.008 90.3052 160.327C90.2636 160.659 89.6392 160.687 89.32 160.313C89.0009 159.939 89.0148 159.204 87.5994 158.484C85.9065 157.611 84.9213 157.888 84.9213 157.888L85.5041 157.75Z" fill="#FFF8EE"/>
<path id="Vector_32" d="M83.839 158.179C83.839 158.179 84.852 158.193 85.8233 158.886C86.7946 159.565 87.2942 160.66 87.3081 161.006C87.3219 161.353 86.864 161.644 86.4339 161.172C86.0037 160.701 85.9204 159.759 84.7965 159.066C83.6725 158.373 82.7706 158.484 82.7706 158.484L83.839 158.179Z" fill="#FFF8EE"/>
<path id="Vector_33" d="M96.8408 159.565C96.8408 159.565 95.8278 159.607 94.8982 160.881C93.9685 162.156 93.8436 163.861 93.8436 163.861L94.135 163.764C94.135 163.764 94.3015 162.087 95.0924 161.02C95.8695 159.953 96.8547 159.801 96.8547 159.801L96.8408 159.565Z" fill="#FFF8EE"/>
</g>
<path id="Vector_34" d="M85.0324 123.897V122.262L74.4033 114.806L81.8131 122.081L76.1101 121.735L81.4662 124.52L79.7179 127.416C79.7179 127.416 80.8418 126.557 80.5643 128.386C80.2729 130.202 80.3423 131.684 80.1064 131.795C79.8844 131.906 76.9704 133.555 74.4033 133.957C71.8362 134.359 73.4875 135.204 75.2636 134.927C77.0259 134.636 80.8973 132.086 80.2729 133.555C79.6485 135.038 78.1082 136.451 79.3016 135.495C80.4949 134.525 80.8418 132.474 81.2442 133.846C81.6466 135.218 81.8687 135.814 81.8687 135.814L82.84 134.65C82.84 134.65 83.7836 134.594 83.9084 138.183C84.0333 141.772 82.0907 143.906 82.0907 143.906L85.3932 145.029L85.185 133.915C85.185 133.915 83.284 133.347 82.7845 131.809C82.2711 130.285 85.0324 123.897 85.0324 123.897Z" fill="#4E9387"/>
<path id="Vector_35" d="M85.851 70.6993C85.851 70.6993 83.4643 70.4775 80.7308 73.7201C77.9972 76.9765 71.6142 83.7942 70.6984 83.0044C69.7826 82.2145 62.7197 76.8795 62.7197 76.8795C62.7197 76.8795 59.0703 77.5585 56.9056 83.0737C63.5106 90.1824 68.5199 95.0324 71.7113 94.4781C74.9028 93.9238 77.6503 90.7505 77.6503 90.7505C77.6503 90.7505 86.184 78.293 85.851 70.6993Z" fill="#FFCF3C"/>
<path id="Vector_36" d="M74.6808 93.2723C74.6808 93.2723 80.481 81.1751 81.1748 80.1496C81.8547 79.1242 84.5051 74.4266 84.5051 74.4266C84.5051 74.4266 81.9796 77.4614 80.9112 78.9025C79.8427 80.3575 78.7326 83.3783 78.9824 82.1866C79.2322 80.9949 81.3274 76.8655 80.0092 78.4175C78.691 79.9695 77.4838 83.2952 77.012 84.9858C76.5402 86.6763 76.3321 84.8056 76.0684 85.7341C75.8187 86.6763 75.9435 88.7272 74.1397 91.3185C72.3496 93.9236 70.0323 94.3255 70.0323 94.3255C70.0323 94.3255 72.3358 95.4756 74.6808 93.2723Z" fill="#E6A800"/>
<path id="Vector_37" d="M137.165 67.5258C137.165 67.5258 137.581 66.8883 137.636 66.7359C137.706 66.5835 138.067 65.0592 138.538 64.2001C139.024 63.3409 140.134 62.3848 140.481 62.4956C140.828 62.6065 141.078 63.3409 140.689 63.8259C140.301 64.3109 139.926 65.4056 140.162 65.7798C140.398 66.1401 140.786 66.0292 141.549 65.5719C142.313 65.1146 145.102 63.5765 145.657 63.5488C146.212 63.5211 146.822 64.3248 146.101 64.8929C145.379 65.4611 143.145 66.7775 142.923 67.0823C142.687 67.3872 143.187 67.6921 143.617 67.5812C144.047 67.4704 147.1 66.7913 147.488 66.7082C147.877 66.6112 148.404 67.2486 148.224 67.8029C148.043 68.3572 146.198 68.8422 145.573 68.9946C144.935 69.1471 143.978 69.5628 144.033 69.7429C144.089 69.9231 148.057 70.4081 148.196 70.6021C148.335 70.7822 148.571 71.8354 147.044 71.7799C145.532 71.7106 144.297 71.4474 144.214 71.7245C144.13 71.9878 146.725 73.2488 146.864 73.5814C146.989 73.9139 146.781 74.8424 145.532 74.4266C144.283 74.0248 143.312 73.2765 143.006 73.2488C142.701 73.2211 141.466 73.4289 139.912 72.9301C138.358 72.4312 137.9 71.9739 137.525 71.9462C137.151 71.9185 136.832 71.9324 136.832 71.9324L136.679 67.6366L137.165 67.5258Z" fill="#F2A48F"/>
<path id="Vector_38" d="M109.315 78.9858L137.498 67.0271L139.426 72.3067L112.687 88.8244C112.687 88.8244 107.872 83.2677 109.315 78.9858Z" fill="#F4C092"/>
<path id="Vector_39" d="M94.5097 72.9301C94.5097 72.9301 98.8252 75.5491 103.529 76.7962C104.348 80.5793 102.197 82.062 102.197 82.062L89.7364 78.8471L90.902 74.7454C90.902 74.7454 91.1101 72.6945 94.5097 72.9301Z" fill="#FFCF3C"/>
<path id="Vector_40" d="M92.6087 67.0271C92.6087 67.0271 96.0915 69.466 101.073 70.9625C106.041 72.473 109.038 72.5145 109.038 72.5145C109.038 72.5145 109.968 73.1658 109.593 74.413C109.204 75.6601 107.498 76.0204 107.553 77.0735C107.609 78.1267 108.205 78.1821 108.261 79.2768C108.316 80.3854 102.738 82.4363 95.4116 79.7757C88.0712 77.1151 88.0435 72.5145 88.7373 71.2535C89.4311 69.9925 90.2497 70.339 90.9158 69.4937C91.5818 68.6622 91.0268 67.2488 92.6087 67.0271Z" fill="#E6A800"/>
<path id="Vector_41" d="M108.205 78.9303C108.205 78.9303 134.362 67.7475 135.416 67.4842C136.471 67.221 138.941 72.8747 138.511 73.7338C138.08 74.593 108.705 92.1916 108.705 92.1916L108.205 78.9303Z" fill="#FFCF3C"/>
<path id="Vector_42" d="M109.038 78.5701C109.038 78.5701 106.734 83.1014 103.71 90.9861C100.671 98.857 102.433 102.515 106.374 104.428C106.193 105.633 105.888 106.284 105.888 106.284C105.888 106.284 100.629 104.275 99.7687 98.857C98.9084 93.4388 104.431 82.561 105.638 80.4547C106.845 78.3484 108.316 78.5424 109.038 78.5701Z" fill="#EA4A1F"/>
<path id="Vector_43" d="M88.7234 71.281C88.7234 71.281 85.7817 72.9855 81.8964 79.8309C78.0111 86.6763 72.7243 97.4018 72.7243 97.4018C72.7243 97.4018 79.6901 79.5537 83.2007 74.4266C86.7113 69.3133 89.1397 70.699 89.1397 70.699L88.7234 71.281Z" fill="#EA4A1F"/>
<path id="Vector_44" d="M60.3469 157.597L55.3238 0H52.4514L55.7262 157.597H60.3469Z" fill="#D5D0FF"/>
<path id="Vector_45" d="M52.5208 3.21484C52.5208 3.21484 15.7354 17.2521 16.9427 18.8596C18.1499 20.467 53.1591 34.2964 53.1591 34.2964L52.5208 3.21484Z" fill="#5B45FF"/>
<path id="Vector_46" d="M52.5208 3.21483C52.5208 3.21483 55.7123 2.45269 55.6845 3.21483C55.6568 3.97697 56.0176 8.85469 55.6845 9.49211C55.3515 10.1295 52.2017 9.86626 52.2017 9.86626L52.5208 3.21483Z" fill="#5B45FF"/>
<path id="Vector_47" d="M52.8122 27.742C52.8122 27.742 56.6836 26.9106 56.6559 27.6727C56.6281 28.4349 56.9889 33.3126 56.6559 33.95C56.3229 34.5874 53.173 34.3242 53.173 34.3242L52.8122 27.742Z" fill="#5B45FF"/>
<path id="Vector_48" d="M61.3737 77.4336C61.3737 77.4336 59.5976 75.7014 59.4311 75.258C59.2646 74.8284 58.7928 72.7776 58.3626 71.9877C57.9325 71.184 56.4477 71.1563 55.6152 71.184C54.7826 71.2117 54.741 71.8215 55.185 72.4173C55.6152 73.0132 56.42 73.0547 56.9195 73.6506C57.419 74.2464 57.8908 81.0364 57.8908 81.0364C57.8908 81.0364 59.667 78.2373 61.3737 77.4336Z" fill="#F2A48F"/>
<path id="Vector_49" d="M51.8687 73.1934C51.8687 73.1934 51.8548 72.4035 52.9094 72.5421C53.9639 72.6806 55.2822 73.5675 55.3099 74.2188C55.3238 74.8701 54.5884 74.8147 54.5884 74.8147C54.5884 74.8147 55.3793 75.7847 55.1434 76.1034C54.9075 76.4359 54.5467 76.4498 54.5467 76.4498C54.5467 76.4498 55.1157 76.9348 54.9214 77.3505C54.7271 77.7662 54.297 77.7385 54.297 77.7385C54.297 77.7385 54.7965 78.4175 54.6439 78.6392C54.4912 78.861 53.395 79.2628 52.618 78.6392C51.8548 78.0157 52.1323 77.3921 52.1323 77.3921C52.1323 77.3921 51.4801 76.8378 51.5911 76.3389C51.7021 75.8401 51.9797 75.6184 51.9797 75.6184C51.9797 75.6184 51.2581 74.9116 51.3414 74.5652C51.4246 74.2188 52.0907 73.9416 52.0907 73.9416C52.0907 73.9416 51.8687 73.6229 51.8687 73.1934Z" fill="#F2A48F"/>
</g>
</g>
<defs>
<clipPath id="clip0_523_742">
<rect width="148.293" height="194" fill="white"/>
</clipPath>
</defs>
</svg>
