<svg width="13" height="13" viewBox="0 0 13 13" fill="none" xmlns="http://www.w3.org/2000/svg">
<g id="pause-sign 1" clip-path="url(#clip0_535_18)">
<g id="Group">
<g id="Layer_8">
<path id="Vector" d="M10.9706 0.281221V12.7185C10.9706 12.874 10.8447 13 10.6896 13H8.36932C8.21387 13 8.08788 12.874 8.08788 12.7185V0.281221C8.08788 0.125951 8.21387 0 8.36932 0H10.6896C10.8447 0 10.9706 0.125951 10.9706 0.281221ZM4.63092 0H2.31064C2.15526 0 2.02942 0.125951 2.02942 0.281221V12.7185C2.02942 12.874 2.15526 13 2.31064 13H4.63088C4.78623 13 4.91218 12.874 4.91218 12.7185V0.281221C4.91218 0.125951 4.78626 0 4.63092 0Z" fill="white"/>
</g>
</g>
</g>
<defs>
<clipPath id="clip0_535_18">
<rect width="13" height="13" fill="white"/>
</clipPath>
</defs>
</svg>
