<svg width="530" height="395" viewBox="0 0 530 395" fill="none" xmlns="http://www.w3.org/2000/svg">
<path d="M530 347C530 307.719 530 288.078 521.159 273.65C516.211 265.577 509.424 258.789 501.35 253.842C486.922 245 467.281 245 428 245L397.5 245C394.227 245 392.59 245 391.388 245.737C390.715 246.149 390.149 246.715 389.737 247.388C389 248.59 389 250.227 389 253.5L389 293C389 332.281 389 351.922 397.842 366.35C402.789 374.423 409.577 381.211 417.65 386.158C432.079 395 451.719 395 491 395L521.5 395C524.774 395 526.41 395 527.613 394.263C528.286 393.851 528.851 393.285 529.264 392.612C530 391.41 530 389.773 530 386.5L530 347Z" fill="#FFCF3C"/>
<path d="M530.003 130C530.003 169.281 530.003 188.922 521.161 203.35C516.214 211.423 509.426 218.211 501.353 223.158C486.924 232 467.284 232 428.003 232L397.503 232C394.229 232 392.593 232 391.39 231.263C390.717 230.851 390.152 230.285 389.739 229.612C389.003 228.41 389.003 226.773 389.003 223.5L389.003 102C389.003 62.7188 389.003 43.0782 397.844 28.6501C402.792 20.5767 409.579 13.7889 417.653 8.84158C432.081 -3.11259e-06 451.722 -2.48828e-06 491.003 -1.23967e-06L521.503 -2.70185e-07C524.776 -1.66134e-07 526.413 -1.14109e-07 527.615 0.736801C528.288 1.14908 528.854 1.71474 529.266 2.38751C530.003 3.58986 530.003 5.22656 530.003 8.5L530.003 130Z" fill="#EF584E"/>
<path d="M1.94315e-05 320C1.7127e-05 278.579 33.5787 245 75 245L137.5 245C140.773 245 142.41 245 143.612 245.737C144.285 246.149 144.851 246.715 145.263 247.387C146 248.59 146 250.227 146 253.5L146 322C146 362.317 113.317 395 73 395C32.6832 395 2.17859e-05 362.317 1.95428e-05 322L1.94315e-05 320Z" fill="#513CF3"/>
</svg>
