<svg width="417" height="396" viewBox="0 0 417 396" fill="none" xmlns="http://www.w3.org/2000/svg">
<path d="M417.001 266C417.001 226.719 417.001 207.078 408.159 192.65C403.212 184.577 396.424 177.789 388.35 172.842C373.922 164 354.282 164 315.001 164L284.501 164C281.227 164 279.59 164 278.388 164.737C277.715 165.149 277.15 165.715 276.737 166.388C276.001 167.59 276.001 169.227 276.001 172.5L276.001 294C276.001 333.281 276.001 352.922 284.842 367.35C289.789 375.423 296.577 382.211 304.651 387.158C319.079 396 338.719 396 378.001 396L408.501 396C411.774 396 413.411 396 414.613 395.263C415.286 394.851 415.851 394.285 416.264 393.612C417.001 392.41 417.001 390.773 417.001 387.5L417.001 266Z" fill="#FFCF3C"/>
<path d="M417.001 72.5C417.001 112.541 384.541 145 344.501 145L284.295 145C281.216 145 279.677 145 278.527 144.345C277.746 143.901 277.1 143.254 276.655 142.473C276.001 141.323 276.001 139.784 276.001 136.706L276.001 70.5C276.001 31.5639 307.564 6.08862e-06 346.501 3.92236e-06C385.437 1.7561e-06 417.001 31.5639 417.001 70.5L417.001 72.5Z" fill="#2DBC7C"/>
<path d="M46.6667 285C31.1217 285 23.3492 285 17.3215 282.189C10.9292 279.208 5.79152 274.071 2.81076 267.679C-1.02062e-06 261.651 -1.36037e-06 253.878 -2.03986e-06 238.333C-3.39885e-06 207.243 -4.07835e-06 191.698 5.62152 179.643C11.583 166.858 21.8584 156.583 34.6429 150.622C46.6983 145 62.2433 145 93.3333 145L205.333 145C220.878 145 228.651 145 234.679 147.811C241.071 150.792 246.208 155.929 249.189 162.321C252 168.349 252 176.122 252 191.667C252 222.757 252 238.302 246.378 250.357C240.417 263.142 230.142 273.417 217.357 279.378C205.302 285 189.757 285 158.667 285L46.6667 285Z" fill="#EF584E"/>
</svg>
