<svg width="437" height="396" viewBox="0 0 437 396" fill="none" xmlns="http://www.w3.org/2000/svg">
<path d="M437 266C437 226.719 437 207.078 428.158 192.65C423.211 184.577 416.423 177.789 408.35 172.842C393.922 164 374.281 164 335 164L304.5 164C301.227 164 299.59 164 298.388 164.737C297.715 165.149 297.149 165.715 296.737 166.388C296 167.59 296 169.227 296 172.5L296 294C296 333.281 296 352.922 304.842 367.35C309.789 375.423 316.577 382.211 324.65 387.158C339.078 396 358.719 396 398 396L428.5 396C431.774 396 433.41 396 434.613 395.263C435.285 394.851 435.851 394.285 436.263 393.612C437 392.41 437 390.773 437 387.5L437 266Z" fill="#FFCF3C"/>
<path d="M437 72.5C437 112.541 404.541 145 364.5 145L304.294 145C301.216 145 299.677 145 298.527 144.345C297.746 143.901 297.099 143.254 296.655 142.473C296 141.323 296 139.784 296 136.706L296 70.5C296 31.5639 327.564 6.08862e-06 366.5 3.92236e-06C405.436 1.7561e-06 437 31.5639 437 70.5L437 72.5Z" fill="#513CF3"/>
<path d="M224 99C243.641 99 253.461 99 260.675 103.421C264.712 105.894 268.106 109.288 270.579 113.325C275 120.539 275 130.359 275 150L275 189C275 208.641 275 218.461 270.579 225.675C268.106 229.712 264.712 233.106 260.675 235.579C253.461 240 243.641 240 224 240L51 240C31.3594 240 21.5391 240 14.325 235.579C10.2884 233.106 6.89446 229.712 4.4208 225.675C-5.2218e-06 218.461 -4.79254e-06 208.641 -3.93403e-06 189L-3.71547e-07 107.5C-2.28461e-07 104.227 -1.56918e-07 102.59 0.736786 101.387C1.14908 100.715 1.71472 100.149 2.38751 99.7368C3.58984 99 5.22656 99 8.5 99L224 99Z" fill="#2DBC7C"/>
<path d="M137.667 396C122.122 396 114.35 396 108.322 393.189C101.93 390.208 96.792 385.071 93.8113 378.679C91.0005 372.651 91.0005 364.878 91.0005 349.333C91.0005 318.243 91.0005 302.698 96.622 290.643C102.584 277.858 112.859 267.583 125.643 261.622C137.699 256 153.244 256 184.334 256L228.334 256C243.879 256 251.651 256 257.679 258.811C264.071 261.792 269.209 266.929 272.19 273.321C275 279.349 275 287.122 275 302.667C275 333.757 275 349.302 269.379 361.357C263.417 374.142 253.142 384.417 240.358 390.378C228.302 396 212.757 396 181.667 396L137.667 396Z" fill="#FF7870"/>
</svg>
