<svg width="12.000000" height="12.000000" viewBox="0 0 12 12" fill="none" xmlns="http://www.w3.org/2000/svg" xmlns:xlink="http://www.w3.org/1999/xlink">
	<desc>
			Created with Pixso.
	</desc>
	<defs/>
	<path id="Vector" d="M1 12C0.44 12 0 11.55 0 11C0 10.44 0.44 10 1 10L3 10C3.55 10 4 10.44 4 11C4 11.55 3.55 12 3 12L1 12ZM0.01 6C0.01 6.55 0.46 6.99 1.02 6.98L7.01 6.92C7.57 6.92 8.01 6.47 8 5.91C8 5.36 7.55 4.92 6.99 4.92L1 4.99C0.44 4.99 0 5.44 0.01 6ZM0 1C0 1.55 0.44 2 1 2L11 2C11.55 2 12 1.55 12 1C12 0.44 11.55 0 11 0L1 0C0.44 0 0 0.44 0 1Z" fill="#FFFFFF" fill-opacity="1.000000" fill-rule="evenodd"/>
</svg>
