<svg width="173.000000" height="40.000000" viewBox="0 0 173 40" fill="none" xmlns="http://www.w3.org/2000/svg" xmlns:xlink="http://www.w3.org/1999/xlink">
	<desc>
			Created with Pixso.
	</desc>
	<defs/>
	<rect id="Frame 362" width="173.000000" height="40.000000" transform="translate(0.000000 -0.441162)" fill="#FFFFFF" fill-opacity="0"/>
	<rect id="Frame 1" width="44.145916" height="40.000000" transform="translate(0.000000 -0.441162)" fill="#FFFFFF" fill-opacity="0"/>
	<path id="Ellipse 1" d="M31.56 17.34C30.78 21.96 35.33 31.67 30.03 33.52C24.73 35.36 22.39 38.51 20.84 31.94C20.12 28.87 19.8 23.13 20.84 20.48C24.01 20.19 25.73 17.71 27.64 16.7C32.03 14.38 32.32 16.7 31.56 17.34Z" fill="#EC9630" fill-opacity="1.000000" fill-rule="nonzero"/>
	<path id="Vector 1" d="M11.1 24.73C7.38 18.27 15.46 8.91 16.04 14.15C16.61 19.23 22.87 24.22 30.81 17.93C37.16 12.89 34.44 23.76 31.8 34.5L11.45 32.93L11.1 24.73Z" fill="#EFBC3A" fill-opacity="1.000000" fill-rule="evenodd"/>
	<path id="Ellipse 2" d="M32.96 24.78C31.71 19.37 31.32 27.76 23.66 24.68C15.58 19.44 11.27 15.1 10.49 24.78C10.49 32.23 14.47 36.09 23.01 36.09C37.09 34.03 33.72 30.54 32.96 24.78Z" fill="#EC9630" fill-opacity="1.000000" fill-rule="nonzero"/>
	<path id="Subtract" d="M8.66577 2.79749C9.82275 0.793335 11.9609 -0.441162 14.2751 -0.441162L29.8708 -0.441162C32.1848 -0.441162 34.3232 0.793335 35.4802 2.79749L43.2781 16.3037C44.4351 18.3079 44.4351 20.7769 43.2781 22.7809L35.4802 36.2872C34.3232 38.2913 32.1848 39.5259 29.8708 39.5259L14.2751 39.5259C11.9609 39.5259 9.82275 38.2913 8.66577 36.2872L0.867676 22.781C-0.289307 20.7769 -0.289307 18.3079 0.867676 16.3037L8.66577 2.79749ZM31.5117 30.6053L31.5117 8.27979L26.3582 8.27979L26.3582 16.7847L17.8281 16.7847L17.8281 8.27979L12.6743 8.27979L12.6743 30.6053L17.8281 30.6053L17.8281 21.746L26.3582 21.746L26.3582 30.6053L31.5117 30.6053Z" clip-rule="evenodd" fill="#FFFFFF" fill-opacity="1.000000" fill-rule="evenodd"/>
	<path id="HotSkins" d="M107.97 14.51Q107.97 13.91 108.11 13.36Q108.21 12.98 108.38 12.61C108.66 12.02 109.07 11.49 109.59 11.04C110.12 10.58 110.75 10.23 111.5 9.96C112.25 9.69 113.08 9.55 114.01 9.55Q115.12 9.55 116.09 9.92L116.09 9.92Q116.18 9.96 116.27 9.99C116.98 10.28 117.59 10.66 118.12 11.16C118.65 11.65 119.07 12.23 119.37 12.89Q119.49 13.12 119.57 13.36Q119.86 14.12 119.9 14.98L118.36 14.98Q118.28 13.89 117.8 13.04Q117.5 12.53 117.06 12.1C116.27 11.33 115.25 10.95 114.01 10.95C113.31 10.95 112.67 11.05 112.12 11.25C111.56 11.44 111.09 11.7 110.71 12.04C110.33 12.36 110.03 12.74 109.82 13.17C109.62 13.61 109.51 14.05 109.51 14.51C109.51 15.4 109.78 16.09 110.3 16.58C110.83 17.07 111.49 17.47 112.29 17.78C113.08 18.08 113.94 18.35 114.86 18.6C115.78 18.83 116.64 19.15 117.44 19.57C118.23 19.98 118.89 20.52 119.42 21.2C119.95 21.87 120.22 22.79 120.22 23.97C120.22 24.76 120.08 25.49 119.8 26.15C119.52 26.81 119.11 27.38 118.57 27.85C118.04 28.32 117.39 28.7 116.62 28.99C115.85 29.26 114.98 29.4 114.01 29.4C113.04 29.4 112.17 29.26 111.41 28.99C110.64 28.7 109.98 28.31 109.44 27.82C108.89 27.33 108.47 26.73 108.17 26.05Q108.15 26.01 108.13 25.96Q107.71 24.97 107.65 23.82L109.21 23.82C109.37 25.06 109.86 26.07 110.68 26.85C111.5 27.62 112.61 28 114.01 28C115.5 28 116.64 27.63 117.45 26.88C118.26 26.12 118.66 25.15 118.66 23.97C118.66 23.04 118.4 22.32 117.87 21.79C117.35 21.26 116.69 20.83 115.89 20.5C115.09 20.17 114.23 19.89 113.32 19.66C112.4 19.41 111.54 19.1 110.74 18.7C109.94 18.31 109.28 17.79 108.76 17.16Q107.97 16.19 107.97 14.51ZM74.44 9.7L74.44 29.24L69.94 29.24L69.94 21.49L62.49 21.49L62.49 29.24L58 29.24L58 9.7L62.49 9.7L62.49 17.15L69.94 17.15L69.94 9.7L74.44 9.7ZM126.59 22.11L126.59 29.24L125.18 29.24L125.18 9.71L126.59 9.71L126.59 22.11ZM138.82 11.25Q138.82 10.94 138.95 10.71L138.95 10.71Q139.02 10.58 139.12 10.48C139.33 10.27 139.6 10.16 139.91 10.16Q140.19 10.16 140.42 10.28Q140.56 10.35 140.68 10.48C140.88 10.68 140.98 10.94 140.98 11.25C140.98 11.56 140.88 11.83 140.68 12.04Q140.58 12.14 140.45 12.21Q140.22 12.34 139.91 12.34C139.6 12.34 139.33 12.24 139.12 12.04Q139.01 11.92 138.94 11.77Q138.82 11.54 138.82 11.25ZM95.55 18.85L93.38 18.85L93.38 15.29L94.46 15.29C95.6 15.29 96.17 14.72 96.17 13.58L96.17 11.56L99.74 11.56L99.74 14.97L102.68 14.97L102.68 18.85L99.74 18.85L99.74 23.51C99.74 24.13 99.91 24.62 100.26 24.99C100.62 25.35 101.06 25.52 101.6 25.52L102.03 25.52C102.16 25.5 102.27 25.48 102.37 25.46C102.48 25.44 102.58 25.41 102.68 25.37L102.68 29.09C102.52 29.15 102.33 29.2 102.13 29.24C101.71 29.35 101.23 29.4 100.67 29.4Q98.45 29.4 97.15 28.31Q97.01 28.19 96.88 28.06C95.99 27.16 95.55 25.84 95.55 24.13L95.55 18.85ZM77.24 22.11C77.24 21.05 77.42 20.08 77.8 19.19C78.19 18.28 78.72 17.5 79.38 16.84Q79.91 16.28 80.54 15.87L80.54 15.87Q81.07 15.51 81.67 15.25Q82.02 15.1 82.38 14.99Q83.4 14.66 84.53 14.66Q85.8 14.66 86.92 15.08L86.92 15.08Q87.14 15.16 87.35 15.25C88.24 15.63 89.02 16.15 89.68 16.84C90.34 17.5 90.86 18.28 91.23 19.19C91.62 20.08 91.82 21.05 91.82 22.11C91.82 23.16 91.62 24.15 91.23 25.06C90.86 25.95 90.34 26.73 89.68 27.41C89.02 28.08 88.24 28.6 87.35 29Q87.25 29.04 87.14 29.08Q85.93 29.55 84.53 29.55C83.52 29.55 82.56 29.37 81.67 29C80.81 28.6 80.04 28.08 79.38 27.41C78.72 26.73 78.19 25.95 77.8 25.06C77.42 24.15 77.24 23.16 77.24 22.11ZM152.62 15.45C153.39 15.45 154.11 15.59 154.77 15.87C155.45 16.14 156.03 16.53 156.5 17.04C156.99 17.54 157.36 18.15 157.64 18.85C157.92 19.56 158.06 20.34 158.06 21.19L158.06 29.24L156.67 29.24L156.67 21.19C156.67 20.57 156.56 20 156.33 19.47C156.12 18.94 155.82 18.47 155.44 18.08Q155.14 17.77 154.78 17.54L154.78 17.54Q154.47 17.32 154.11 17.17C153.6 16.95 153.06 16.84 152.47 16.84C151.86 16.84 151.28 16.95 150.74 17.17C150.22 17.38 149.76 17.69 149.37 18.08C148.98 18.47 148.68 18.93 148.46 19.46C148.25 19.98 148.14 20.56 148.14 21.19L148.14 29.24L146.73 29.24L146.73 15.6L147.67 15.6L148.14 17.61L148.29 17.61C148.54 17.22 148.87 16.85 149.28 16.52C149.63 16.25 150.08 16 150.62 15.78C151.17 15.56 151.84 15.45 152.62 15.45ZM172.64 25.37C172.64 25.9 172.52 26.42 172.29 26.91C172.07 27.4 171.75 27.83 171.35 28.2C170.95 28.56 170.46 28.85 169.88 29.08C169.31 29.29 168.68 29.4 167.99 29.4C167.24 29.4 166.57 29.29 165.97 29.08C165.39 28.85 164.88 28.55 164.46 28.17C164.03 27.78 163.7 27.34 163.44 26.84C163.2 26.33 163.06 25.79 163.02 25.21L164.41 25.21C164.57 26.08 164.93 26.76 165.49 27.26C166.05 27.75 166.89 28 167.99 28C169 28 169.79 27.74 170.36 27.21C170.95 26.69 171.24 26.07 171.24 25.37Q171.24 24.68 170.92 24.23Q170.81 24.07 170.65 23.94C170.26 23.61 169.77 23.36 169.18 23.19C168.61 23 167.97 22.85 167.28 22.72C166.59 22.58 165.95 22.39 165.37 22.14C164.79 21.89 164.31 21.53 163.91 21.08C163.53 20.63 163.34 19.98 163.34 19.16C163.34 18.66 163.44 18.19 163.64 17.73C163.85 17.28 164.14 16.88 164.52 16.55Q165.09 16.04 165.93 15.75C166.49 15.55 167.13 15.45 167.84 15.45C168.5 15.45 169.11 15.56 169.65 15.78C170.2 15.99 170.68 16.27 171.09 16.63C171.51 16.97 171.83 17.38 172.06 17.85C172.3 18.33 172.44 18.82 172.49 19.32L171.09 19.32C170.93 18.62 170.58 18.03 170.03 17.55C169.5 17.08 168.76 16.84 167.84 16.84C166.83 16.84 166.05 17.07 165.52 17.54C164.99 18 164.73 18.54 164.73 19.16C164.73 19.75 164.93 20.2 165.32 20.5C165.72 20.81 166.2 21.04 166.78 21.22C167.35 21.38 167.99 21.53 168.68 21.67C169.38 21.8 170.02 22 170.59 22.26C171.17 22.51 171.65 22.88 172.05 23.35C172.44 23.83 172.64 24.5 172.64 25.37ZM135.27 29.24L133.41 29.24L126.59 22.11L132.78 15.6L134.65 15.6L128.44 22.11L135.27 29.24ZM140.53 29.24L139.14 29.24L139.14 15.6L140.53 15.6L140.53 29.24ZM87.63 22.11C87.63 21.01 87.33 20.14 86.73 19.5C86.13 18.86 85.4 18.54 84.53 18.54C83.66 18.54 82.93 18.86 82.33 19.5C81.73 20.14 81.43 21.01 81.43 22.11C81.43 23.21 81.73 24.07 82.33 24.71C82.93 25.36 83.66 25.68 84.53 25.68C85.4 25.68 86.13 25.36 86.73 24.71C87.33 24.07 87.63 23.21 87.63 22.11Z" fill="#FFFFFF" fill-opacity="1.000000" fill-rule="evenodd"/>
</svg>
