<svg width="20.000000" height="20.000000" viewBox="0 0 20 20" fill="none" xmlns="http://www.w3.org/2000/svg" xmlns:xlink="http://www.w3.org/1999/xlink">
	<desc>
			Created with Pixso.
	</desc>
	<defs>
		<clipPath id="clip396_17709">
			<rect id="20x20 Обновить" width="20.000000" height="20.000000" fill="white" fill-opacity="0"/>
		</clipPath>
	</defs>
	<g clip-path="url(#clip396_17709)">
		<path id="Vector" d="M19 1L19 6L14 6C13.44 6 13 5.55 13 5C13 4.44 13.44 4 14 4L15.29 4C12.14 1.22 7.34 1.33 4.34 4.34C2.56 6.11 1.79 8.52 2.04 10.84C2.1 11.39 1.7 11.88 1.15 11.94C0.6 12 0.11 11.6 0.05 11.05C-0.25 8.15 0.7 5.15 2.92 2.92C6.81 -0.96 13.08 -0.98 17 2.85L17 1C17 0.44 17.44 0 18 0C18.55 0 19 0.44 19 1Z" fill="#FFFFFF" fill-opacity="1.000000" fill-rule="evenodd"/>
		<g opacity="0.500000">
			<path id="Vector" d="M1 18.94L1 13.94L6 13.94C6.55 13.94 7 14.39 7 14.94C7 15.5 6.55 15.94 6 15.94L4.7 15.94C7.85 18.72 12.65 18.61 15.65 15.6C17.43 13.82 18.2 11.42 17.95 9.1C17.89 8.55 18.29 8.06 18.84 8C19.39 7.94 19.88 8.34 19.94 8.89C20.25 11.79 19.29 14.79 17.07 17.02C13.18 20.9 6.91 20.92 3 17.09L3 18.94C3 19.5 2.55 19.94 2 19.94C1.44 19.94 1 19.5 1 18.94Z" fill="#FFFFFF" fill-opacity="1.000000" fill-rule="evenodd"/>
		</g>
	</g>
</svg>
