<svg width="20.000000" height="20.000000" viewBox="0 0 20 20" fill="none" xmlns="http://www.w3.org/2000/svg" xmlns:xlink="http://www.w3.org/1999/xlink">
	<desc>
			Created with Pixso.
	</desc>
	<defs/>
	<path id="Ellipse 13 (Stroke)" d="M10 18C14.41 18 18 14.41 18 10C18 5.58 14.41 2 10 2C5.58 2 2 5.58 2 10C2 14.41 5.58 18 10 18ZM10 20C15.52 20 20 15.52 20 10C20 4.47 15.52 0 10 0C4.47 0 0 4.47 0 10C0 15.52 4.47 20 10 20Z" fill="#F4C038" fill-opacity="1.000000" fill-rule="evenodd"/>
	<g opacity="0.500000">
		<path id="Vector 20 (Stroke)" d="M14.7 7.29C15.09 7.68 15.09 8.31 14.7 8.7L9 14.41L5.29 10.7C4.9 10.31 4.9 9.68 5.29 9.29C5.68 8.9 6.31 8.9 6.7 9.29L9 11.58L13.29 7.29C13.68 6.9 14.31 6.9 14.7 7.29Z" fill="#F4C038" fill-opacity="1.000000" fill-rule="evenodd"/>
	</g>
</svg>
