<svg width="20.000000" height="20.000000" viewBox="0 0 20 20" fill="none" xmlns="http://www.w3.org/2000/svg" xmlns:xlink="http://www.w3.org/1999/xlink">
	<desc>
			Created with Pixso.
	</desc>
	<defs/>
	<path id="Ellipse 3 (Stroke)" d="M10 18C14.41 18 18 14.41 18 10C18 5.58 14.41 2 10 2C5.58 2 2 5.58 2 10C2 14.41 5.58 18 10 18ZM10 20C15.52 20 20 15.52 20 10C20 4.47 15.52 0 10 0C4.47 0 0 4.47 0 10C0 15.52 4.47 20 10 20Z" fill="#F4C038" fill-opacity="1.000000" fill-rule="evenodd"/>
	<g opacity="0.500000">
		<path id="Vector" d="M8 8C8 6.89 8.89 6 10 6C11.1 6 12 6.89 12 8C12 8.47 11.87 8.71 11.75 8.87C11.6 9.05 11.37 9.21 11.01 9.41C10.96 9.44 10.91 9.46 10.86 9.49C10.55 9.66 10.13 9.89 9.79 10.19C9.33 10.61 9 11.19 9 12C9 12.55 9.44 13 10 13C10.55 13 11 12.55 11 12C11 11.83 11.04 11.76 11.13 11.67C11.27 11.55 11.45 11.45 11.75 11.29C11.82 11.25 11.9 11.21 11.98 11.16C12.37 10.94 12.89 10.63 13.31 10.12C13.74 9.57 14 8.88 14 8C14 5.79 12.2 4 10 4C7.79 4 6 5.79 6 8C6 8.55 6.44 9 7 9C7.55 9 8 8.55 8 8ZM10 16C10.55 16 11 15.55 11 15C11 14.44 10.55 14 10 14C9.44 14 9 14.44 9 15C9 15.55 9.44 16 10 16Z" fill="#F4C038" fill-opacity="1.000000" fill-rule="evenodd"/>
	</g>
</svg>
