<svg width="90" height="90" viewBox="0 0 90 90" fill="none" xmlns="http://www.w3.org/2000/svg">
<g id="check-mark (23) 1" clip-path="url(#clip0_523_7)">
<g id="Group">
<path id="Vector" d="M89.7429 18.5967C89.6852 18.3283 89.5641 18.0693 89.2846 17.8494C86.7354 15.8314 80.7092 7.69395 76.7514 9.04305C71.2301 10.9269 40.8773 50.8594 34.1486 59.6602C31.7989 56.3024 12.2277 29.4565 11.2457 30.0584C7.88224 32.1137 4.41074 33.8709 1.19825 36.1908C0.838613 36.4517 0.654137 36.789 0.600099 37.1337C0.160338 37.4766 -0.121034 38.0449 0.0503981 38.7399C2.80822 49.9389 12.1848 58.7584 18.8818 67.5797C22.7707 72.7021 28.1932 85.5968 35.5033 79.5091C35.6282 79.4047 35.7027 79.2855 35.7847 79.1644C37.2195 78.5793 38.4475 77.4407 39.7332 76.0544C45.3048 70.0542 50.2092 63.4616 55.3783 57.1037C60.9032 50.306 67.0319 43.9425 73.101 37.6666C78.4005 32.1864 83.1074 24.9303 89.3535 20.6445C90.1324 20.106 90.1343 19.2172 89.7429 18.5967ZM17.598 38.3579C15.8464 36.8095 14.0314 35.3038 12.1364 33.8541C14.1786 35.1194 15.9805 36.6418 17.598 38.3579ZM9.19966 39.6437C8.82511 39.2896 8.40585 39.217 8.02386 39.3045C7.78348 38.6337 7.5841 37.9592 7.47602 37.2902C7.40521 36.8579 7.19278 36.5393 6.917 36.325C7.0288 36.2411 7.13315 36.1573 7.24868 36.0753C7.26918 36.3865 7.38098 36.6977 7.61764 36.9809C11.8494 41.9878 16.6178 46.4562 20.9204 51.3961C21.4142 51.9644 21.8968 52.5384 22.3813 53.1086C17.8104 48.778 13.7799 43.95 9.19966 39.6437ZM26.3466 73.0729C26.7733 73.5649 27.1982 74.0587 27.6342 74.5413C28.1392 75.2308 28.6497 75.9202 29.1771 76.6003C29.179 76.6078 29.1808 76.6171 29.1827 76.6227C28.1485 75.691 27.1982 74.3755 26.3466 73.0729ZM27.7162 62.1553C28.9703 63.2622 30.2821 64.3169 31.661 65.1628C31.6275 65.3827 31.6442 65.597 31.6983 65.8038C31.715 65.8952 31.7523 65.9865 31.7877 66.0759C30.4703 64.7343 29.097 63.4429 27.7162 62.1553ZM33.8151 76.5426C33.8113 76.5295 33.8132 76.5165 33.8076 76.5072C33.7629 76.4047 33.7107 76.3134 33.666 76.2128C34.9443 76.1979 36.6176 75.2494 38.4549 73.7717C36.8319 75.3034 35.2275 76.3823 33.8151 76.5426ZM77.3532 12.6208C76.1607 13.1406 75.1675 13.9419 74.2786 14.8829C75.1582 13.627 76.0899 12.6618 77.3532 12.6208ZM47.8464 51.2638C47.1346 52.011 45.86 53.1421 44.3227 54.5285C45.6812 53.17 47.0899 51.8787 48.3551 50.5892C52.4825 46.3929 55.6783 41.2462 59.01 36.3268C62.789 32.6187 66.704 29.0894 70.3152 25.1912C72.691 22.6235 74.1538 18.5072 76.9321 16.314C75.0799 18.2668 73.6171 21.088 72.3687 23.7993C70.3879 25.8863 68.6363 28.2453 66.799 30.5298C60.9647 37.7933 54.2546 44.5388 47.8464 51.2638ZM72.2513 33.897C69.3127 37.4579 66.0145 40.7002 62.8784 44.0841C65.2449 41.1176 67.5947 38.1362 69.7525 34.9945C69.922 34.7467 70.127 34.3982 70.3525 33.9715C71.1109 33.2131 71.8693 32.4566 72.6128 31.6851C74.7669 29.4416 77.3272 26.9763 78.898 24.1067C80.1521 22.4203 81.5254 20.747 83.0776 19.7408C80.8285 24.8446 75.3743 30.1162 72.2513 33.897Z" fill="#2DBC7C"/>
</g>
</g>
<defs>
<clipPath id="clip0_523_7">
<rect width="90" height="90" fill="white"/>
</clipPath>
</defs>
</svg>
