<svg width="80" height="80" viewBox="0 0 80 80" fill="none" xmlns="http://www.w3.org/2000/svg">
<g id="table (3) 1">
<g id="Group">
<g id="Group_2">
<path id="Vector" d="M0 8.74023V71.2601H80V8.74023H0ZM21.2245 66.3621H4.89796V48.4029H21.2245V66.3621ZM21.2245 43.505H4.89796V25.5458H21.2245V43.505ZM34.6939 66.3621H26.1224V59.8315H34.6939V66.3621ZM34.6939 54.9335H26.1224V48.4029H34.6939V54.9335ZM34.6939 43.505H26.1224V36.9744H34.6939V43.505ZM34.6939 32.0764H26.1224V25.5458H34.6939V32.0764ZM48.1633 66.3621H39.5918V59.8315H48.1633V66.3621ZM48.1633 54.9335H39.5918V48.4029H48.1633V54.9335ZM48.1633 43.505H39.5918V36.9744H48.1633V43.505ZM48.1633 32.0764H39.5918V25.5458H48.1633V32.0764ZM61.6327 66.3621H53.0612V59.8315H61.6327V66.3621ZM61.6327 54.9335H53.0612V48.4029H61.6327V54.9335ZM61.6327 43.505H53.0612V36.9744H61.6327V43.505ZM61.6327 32.0764H53.0612V25.5458H61.6327V32.0764ZM75.102 66.3621H66.5306V59.8315H75.102V66.3621ZM75.102 54.9335H66.5306V48.4029H75.102V54.9335ZM75.102 43.505H66.5306V36.9744H75.102V43.505ZM75.102 32.0764H66.5306V25.5458H75.102V32.0764ZM75.102 20.6478H4.89796V13.6382H75.102V20.6478Z" fill="#FFCF3C"/>
</g>
</g>
</g>
</svg>
