<svg width="48.003906" height="30.000000" viewBox="0 0 48.0039 30" fill="none" xmlns="http://www.w3.org/2000/svg" xmlns:xlink="http://www.w3.org/1999/xlink">
	<desc>
			Created with Pixso.
	</desc>
	<defs/>
	<rect id="Rectangle 338" x="1.500000" y="1.500000" rx="5.000000" width="16.714285" height="27.000000" fill="#F9F8FD" fill-opacity="1.000000"/>
	<rect id="Rectangle 338" x="1.500000" y="1.500000" rx="5.000000" width="16.714285" height="27.000000" stroke="#C4C4C4" stroke-opacity="1.000000" stroke-width="3.000000"/>
	<rect id="Rectangle 339" x="6.000000" y="1.000000" rx="2.000000" width="8.000000" height="4.000000" fill="#C4C4C4" fill-opacity="1.000000"/>
	<path id="Arrow 6" d="M26 14L47 14L47 16L26 16L26 14ZM26.02 15.98L26 16C25.4399 16 25 15.5601 25 15C25 14.4399 25.4399 14 26 14L26.02 14.02L26.02 15.98ZM45.5859 15L40.6362 10.0503C40.2402 9.6543 40.2402 9.03223 40.6362 8.63623C41.0322 8.24023 41.6543 8.24023 42.0503 8.63623L47.707 14.293C48.103 14.689 48.103 15.311 47.707 15.707L42.0503 21.3638C41.6543 21.7598 41.0322 21.7598 40.6362 21.3638C40.2402 20.9678 40.2402 20.3457 40.6362 19.9497L45.5859 15Z" fill="#C4C4C4" fill-opacity="1.000000" fill-rule="evenodd"/>
</svg>
